<svg width="606" height="363" viewBox="0 0 606 363" fill="none">
<path d="M241 0L235.226 10H246.774L241 0ZM242 363L242 9H240L240 363H242Z" fill="black"/>
<path d="M576 228.029L566.006 222.246L565.994 233.793L576 228.029ZM53.999 228.5L566.999 229.02L567.001 227.02L54.001 226.5L53.999 228.5Z" fill="black"/>
<line x1="231" y1="187.5" x2="252" y2="187.5" stroke="black"/>
<line x1="231" y1="267.5" x2="252" y2="267.5" stroke="black"/>
<line x1="231" y1="307.5" x2="252" y2="307.5" stroke="black"/>
<line x1="231" y1="347.5" x2="252" y2="347.5" stroke="black"/>
<line x1="281.5" y1="238" x2="281.5" y2="217" stroke="black"/>
<line x1="200.5" y1="238" x2="200.5" y2="217" stroke="black"/>
<line x1="160.5" y1="238" x2="160.5" y2="217" stroke="black"/>
<line x1="120.5" y1="238" x2="120.5" y2="217" stroke="black"/>
<line x1="80.5" y1="239" x2="80.5" y2="218" stroke="black"/>
<path d="M321.5 238V217" stroke="black"/>
<path d="M362 238V217" stroke="black"/>
<path d="M402 238V217" stroke="black"/>
<path d="M442 238V217" stroke="black"/>
<path d="M482.5 238V217" stroke="black"/>
<path d="M522 238V217" stroke="black"/>
<line x1="231" y1="147.5" x2="252" y2="147.5" stroke="black"/>
<line x1="231" y1="107.5" x2="252" y2="107.5" stroke="black"/>
<line x1="231" y1="67.5" x2="252" y2="67.5" stroke="black"/>
<line x1="252" y1="147.5" x2="482" y2="147.5" stroke="black" stroke-dasharray="2 2"/>
<path d="M482.5 217L482 147" stroke="black" stroke-dasharray="2 2"/>
<line x1="482" y1="147.5" x2="605" y2="147.5" stroke="#11D700"/>
<line x1="0.879206" y1="267.515" x2="482.879" y2="147.515" stroke="#FF0000"/>
<line x1="479.879" y1="148.254" x2="559.166" y2="128.515" stroke="#FF0000" stroke-dasharray="2 2"/>
<path d="M282.407 243.133V256H280.781V245.163L277.503 246.358V244.891L282.152 243.133H282.407Z" fill="black"/>
<path d="M197.623 249.892V251.228H193.334V249.892H197.623ZM204.382 243.133V256H202.756V245.163L199.478 246.358V244.891L204.127 243.133H204.382Z" fill="black"/>
<path d="M157.623 249.892V251.228H153.334V249.892H157.623ZM167.423 254.664V256H159.047V254.831L163.239 250.164C163.755 249.59 164.153 249.104 164.435 248.705C164.722 248.301 164.921 247.94 165.032 247.624C165.149 247.302 165.208 246.974 165.208 246.64C165.208 246.218 165.12 245.837 164.944 245.497C164.774 245.151 164.522 244.876 164.188 244.671C163.854 244.466 163.45 244.363 162.976 244.363C162.407 244.363 161.933 244.475 161.552 244.697C161.177 244.914 160.896 245.219 160.708 245.611C160.521 246.004 160.427 246.455 160.427 246.965H158.801C158.801 246.244 158.959 245.585 159.275 244.987C159.592 244.39 160.061 243.915 160.682 243.563C161.303 243.206 162.067 243.027 162.976 243.027C163.784 243.027 164.476 243.171 165.05 243.458C165.624 243.739 166.063 244.138 166.368 244.653C166.679 245.163 166.834 245.761 166.834 246.446C166.834 246.821 166.77 247.202 166.641 247.589C166.518 247.97 166.345 248.351 166.122 248.731C165.905 249.112 165.65 249.487 165.357 249.856C165.07 250.226 164.763 250.589 164.435 250.946L161.007 254.664H167.423Z" fill="black"/>
<path d="M117.623 249.892V251.228H113.334V249.892H117.623ZM121.411 248.802H122.571C123.14 248.802 123.608 248.708 123.978 248.521C124.353 248.327 124.631 248.066 124.812 247.738C125 247.404 125.094 247.029 125.094 246.613C125.094 246.121 125.012 245.708 124.848 245.374C124.684 245.04 124.438 244.788 124.109 244.618C123.781 244.448 123.365 244.363 122.861 244.363C122.404 244.363 122 244.454 121.648 244.636C121.303 244.812 121.03 245.063 120.831 245.392C120.638 245.72 120.541 246.106 120.541 246.552H118.915C118.915 245.901 119.079 245.31 119.407 244.776C119.735 244.243 120.195 243.818 120.787 243.502C121.385 243.186 122.076 243.027 122.861 243.027C123.635 243.027 124.312 243.165 124.892 243.44C125.472 243.71 125.923 244.114 126.245 244.653C126.567 245.187 126.729 245.852 126.729 246.648C126.729 246.971 126.652 247.316 126.5 247.686C126.354 248.049 126.122 248.389 125.806 248.705C125.495 249.021 125.091 249.282 124.593 249.487C124.095 249.687 123.497 249.786 122.8 249.786H121.411V248.802ZM121.411 250.138V249.162H122.8C123.614 249.162 124.288 249.259 124.821 249.452C125.354 249.646 125.773 249.903 126.078 250.226C126.389 250.548 126.605 250.902 126.729 251.289C126.857 251.67 126.922 252.051 126.922 252.432C126.922 253.029 126.819 253.56 126.614 254.022C126.415 254.485 126.131 254.878 125.762 255.2C125.398 255.522 124.971 255.766 124.479 255.93C123.986 256.094 123.45 256.176 122.87 256.176C122.313 256.176 121.789 256.097 121.297 255.938C120.811 255.78 120.38 255.552 120.005 255.253C119.63 254.948 119.337 254.576 119.126 254.137C118.915 253.691 118.81 253.185 118.81 252.616H120.436C120.436 253.062 120.532 253.451 120.726 253.785C120.925 254.119 121.206 254.38 121.569 254.567C121.938 254.749 122.372 254.84 122.87 254.84C123.368 254.84 123.796 254.755 124.153 254.585C124.517 254.409 124.795 254.146 124.988 253.794C125.188 253.442 125.287 253 125.287 252.467C125.287 251.934 125.176 251.497 124.953 251.157C124.73 250.812 124.414 250.557 124.004 250.393C123.6 250.223 123.122 250.138 122.571 250.138H121.411Z" fill="black"/>
<path d="M220.407 182.133V195H218.781V184.163L215.503 185.358V183.891L220.152 182.133H220.407Z" fill="black"/>
<path d="M213.623 268.892V270.228H209.334V268.892H213.623ZM220.382 262.133V275H218.756V264.163L215.478 265.358V263.891L220.127 262.133H220.382Z" fill="black"/>
<path d="M213.623 308.892V310.228H209.334V308.892H213.623ZM223.423 313.664V315H215.047V313.831L219.239 309.164C219.755 308.59 220.153 308.104 220.435 307.705C220.722 307.301 220.921 306.94 221.032 306.624C221.149 306.302 221.208 305.974 221.208 305.64C221.208 305.218 221.12 304.837 220.944 304.497C220.774 304.151 220.522 303.876 220.188 303.671C219.854 303.466 219.45 303.363 218.976 303.363C218.407 303.363 217.933 303.475 217.552 303.697C217.177 303.914 216.896 304.219 216.708 304.611C216.521 305.004 216.427 305.455 216.427 305.965H214.801C214.801 305.244 214.959 304.585 215.275 303.987C215.592 303.39 216.061 302.915 216.682 302.563C217.303 302.206 218.067 302.027 218.976 302.027C219.784 302.027 220.476 302.171 221.05 302.458C221.624 302.739 222.063 303.138 222.368 303.653C222.679 304.163 222.834 304.761 222.834 305.446C222.834 305.821 222.77 306.202 222.641 306.589C222.518 306.97 222.345 307.351 222.122 307.731C221.905 308.112 221.65 308.487 221.357 308.856C221.07 309.226 220.763 309.589 220.435 309.946L217.007 313.664H223.423Z" fill="black"/>
<path d="M213.623 348.892V350.228H209.334V348.892H213.623ZM217.411 347.802H218.571C219.14 347.802 219.608 347.708 219.978 347.521C220.353 347.327 220.631 347.066 220.812 346.738C221 346.404 221.094 346.029 221.094 345.613C221.094 345.121 221.012 344.708 220.848 344.374C220.684 344.04 220.438 343.788 220.109 343.618C219.781 343.448 219.365 343.363 218.861 343.363C218.404 343.363 218 343.454 217.648 343.636C217.303 343.812 217.03 344.063 216.831 344.392C216.638 344.72 216.541 345.106 216.541 345.552H214.915C214.915 344.901 215.079 344.31 215.407 343.776C215.735 343.243 216.195 342.818 216.787 342.502C217.385 342.186 218.076 342.027 218.861 342.027C219.635 342.027 220.312 342.165 220.892 342.44C221.472 342.71 221.923 343.114 222.245 343.653C222.567 344.187 222.729 344.852 222.729 345.648C222.729 345.971 222.652 346.316 222.5 346.686C222.354 347.049 222.122 347.389 221.806 347.705C221.495 348.021 221.091 348.282 220.593 348.487C220.095 348.687 219.497 348.786 218.8 348.786H217.411V347.802ZM217.411 349.138V348.162H218.8C219.614 348.162 220.288 348.259 220.821 348.452C221.354 348.646 221.773 348.903 222.078 349.226C222.389 349.548 222.605 349.902 222.729 350.289C222.857 350.67 222.922 351.051 222.922 351.432C222.922 352.029 222.819 352.56 222.614 353.022C222.415 353.485 222.131 353.878 221.762 354.2C221.398 354.522 220.971 354.766 220.479 354.93C219.986 355.094 219.45 355.176 218.87 355.176C218.313 355.176 217.789 355.097 217.297 354.938C216.811 354.78 216.38 354.552 216.005 354.253C215.63 353.948 215.337 353.576 215.126 353.137C214.915 352.691 214.81 352.185 214.81 351.616H216.436C216.436 352.062 216.532 352.451 216.726 352.785C216.925 353.119 217.206 353.38 217.569 353.567C217.938 353.749 218.372 353.84 218.87 353.84C219.368 353.84 219.796 353.755 220.153 353.585C220.517 353.409 220.795 353.146 220.988 352.794C221.188 352.442 221.287 352 221.287 351.467C221.287 350.934 221.176 350.497 220.953 350.157C220.73 349.812 220.414 349.557 220.004 349.393C219.6 349.223 219.122 349.138 218.571 349.138H217.411Z" fill="black"/>
<path d="M223.448 153.664V155H215.072V153.831L219.265 149.164C219.78 148.59 220.179 148.104 220.46 147.705C220.747 147.301 220.946 146.94 221.058 146.624C221.175 146.302 221.233 145.974 221.233 145.64C221.233 145.218 221.146 144.837 220.97 144.497C220.8 144.151 220.548 143.876 220.214 143.671C219.88 143.466 219.476 143.363 219.001 143.363C218.433 143.363 217.958 143.475 217.577 143.697C217.202 143.914 216.921 144.219 216.733 144.611C216.546 145.004 216.452 145.455 216.452 145.965H214.826C214.826 145.244 214.984 144.585 215.301 143.987C215.617 143.39 216.086 142.915 216.707 142.563C217.328 142.206 218.093 142.027 219.001 142.027C219.81 142.027 220.501 142.171 221.075 142.458C221.649 142.739 222.089 143.138 222.394 143.653C222.704 144.163 222.859 144.761 222.859 145.446C222.859 145.821 222.795 146.202 222.666 146.589C222.543 146.97 222.37 147.351 222.147 147.731C221.931 148.112 221.676 148.487 221.383 148.856C221.096 149.226 220.788 149.589 220.46 149.946L217.032 153.664H223.448Z" fill="black"/>
<path d="M217.437 107.802H218.597C219.165 107.802 219.634 107.708 220.003 107.521C220.378 107.327 220.656 107.066 220.838 106.738C221.025 106.404 221.119 106.029 221.119 105.613C221.119 105.121 221.037 104.708 220.873 104.374C220.709 104.04 220.463 103.788 220.135 103.618C219.807 103.448 219.391 103.363 218.887 103.363C218.43 103.363 218.025 103.454 217.674 103.636C217.328 103.812 217.056 104.063 216.856 104.392C216.663 104.72 216.566 105.106 216.566 105.552H214.94C214.94 104.901 215.104 104.31 215.433 103.776C215.761 103.243 216.221 102.818 216.812 102.502C217.41 102.186 218.102 102.027 218.887 102.027C219.66 102.027 220.337 102.165 220.917 102.44C221.497 102.71 221.948 103.114 222.271 103.653C222.593 104.187 222.754 104.852 222.754 105.648C222.754 105.971 222.678 106.316 222.525 106.686C222.379 107.049 222.147 107.389 221.831 107.705C221.521 108.021 221.116 108.282 220.618 108.487C220.12 108.687 219.522 108.786 218.825 108.786H217.437V107.802ZM217.437 109.138V108.162H218.825C219.64 108.162 220.313 108.259 220.847 108.452C221.38 108.646 221.799 108.903 222.104 109.226C222.414 109.548 222.631 109.902 222.754 110.289C222.883 110.67 222.947 111.051 222.947 111.432C222.947 112.029 222.845 112.56 222.64 113.022C222.44 113.485 222.156 113.878 221.787 114.2C221.424 114.522 220.996 114.766 220.504 114.93C220.012 115.094 219.476 115.176 218.896 115.176C218.339 115.176 217.814 115.097 217.322 114.938C216.836 114.78 216.405 114.552 216.03 114.253C215.655 113.948 215.362 113.576 215.151 113.137C214.94 112.691 214.835 112.185 214.835 111.616H216.461C216.461 112.062 216.558 112.451 216.751 112.785C216.95 113.119 217.231 113.38 217.595 113.567C217.964 113.749 218.397 113.84 218.896 113.84C219.394 113.84 219.821 113.755 220.179 113.585C220.542 113.409 220.82 113.146 221.014 112.794C221.213 112.442 221.312 112 221.312 111.467C221.312 110.934 221.201 110.497 220.979 110.157C220.756 109.812 220.439 109.557 220.029 109.393C219.625 109.223 219.147 109.138 218.597 109.138H217.437Z" fill="black"/>
<path d="M223.712 70.6934V72.0293H214.466V71.0713L220.196 62.2031H221.523L220.1 64.7695L216.312 70.6934H223.712ZM221.928 62.2031V75H220.302V62.2031H221.928Z" fill="black"/>
<path d="M325.448 254.664V256H317.072V254.831L321.265 250.164C321.78 249.59 322.179 249.104 322.46 248.705C322.747 248.301 322.946 247.94 323.058 247.624C323.175 247.302 323.233 246.974 323.233 246.64C323.233 246.218 323.146 245.837 322.97 245.497C322.8 245.151 322.548 244.876 322.214 244.671C321.88 244.466 321.476 244.363 321.001 244.363C320.433 244.363 319.958 244.475 319.577 244.697C319.202 244.914 318.921 245.219 318.733 245.611C318.546 246.004 318.452 246.455 318.452 246.965H316.826C316.826 246.244 316.984 245.585 317.301 244.987C317.617 244.39 318.086 243.915 318.707 243.563C319.328 243.206 320.093 243.027 321.001 243.027C321.81 243.027 322.501 243.171 323.075 243.458C323.649 243.739 324.089 244.138 324.394 244.653C324.704 245.163 324.859 245.761 324.859 246.446C324.859 246.821 324.795 247.202 324.666 247.589C324.543 247.97 324.37 248.351 324.147 248.731C323.931 249.112 323.676 249.487 323.383 249.856C323.096 250.226 322.788 250.589 322.46 250.946L319.032 254.664H325.448Z" fill="black"/>
<path d="M406.712 251.693V253.029H397.466V252.071L403.196 243.203H404.523L403.1 245.77L399.312 251.693H406.712ZM404.928 243.203V256H403.302V243.203H404.928Z" fill="black"/>
<path d="M439.12 249.909L437.819 249.575L438.461 243.203H445.026V244.706H439.841L439.454 248.187C439.688 248.052 439.984 247.926 440.342 247.809C440.705 247.691 441.121 247.633 441.59 247.633C442.182 247.633 442.712 247.735 443.181 247.94C443.649 248.14 444.048 248.427 444.376 248.802C444.71 249.177 444.965 249.628 445.141 250.155C445.316 250.683 445.404 251.271 445.404 251.922C445.404 252.537 445.319 253.103 445.149 253.618C444.985 254.134 444.736 254.585 444.402 254.972C444.068 255.353 443.646 255.648 443.137 255.859C442.633 256.07 442.038 256.176 441.353 256.176C440.837 256.176 440.348 256.105 439.885 255.965C439.428 255.818 439.018 255.599 438.654 255.306C438.297 255.007 438.004 254.638 437.775 254.198C437.553 253.753 437.412 253.231 437.354 252.634H438.9C438.971 253.114 439.111 253.519 439.322 253.847C439.533 254.175 439.809 254.424 440.148 254.594C440.494 254.758 440.896 254.84 441.353 254.84C441.739 254.84 442.082 254.772 442.381 254.638C442.68 254.503 442.932 254.31 443.137 254.058C443.342 253.806 443.497 253.501 443.603 253.144C443.714 252.786 443.77 252.385 443.77 251.939C443.77 251.535 443.714 251.16 443.603 250.814C443.491 250.469 443.324 250.167 443.102 249.909C442.885 249.651 442.618 249.452 442.302 249.312C441.985 249.165 441.622 249.092 441.212 249.092C440.667 249.092 440.254 249.165 439.973 249.312C439.697 249.458 439.413 249.657 439.12 249.909Z" fill="black"/>
<path d="M484.304 243.186H484.444V244.565H484.304C483.442 244.565 482.722 244.706 482.142 244.987C481.562 245.263 481.102 245.635 480.762 246.104C480.422 246.566 480.176 247.088 480.023 247.668C479.877 248.248 479.804 248.837 479.804 249.435V251.315C479.804 251.884 479.871 252.388 480.006 252.827C480.141 253.261 480.325 253.627 480.56 253.926C480.794 254.225 481.058 254.45 481.351 254.603C481.649 254.755 481.96 254.831 482.282 254.831C482.657 254.831 482.991 254.761 483.284 254.62C483.577 254.474 483.823 254.271 484.022 254.014C484.228 253.75 484.383 253.439 484.488 253.082C484.594 252.725 484.646 252.332 484.646 251.904C484.646 251.523 484.6 251.157 484.506 250.806C484.412 250.448 484.269 250.132 484.075 249.856C483.882 249.575 483.639 249.355 483.346 249.197C483.059 249.033 482.716 248.951 482.317 248.951C481.866 248.951 481.444 249.062 481.052 249.285C480.665 249.502 480.346 249.789 480.094 250.146C479.848 250.498 479.707 250.882 479.672 251.298L478.811 251.289C478.893 250.633 479.045 250.073 479.268 249.61C479.496 249.142 479.777 248.761 480.111 248.468C480.451 248.169 480.829 247.952 481.245 247.817C481.667 247.677 482.112 247.606 482.581 247.606C483.22 247.606 483.771 247.727 484.233 247.967C484.696 248.207 485.077 248.529 485.376 248.934C485.675 249.332 485.895 249.783 486.035 250.287C486.182 250.785 486.255 251.298 486.255 251.825C486.255 252.429 486.17 252.994 486 253.521C485.83 254.049 485.575 254.512 485.235 254.91C484.901 255.309 484.488 255.619 483.996 255.842C483.504 256.064 482.933 256.176 482.282 256.176C481.591 256.176 480.987 256.035 480.472 255.754C479.956 255.467 479.528 255.086 479.188 254.611C478.849 254.137 478.594 253.609 478.424 253.029C478.254 252.449 478.169 251.86 478.169 251.263V250.498C478.169 249.596 478.26 248.711 478.441 247.844C478.623 246.977 478.937 246.191 479.382 245.488C479.833 244.785 480.457 244.226 481.254 243.81C482.051 243.394 483.067 243.186 484.304 243.186Z" fill="black"/>
<path d="M360.437 248.802H361.597C362.165 248.802 362.634 248.708 363.003 248.521C363.378 248.327 363.656 248.066 363.838 247.738C364.025 247.404 364.119 247.029 364.119 246.613C364.119 246.121 364.037 245.708 363.873 245.374C363.709 245.04 363.463 244.788 363.135 244.618C362.807 244.448 362.391 244.363 361.887 244.363C361.43 244.363 361.025 244.454 360.674 244.636C360.328 244.812 360.056 245.063 359.856 245.392C359.663 245.72 359.566 246.106 359.566 246.552H357.94C357.94 245.901 358.104 245.31 358.433 244.776C358.761 244.243 359.221 243.818 359.812 243.502C360.41 243.186 361.102 243.027 361.887 243.027C362.66 243.027 363.337 243.165 363.917 243.44C364.497 243.71 364.948 244.114 365.271 244.653C365.593 245.187 365.754 245.852 365.754 246.648C365.754 246.971 365.678 247.316 365.525 247.686C365.379 248.049 365.147 248.389 364.831 248.705C364.521 249.021 364.116 249.282 363.618 249.487C363.12 249.687 362.522 249.786 361.825 249.786H360.437V248.802ZM360.437 250.138V249.162H361.825C362.64 249.162 363.313 249.259 363.847 249.452C364.38 249.646 364.799 249.903 365.104 250.226C365.414 250.548 365.631 250.902 365.754 251.289C365.883 251.67 365.947 252.051 365.947 252.432C365.947 253.029 365.845 253.56 365.64 254.022C365.44 254.485 365.156 254.878 364.787 255.2C364.424 255.522 363.996 255.766 363.504 255.93C363.012 256.094 362.476 256.176 361.896 256.176C361.339 256.176 360.814 256.097 360.322 255.938C359.836 255.78 359.405 255.552 359.03 255.253C358.655 254.948 358.362 254.576 358.151 254.137C357.94 253.691 357.835 253.185 357.835 252.616H359.461C359.461 253.062 359.558 253.451 359.751 253.785C359.95 254.119 360.231 254.38 360.595 254.567C360.964 254.749 361.397 254.84 361.896 254.84C362.394 254.84 362.821 254.755 363.179 254.585C363.542 254.409 363.82 254.146 364.014 253.794C364.213 253.442 364.312 253 364.312 252.467C364.312 251.934 364.201 251.497 363.979 251.157C363.756 250.812 363.439 250.557 363.029 250.393C362.625 250.223 362.147 250.138 361.597 250.138H360.437Z" fill="black"/>
<path d="M5.94824 256H3.27637L3.29395 254.62H5.94824C6.8623 254.62 7.62402 254.43 8.2334 254.049C8.84277 253.662 9.2998 253.123 9.60449 252.432C9.91504 251.734 10.0703 250.92 10.0703 249.988V249.206C10.0703 248.474 9.98242 247.823 9.80664 247.255C9.63086 246.681 9.37305 246.197 9.0332 245.805C8.69336 245.406 8.27734 245.104 7.78516 244.899C7.29883 244.694 6.73926 244.592 6.10645 244.592H3.22363V243.203H6.10645C6.94434 243.203 7.70898 243.344 8.40039 243.625C9.0918 243.9 9.68652 244.302 10.1846 244.829C10.6885 245.351 11.0752 245.983 11.3447 246.728C11.6143 247.466 11.749 248.298 11.749 249.224V249.988C11.749 250.914 11.6143 251.749 11.3447 252.493C11.0752 253.231 10.6855 253.861 10.1758 254.383C9.67188 254.904 9.0625 255.306 8.34766 255.587C7.63867 255.862 6.83887 256 5.94824 256ZM4.18164 243.203V256H2.48535V243.203H4.18164ZM21.4785 247.431V248.846H14.1484V247.431H21.4785ZM21.4785 251.078V252.493H14.1484V251.078H21.4785ZM34.0293 249.197V250.006C34.0293 250.967 33.9092 251.828 33.6689 252.59C33.4287 253.352 33.083 253.999 32.6318 254.532C32.1807 255.065 31.6387 255.473 31.0059 255.754C30.3789 256.035 29.6758 256.176 28.8965 256.176C28.1406 256.176 27.4463 256.035 26.8135 255.754C26.1865 255.473 25.6416 255.065 25.1787 254.532C24.7217 253.999 24.3672 253.352 24.1152 252.59C23.8633 251.828 23.7373 250.967 23.7373 250.006V249.197C23.7373 248.236 23.8604 247.378 24.1064 246.622C24.3584 245.86 24.7129 245.213 25.1699 244.68C25.627 244.141 26.1689 243.73 26.7959 243.449C27.4287 243.168 28.123 243.027 28.8789 243.027C29.6582 243.027 30.3613 243.168 30.9883 243.449C31.6211 243.73 32.1631 244.141 32.6143 244.68C33.0713 245.213 33.4199 245.86 33.6602 246.622C33.9062 247.378 34.0293 248.236 34.0293 249.197ZM32.3506 250.006V249.18C32.3506 248.418 32.2715 247.744 32.1133 247.158C31.9609 246.572 31.7354 246.08 31.4365 245.682C31.1377 245.283 30.7715 244.981 30.3379 244.776C29.9102 244.571 29.4238 244.469 28.8789 244.469C28.3516 244.469 27.874 244.571 27.4463 244.776C27.0244 244.981 26.6611 245.283 26.3564 245.682C26.0576 246.08 25.8262 246.572 25.6621 247.158C25.498 247.744 25.416 248.418 25.416 249.18V250.006C25.416 250.773 25.498 251.453 25.6621 252.045C25.8262 252.631 26.0605 253.126 26.3652 253.53C26.6758 253.929 27.042 254.23 27.4639 254.436C27.8916 254.641 28.3691 254.743 28.8965 254.743C29.4473 254.743 29.9365 254.641 30.3643 254.436C30.792 254.23 31.1523 253.929 31.4453 253.53C31.7441 253.126 31.9697 252.631 32.1221 252.045C32.2744 251.453 32.3506 250.773 32.3506 250.006Z" fill="#FF0000"/>
<path d="M25.1709 283.132V290H23.9902V283.132H25.1709ZM23.9014 281.31C23.9014 281.12 23.9585 280.959 24.0728 280.828C24.1912 280.696 24.3647 280.631 24.5933 280.631C24.8175 280.631 24.9889 280.696 25.1074 280.828C25.2301 280.959 25.2915 281.12 25.2915 281.31C25.2915 281.492 25.2301 281.649 25.1074 281.78C24.9889 281.907 24.8175 281.97 24.5933 281.97C24.3647 281.97 24.1912 281.907 24.0728 281.78C23.9585 281.649 23.9014 281.492 23.9014 281.31ZM35.6445 283.811V284.833H30.3506V283.811H35.6445ZM35.6445 286.445V287.467H30.3506V286.445H35.6445Z" fill="#FF0000"/>
<line x1="41" y1="285.75" x2="93" y2="285.75" stroke="#FF0000"/>
<path d="M59.0972 280.413V275.132H60.2778V282H59.1543L59.0972 280.413ZM59.3193 278.966L59.8081 278.953C59.8081 279.41 59.7594 279.833 59.6621 280.223C59.569 280.608 59.4167 280.942 59.2051 281.226C58.9935 281.509 58.7163 281.731 58.3735 281.892C58.0308 282.049 57.6139 282.127 57.123 282.127C56.7887 282.127 56.4819 282.078 56.2026 281.981C55.9276 281.884 55.6906 281.733 55.4917 281.53C55.2928 281.327 55.1383 281.063 55.0283 280.737C54.9225 280.411 54.8696 280.02 54.8696 279.562V275.132H56.0439V279.575C56.0439 279.884 56.0778 280.14 56.1455 280.343C56.2174 280.542 56.3127 280.701 56.4312 280.819C56.5539 280.934 56.6893 281.014 56.8374 281.061C56.9897 281.107 57.1463 281.13 57.3071 281.13C57.8065 281.13 58.2021 281.035 58.4941 280.845C58.7861 280.65 58.9956 280.39 59.1226 280.064C59.2537 279.734 59.3193 279.368 59.3193 278.966ZM71.2275 277.042V278.147H64.8926V277.042H71.2275ZM68.6504 274.345V281.073H67.4761V274.345H68.6504ZM81.8218 281.035V282H75.7725V281.156L78.8003 277.785C79.1727 277.37 79.4604 277.019 79.6636 276.731C79.8709 276.439 80.0148 276.179 80.0952 275.951C80.1799 275.718 80.2222 275.481 80.2222 275.24C80.2222 274.935 80.1587 274.66 80.0317 274.415C79.909 274.165 79.7271 273.966 79.4858 273.818C79.2446 273.67 78.9526 273.596 78.6099 273.596C78.1994 273.596 77.8566 273.676 77.5815 273.837C77.3107 273.993 77.1076 274.214 76.9722 274.497C76.8368 274.781 76.769 275.106 76.769 275.475H75.5947C75.5947 274.954 75.709 274.478 75.9375 274.046C76.166 273.615 76.5046 273.272 76.9531 273.018C77.4017 272.76 77.9539 272.631 78.6099 272.631C79.1938 272.631 79.6932 272.735 80.1079 272.942C80.5226 273.145 80.84 273.433 81.0601 273.805C81.2843 274.173 81.3965 274.605 81.3965 275.1C81.3965 275.371 81.3499 275.646 81.2568 275.925C81.168 276.2 81.0431 276.475 80.8823 276.75C80.7257 277.026 80.5417 277.296 80.3301 277.563C80.1227 277.83 79.9006 278.092 79.6636 278.35L77.188 281.035H81.8218Z" fill="#FF0000"/>
<path d="M69.0142 295.89V296.854H62.3364V296.163L66.4751 289.758H67.4336L66.4053 291.611L63.6694 295.89H69.0142ZM67.7256 289.758V299H66.5513V289.758H67.7256Z" fill="#FF0000"/>
<path d="M255.006 11.4902V21H253.371V11.4902H255.006ZM253.248 8.96777C253.248 8.7041 253.327 8.48145 253.485 8.2998C253.649 8.11816 253.89 8.02734 254.206 8.02734C254.517 8.02734 254.754 8.11816 254.918 8.2998C255.088 8.48145 255.173 8.7041 255.173 8.96777C255.173 9.21973 255.088 9.43652 254.918 9.61816C254.754 9.79395 254.517 9.88184 254.206 9.88184C253.89 9.88184 253.649 9.79395 253.485 9.61816C253.327 9.43652 253.248 9.21973 253.248 8.96777ZM265.438 6.375V7.71094H263.76V22.4062H265.438V23.7422H262.134V6.375H265.438ZM271.846 9.33691L267.609 21H265.878L270.756 8.20312H271.872L271.846 9.33691ZM275.396 21L271.151 9.33691L271.125 8.20312H272.241L277.137 21H275.396ZM275.177 16.2627V17.6514H267.987V16.2627H275.177ZM277.453 7.71094V6.375H280.775V23.7422H277.453V22.4062H279.141V7.71094H277.453Z" fill="black"/>
<path d="M561.058 251.803V244.49H562.692V254H561.137L561.058 251.803ZM561.365 249.799L562.042 249.781C562.042 250.414 561.975 251 561.84 251.539C561.711 252.072 561.5 252.535 561.207 252.928C560.914 253.32 560.53 253.628 560.056 253.851C559.581 254.067 559.004 254.176 558.324 254.176C557.861 254.176 557.437 254.108 557.05 253.974C556.669 253.839 556.341 253.631 556.065 253.35C555.79 253.068 555.576 252.702 555.424 252.251C555.277 251.8 555.204 251.258 555.204 250.625V244.49H556.83V250.643C556.83 251.07 556.877 251.425 556.971 251.706C557.07 251.981 557.202 252.201 557.366 252.365C557.536 252.523 557.724 252.635 557.929 252.699C558.14 252.764 558.356 252.796 558.579 252.796C559.271 252.796 559.818 252.664 560.223 252.4C560.627 252.131 560.917 251.771 561.093 251.319C561.274 250.862 561.365 250.355 561.365 249.799ZM572.993 239.375V240.711H571.314V255.406H572.993V256.742H569.688V239.375H572.993ZM578.794 252.058L582.564 241.203H584.401L579.664 254H578.354L578.794 252.058ZM575.27 241.203L579.005 252.058L579.471 254H578.161L573.433 241.203H575.27ZM584.885 240.711V239.375H588.207V256.742H584.885V255.406H586.572V240.711H584.885Z" fill="black"/>
<path d="M568.948 144H566.276L566.294 142.62H568.948C569.862 142.62 570.624 142.43 571.233 142.049C571.843 141.662 572.3 141.123 572.604 140.432C572.915 139.734 573.07 138.92 573.07 137.988V137.206C573.07 136.474 572.982 135.823 572.807 135.255C572.631 134.681 572.373 134.197 572.033 133.805C571.693 133.406 571.277 133.104 570.785 132.899C570.299 132.694 569.739 132.592 569.106 132.592H566.224V131.203H569.106C569.944 131.203 570.709 131.344 571.4 131.625C572.092 131.9 572.687 132.302 573.185 132.829C573.688 133.351 574.075 133.983 574.345 134.728C574.614 135.466 574.749 136.298 574.749 137.224V137.988C574.749 138.914 574.614 139.749 574.345 140.493C574.075 141.231 573.686 141.861 573.176 142.383C572.672 142.904 572.062 143.306 571.348 143.587C570.639 143.862 569.839 144 568.948 144ZM567.182 131.203V144H565.485V131.203H567.182ZM588.943 135.431V136.846H581.613V135.431H588.943ZM588.943 139.078V140.493H581.613V139.078H588.943ZM603.832 139.931H605.52C605.432 140.739 605.2 141.463 604.825 142.102C604.45 142.74 603.92 143.247 603.234 143.622C602.549 143.991 601.693 144.176 600.668 144.176C599.918 144.176 599.235 144.035 598.62 143.754C598.011 143.473 597.486 143.074 597.047 142.559C596.607 142.037 596.268 141.413 596.027 140.687C595.793 139.954 595.676 139.14 595.676 138.243V136.969C595.676 136.072 595.793 135.261 596.027 134.534C596.268 133.802 596.61 133.175 597.056 132.653C597.507 132.132 598.049 131.73 598.682 131.449C599.314 131.168 600.026 131.027 600.817 131.027C601.784 131.027 602.602 131.209 603.27 131.572C603.938 131.936 604.456 132.439 604.825 133.084C605.2 133.723 605.432 134.464 605.52 135.308H603.832C603.75 134.71 603.598 134.197 603.375 133.77C603.152 133.336 602.836 133.002 602.426 132.768C602.016 132.533 601.479 132.416 600.817 132.416C600.249 132.416 599.748 132.524 599.314 132.741C598.887 132.958 598.526 133.266 598.233 133.664C597.946 134.062 597.729 134.54 597.583 135.097C597.437 135.653 597.363 136.271 597.363 136.951V138.243C597.363 138.87 597.428 139.459 597.557 140.01C597.691 140.561 597.894 141.044 598.163 141.46C598.433 141.876 598.775 142.204 599.191 142.444C599.607 142.679 600.1 142.796 600.668 142.796C601.389 142.796 601.963 142.682 602.391 142.453C602.818 142.225 603.141 141.896 603.357 141.469C603.58 141.041 603.738 140.528 603.832 139.931Z" fill="#11D700"/>
<path d="M534 151L535.494 156.577L539.577 152.494L534 151ZM536.828 154.536L553.646 171.354L554.354 170.646L537.536 153.828L536.828 154.536Z" fill="#11D700"/>
<path d="M561.171 172.132V179H559.99V172.132H561.171ZM559.901 170.31C559.901 170.12 559.958 169.959 560.073 169.828C560.191 169.696 560.365 169.631 560.593 169.631C560.818 169.631 560.989 169.696 561.107 169.828C561.23 169.959 561.292 170.12 561.292 170.31C561.292 170.492 561.23 170.649 561.107 170.78C560.989 170.907 560.818 170.97 560.593 170.97C560.365 170.97 560.191 170.907 560.073 170.78C559.958 170.649 559.901 170.492 559.901 170.31ZM571.645 172.811V173.833H566.351V172.811H571.645ZM571.645 175.445V176.467H566.351V175.445H571.645ZM582.569 178.035V179H576.52V178.156L579.547 174.785C579.92 174.37 580.208 174.019 580.411 173.731C580.618 173.439 580.762 173.179 580.842 172.951C580.927 172.718 580.969 172.481 580.969 172.24C580.969 171.935 580.906 171.66 580.779 171.415C580.656 171.165 580.474 170.966 580.233 170.818C579.992 170.67 579.7 170.596 579.357 170.596C578.946 170.596 578.604 170.676 578.329 170.837C578.058 170.993 577.855 171.214 577.719 171.497C577.584 171.781 577.516 172.106 577.516 172.475H576.342C576.342 171.954 576.456 171.478 576.685 171.046C576.913 170.615 577.252 170.272 577.7 170.018C578.149 169.76 578.701 169.631 579.357 169.631C579.941 169.631 580.44 169.735 580.855 169.942C581.27 170.145 581.587 170.433 581.807 170.805C582.031 171.173 582.144 171.605 582.144 172.1C582.144 172.371 582.097 172.646 582.004 172.925C581.915 173.2 581.79 173.475 581.629 173.75C581.473 174.026 581.289 174.296 581.077 174.563C580.87 174.83 580.648 175.092 580.411 175.35L577.935 178.035H582.569Z" fill="#11D700"/>
</svg>

