<svg width="239" height="238" viewBox="0 0 239 238" fill="none" xmlns="http://www.w3.org/2000/svg">
<path d="M228.222 131.203H232.871C233.844 131.203 234.679 131.35 235.376 131.643C236.073 131.936 236.609 132.369 236.984 132.943C237.359 133.518 237.547 134.224 237.547 135.062C237.547 135.724 237.43 136.298 237.195 136.784C236.961 137.271 236.63 137.678 236.202 138.006C235.78 138.334 235.282 138.592 234.708 138.779L233.952 139.166H229.848L229.83 137.259H232.897C233.396 137.259 233.809 137.171 234.137 136.995C234.465 136.819 234.711 136.576 234.875 136.266C235.045 135.955 235.13 135.601 235.13 135.202C235.13 134.774 235.048 134.405 234.884 134.095C234.72 133.778 234.471 133.535 234.137 133.365C233.803 133.195 233.381 133.11 232.871 133.11H230.639V144H228.222V131.203ZM235.446 144L232.484 138.27L235.042 138.261L238.039 143.877V144H235.446Z" fill="black"/>
<path d="M96.0488 25L86.0488 19.2265V30.7735L96.0488 25ZM55 26H87.0488V24H55V26Z" fill="black"/>
<path d="M71.5312 4.49023V14H69.2021V4.49023H71.5312ZM69.0439 2.00293C69.0439 1.65723 69.1611 1.37012 69.3955 1.1416C69.6357 0.913086 69.958 0.798828 70.3623 0.798828C70.7666 0.798828 71.0859 0.913086 71.3203 1.1416C71.5605 1.37012 71.6807 1.65723 71.6807 2.00293C71.6807 2.34277 71.5605 2.62695 71.3203 2.85547C71.0859 3.08398 70.7666 3.19824 70.3623 3.19824C69.958 3.19824 69.6357 3.08398 69.3955 2.85547C69.1611 2.62695 69.0439 2.34277 69.0439 2.00293Z" fill="black"/>
<circle cx="27" cy="44" r="5" stroke="black" stroke-width="2"/>
<circle cx="27" cy="232" r="5" stroke="black" stroke-width="2"/>
<line x1="31" y1="44" x2="186.01" y2="44" stroke="black" stroke-width="2"/>
<line x1="185" y1="232" x2="185" y2="155" stroke="black" stroke-width="2"/>
<line x1="185" y1="120" x2="185" y2="43" stroke="black" stroke-width="2"/>
<path d="M27 188L32.7735 178H21.2265L27 188ZM28 179L28 88H26L26 179H28Z" fill="black"/>
<line x1="31" y1="231" x2="185.013" y2="231" stroke="black" stroke-width="2"/>
<path d="M5.75684 144.328L8.77148 134.203H11.707L7.25098 147H5.31738L5.75684 144.328ZM2.97949 134.203L5.98535 144.328L6.44238 147H4.49121L0.0615234 134.203H2.97949Z" fill="black"/>
<rect x="178" y="121" width="13" height="33" stroke="black" stroke-width="2"/>
<path d="M213.589 131.172V133H204.923V131.436L209.08 126.944C209.514 126.452 209.856 126.024 210.108 125.661C210.36 125.298 210.539 124.97 210.645 124.677C210.756 124.378 210.812 124.094 210.812 123.824C210.812 123.432 210.741 123.089 210.601 122.796C210.46 122.497 210.255 122.266 209.985 122.102C209.722 121.938 209.396 121.855 209.01 121.855C208.582 121.855 208.216 121.955 207.911 122.154C207.612 122.348 207.384 122.617 207.226 122.963C207.073 123.309 206.997 123.704 206.997 124.149H204.668C204.668 123.394 204.844 122.705 205.195 122.084C205.547 121.457 206.051 120.956 206.707 120.581C207.363 120.206 208.143 120.019 209.045 120.019C209.924 120.019 210.668 120.165 211.277 120.458C211.887 120.745 212.35 121.155 212.666 121.688C212.982 122.222 213.141 122.857 213.141 123.596C213.141 124.006 213.073 124.41 212.938 124.809C212.804 125.207 212.613 125.603 212.367 125.995C212.127 126.382 211.84 126.774 211.506 127.173C211.172 127.571 210.8 127.979 210.39 128.395L207.894 131.172H213.589Z" fill="black"/>
<path d="M207.463 147.573H208.772C209.235 147.573 209.616 147.494 209.915 147.336C210.22 147.172 210.445 146.949 210.592 146.668C210.744 146.381 210.82 146.05 210.82 145.675C210.82 145.306 210.753 144.986 210.618 144.717C210.483 144.441 210.278 144.23 210.003 144.084C209.733 143.932 209.388 143.855 208.966 143.855C208.626 143.855 208.312 143.923 208.025 144.058C207.744 144.192 207.519 144.386 207.349 144.638C207.185 144.884 207.103 145.18 207.103 145.525H204.773C204.773 144.834 204.955 144.228 205.318 143.706C205.688 143.179 206.186 142.766 206.812 142.467C207.439 142.168 208.14 142.019 208.913 142.019C209.757 142.019 210.495 142.159 211.128 142.44C211.767 142.716 212.262 143.123 212.613 143.662C212.971 144.201 213.149 144.869 213.149 145.666C213.149 146.047 213.059 146.428 212.877 146.809C212.701 147.184 212.44 147.523 212.095 147.828C211.755 148.127 211.336 148.37 210.838 148.558C210.346 148.739 209.78 148.83 209.142 148.83H207.463V147.573ZM207.463 149.366V148.127H209.142C209.862 148.127 210.486 148.212 211.014 148.382C211.547 148.546 211.986 148.78 212.332 149.085C212.678 149.384 212.933 149.732 213.097 150.131C213.267 150.529 213.352 150.957 213.352 151.414C213.352 152.012 213.24 152.545 213.018 153.014C212.795 153.477 212.481 153.869 212.077 154.191C211.679 154.514 211.21 154.76 210.671 154.93C210.132 155.094 209.549 155.176 208.922 155.176C208.377 155.176 207.847 155.103 207.331 154.956C206.821 154.804 206.361 154.578 205.951 154.279C205.541 153.975 205.216 153.594 204.976 153.137C204.735 152.674 204.615 152.138 204.615 151.528H206.944C206.944 151.88 207.029 152.193 207.199 152.469C207.375 152.744 207.615 152.961 207.92 153.119C208.23 153.271 208.579 153.348 208.966 153.348C209.394 153.348 209.76 153.271 210.064 153.119C210.375 152.961 210.612 152.738 210.776 152.451C210.94 152.158 211.022 151.81 211.022 151.405C211.022 150.925 210.932 150.535 210.75 150.236C210.568 149.938 210.308 149.718 209.968 149.577C209.634 149.437 209.235 149.366 208.772 149.366H207.463Z" fill="black"/>
<line x1="197" y1="138" x2="222" y2="138" stroke="black" stroke-width="2"/>
</svg>
