<svg width="314" height="238" viewBox="0 0 314 238" fill="none">
<path d="M191.5 45C191.5 48.0376 189.038 50.5 186 50.5C182.962 50.5 180.5 48.0376 180.5 45C180.5 41.9624 182.962 39.5 186 39.5C189.038 39.5 191.5 41.9624 191.5 45Z" fill="black" stroke="black"/>
<path d="M191.5 231C191.5 234.038 189.038 236.5 186 236.5C182.962 236.5 180.5 234.038 180.5 231C180.5 227.962 182.962 225.5 186 225.5C189.038 225.5 191.5 227.962 191.5 231Z" fill="black" stroke="black"/>
<path d="M96.0488 25L86.0488 19.2265V30.7735L96.0488 25ZM55 26H87.0488V24H55V26Z" fill="black"/>
<path d="M71.5312 4.49023V14H69.2021V4.49023H71.5312ZM69.0439 2.00293C69.0439 1.65723 69.1611 1.37012 69.3955 1.1416C69.6357 0.913086 69.958 0.798828 70.3623 0.798828C70.7666 0.798828 71.0859 0.913086 71.3203 1.1416C71.5605 1.37012 71.6807 1.65723 71.6807 2.00293C71.6807 2.34277 71.5605 2.62695 71.3203 2.85547C71.0859 3.08398 70.7666 3.19824 70.3623 3.19824C69.958 3.19824 69.6357 3.08398 69.3955 2.85547C69.1611 2.62695 69.0439 2.34277 69.0439 2.00293Z" fill="black"/>
<circle cx="27" cy="44" r="5" stroke="black" stroke-width="2"/>
<circle cx="27" cy="232" r="5" stroke="black" stroke-width="2"/>
<line x1="31" y1="44" x2="186.01" y2="44" stroke="black" stroke-width="2"/>
<line x1="187" y1="44" x2="287" y2="44" stroke="black" stroke-width="2"/>
<line x1="286" y1="232" x2="286" y2="155" stroke="black" stroke-width="2"/>
<line x1="286" y1="120" x2="286" y2="43" stroke="black" stroke-width="2"/>
<line x1="187" y1="231" x2="287" y2="231" stroke="black" stroke-width="2"/>
<path d="M27 188L32.7735 178H21.2265L27 188ZM28 179L28 88H26L26 179H28Z" fill="black"/>
<line x1="31" y1="231" x2="185.013" y2="231" stroke="black" stroke-width="2"/>
<path d="M5.75684 144.328L8.77148 134.203H11.707L7.25098 147H5.31738L5.75684 144.328ZM2.97949 134.203L5.98535 144.328L6.44238 147H4.49121L0.0615234 134.203H2.97949Z" fill="black"/>
<path d="M206.222 94.2031H210.871C211.844 94.2031 212.679 94.3496 213.376 94.6426C214.073 94.9355 214.609 95.3691 214.984 95.9434C215.359 96.5176 215.547 97.2236 215.547 98.0615C215.547 98.7236 215.43 99.2979 215.195 99.7842C214.961 100.271 214.63 100.678 214.202 101.006C213.78 101.334 213.282 101.592 212.708 101.779L211.952 102.166H207.848L207.83 100.259H210.897C211.396 100.259 211.809 100.171 212.137 99.9951C212.465 99.8193 212.711 99.5762 212.875 99.2656C213.045 98.9551 213.13 98.6006 213.13 98.2021C213.13 97.7744 213.048 97.4053 212.884 97.0947C212.72 96.7783 212.471 96.5352 212.137 96.3652C211.803 96.1953 211.381 96.1104 210.871 96.1104H208.639V107H206.222V94.2031ZM213.446 107L210.484 101.27L213.042 101.261L216.039 106.877V107H213.446Z" fill="black"/>
<path d="M207.222 174.203H211.871C212.844 174.203 213.679 174.35 214.376 174.643C215.073 174.936 215.609 175.369 215.984 175.943C216.359 176.518 216.547 177.224 216.547 178.062C216.547 178.724 216.43 179.298 216.195 179.784C215.961 180.271 215.63 180.678 215.202 181.006C214.78 181.334 214.282 181.592 213.708 181.779L212.952 182.166H208.848L208.83 180.259H211.897C212.396 180.259 212.809 180.171 213.137 179.995C213.465 179.819 213.711 179.576 213.875 179.266C214.045 178.955 214.13 178.601 214.13 178.202C214.13 177.774 214.048 177.405 213.884 177.095C213.72 176.778 213.471 176.535 213.137 176.365C212.803 176.195 212.381 176.11 211.871 176.11H209.639V187H207.222V174.203ZM214.446 187L211.484 181.27L214.042 181.261L217.039 186.877V187H214.446Z" fill="black"/>
<path d="M303.222 132.203H307.871C308.844 132.203 309.679 132.35 310.376 132.643C311.073 132.936 311.609 133.369 311.984 133.943C312.359 134.518 312.547 135.224 312.547 136.062C312.547 136.724 312.43 137.298 312.195 137.784C311.961 138.271 311.63 138.678 311.202 139.006C310.78 139.334 310.282 139.592 309.708 139.779L308.952 140.166H304.848L304.83 138.259H307.897C308.396 138.259 308.809 138.171 309.137 137.995C309.465 137.819 309.711 137.576 309.875 137.266C310.045 136.955 310.13 136.601 310.13 136.202C310.13 135.774 310.048 135.405 309.884 135.095C309.72 134.778 309.471 134.535 309.137 134.365C308.803 134.195 308.381 134.11 307.871 134.11H305.639V145H303.222V132.203ZM310.446 145L307.484 139.27L310.042 139.261L313.039 144.877V145H310.446Z" fill="black"/>
<line x1="186" y1="80" x2="186" y2="43" stroke="black" stroke-width="2"/>
<line x1="186" y1="232" x2="186" y2="195" stroke="black" stroke-width="2"/>
<line x1="186" y1="160" x2="186" y2="115" stroke="black" stroke-width="2"/>
<rect x="178.5" y="81" width="13" height="33" stroke="black" stroke-width="2"/>
<rect x="279" y="121" width="13" height="33" stroke="black" stroke-width="2"/>
<rect x="178.5" y="161" width="13" height="33" stroke="black" stroke-width="2"/>
</svg>
