<svg width="337" height="232" viewBox="0 0 337 232" fill="none" xmlns="http://www.w3.org/2000/svg">
<path d="M191.5 38C191.5 41.0376 189.038 43.5 186 43.5C182.962 43.5 180.5 41.0376 180.5 38C180.5 34.9624 182.962 32.5 186 32.5C189.038 32.5 191.5 34.9624 191.5 38Z" fill="black" stroke="black"/>
<path d="M191.5 133C191.5 136.038 189.038 138.5 186 138.5C182.962 138.5 180.5 136.038 180.5 133C180.5 129.962 182.962 127.5 186 127.5C189.038 127.5 191.5 129.962 191.5 133Z" fill="black" stroke="black"/>
<circle cx="261" cy="132" r="14" stroke="black" stroke-width="2"/>
<path d="M93.0488 25L83.0488 19.2265V30.7735L93.0488 25ZM52 26H84.0488V24H52V26Z" fill="black"/>
<path d="M68.5312 4.49023V14H66.2021V4.49023H68.5312ZM66.0439 2.00293C66.0439 1.65723 66.1611 1.37012 66.3955 1.1416C66.6357 0.913086 66.958 0.798828 67.3623 0.798828C67.7666 0.798828 68.0859 0.913086 68.3203 1.1416C68.5605 1.37012 68.6806 1.65723 68.6806 2.00293C68.6806 2.34277 68.5605 2.62695 68.3203 2.85547C68.0859 3.08398 67.7666 3.19824 67.3623 3.19824C66.958 3.19824 66.6357 3.08398 66.3955 2.85547C66.1611 2.62695 66.0439 2.34277 66.0439 2.00293Z" fill="black"/>
<path d="M166 88.0488L171.774 78.0488H160.226L166 88.0488ZM165 47V79.0488H167V47H165Z" fill="black"/>
<path d="M144.507 58.4902V68H142.178V58.4902H144.507ZM142.02 56.0029C142.02 55.6572 142.137 55.3701 142.371 55.1416C142.611 54.9131 142.934 54.7988 143.338 54.7988C143.742 54.7988 144.062 54.9131 144.296 55.1416C144.536 55.3701 144.656 55.6572 144.656 56.0029C144.656 56.3428 144.536 56.627 144.296 56.8555C144.062 57.084 143.742 57.1982 143.338 57.1982C142.934 57.1982 142.611 57.084 142.371 56.8555C142.137 56.627 142.02 56.3428 142.02 56.0029Z" fill="black"/>
<path d="M290.031 111L280.002 105.276L280.059 116.823L290.031 111ZM237.005 112.262L281.036 112.044L281.026 110.045L236.995 110.262L237.005 112.262Z" fill="black"/>
<path d="M244.722 99.4951L247.912 89.2031H250.593L246.075 102H244.291L244.722 99.4951ZM241.777 89.2031L244.95 99.4951L245.407 102H243.605L239.105 89.2031H241.777Z" fill="black"/>
<path d="M281.722 214.495L284.912 204.203H287.593L283.075 217H281.291L281.722 214.495ZM278.777 204.203L281.95 214.495L282.407 217H280.605L276.105 204.203H278.777Z" fill="black"/>
<path d="M255.308 102.169V103.844C255.308 104.609 255.23 105.263 255.075 105.806C254.92 106.348 254.697 106.792 254.405 107.139C254.114 107.48 253.765 107.733 253.359 107.897C252.954 108.057 252.503 108.137 252.006 108.137C251.609 108.137 251.24 108.087 250.898 107.986C250.557 107.882 250.249 107.722 249.976 107.508C249.707 107.289 249.474 107.011 249.278 106.674C249.087 106.337 248.939 105.933 248.834 105.464C248.734 104.994 248.684 104.454 248.684 103.844V102.169C248.684 101.403 248.761 100.752 248.916 100.214C249.076 99.6761 249.301 99.2363 249.593 98.8945C249.884 98.5527 250.233 98.3044 250.639 98.1494C251.044 97.9899 251.495 97.9102 251.992 97.9102C252.393 97.9102 252.762 97.9603 253.1 98.0605C253.441 98.1608 253.747 98.318 254.016 98.5322C254.289 98.7419 254.521 99.0153 254.713 99.3525C254.904 99.6852 255.05 100.086 255.15 100.556C255.255 101.021 255.308 101.558 255.308 102.169ZM253.503 104.09V101.916C253.503 101.533 253.48 101.201 253.435 100.918C253.394 100.631 253.332 100.387 253.25 100.187C253.168 99.986 253.065 99.8242 252.942 99.7012C252.819 99.5736 252.678 99.4801 252.519 99.4209C252.359 99.3617 252.184 99.332 251.992 99.332C251.755 99.332 251.543 99.3799 251.356 99.4756C251.17 99.5667 251.012 99.7126 250.885 99.9131C250.757 100.114 250.659 100.38 250.591 100.713C250.527 101.041 250.495 101.442 250.495 101.916V104.09C250.495 104.473 250.516 104.808 250.557 105.095C250.602 105.382 250.666 105.628 250.748 105.833C250.835 106.038 250.937 106.207 251.056 106.339C251.179 106.466 251.32 106.562 251.479 106.626C251.639 106.685 251.814 106.715 252.006 106.715C252.247 106.715 252.459 106.667 252.642 106.571C252.828 106.476 252.986 106.325 253.113 106.12C253.241 105.91 253.337 105.639 253.4 105.307C253.469 104.969 253.503 104.564 253.503 104.09Z" fill="black"/>
<path d="M289.765 218.563H287.222L287.208 217.237H289.389C289.762 217.237 290.075 217.185 290.325 217.08C290.576 216.975 290.765 216.823 290.893 216.622C291.025 216.422 291.091 216.178 291.091 215.891C291.091 215.572 291.029 215.312 290.906 215.111C290.788 214.911 290.601 214.765 290.346 214.674C290.09 214.578 289.767 214.53 289.375 214.53H287.83V223H285.95V213.047H289.375C289.94 213.047 290.444 213.102 290.886 213.211C291.332 213.316 291.711 213.48 292.021 213.703C292.33 213.926 292.565 214.207 292.725 214.544C292.889 214.881 292.971 215.282 292.971 215.747C292.971 216.157 292.875 216.535 292.684 216.882C292.497 217.224 292.207 217.502 291.815 217.716C291.428 217.93 290.936 218.053 290.339 218.085L289.765 218.563ZM289.683 223H286.668L287.454 221.523H289.683C290.056 221.523 290.364 221.462 290.605 221.339C290.852 221.216 291.034 221.047 291.152 220.833C291.275 220.614 291.337 220.364 291.337 220.081C291.337 219.771 291.282 219.502 291.173 219.274C291.068 219.047 290.899 218.871 290.667 218.748C290.439 218.625 290.138 218.563 289.765 218.563H287.81L287.823 217.237H290.312L290.742 217.75C291.316 217.755 291.784 217.868 292.144 218.092C292.508 218.315 292.777 218.602 292.95 218.953C293.123 219.304 293.21 219.682 293.21 220.088C293.21 220.726 293.071 221.261 292.793 221.694C292.52 222.127 292.118 222.453 291.59 222.672C291.066 222.891 290.43 223 289.683 223ZM298.795 214.558L295.958 223H293.969L297.688 213.047H298.959L298.795 214.558ZM301.167 223L298.316 214.558L298.146 213.047H299.424L303.163 223H301.167ZM301.037 219.302V220.785H295.698V219.302H301.037Z" fill="black"/>
<path d="M151.366 64.0195V74H149.555V66.1318L147.155 66.9248V65.4619L151.161 64.0195H151.366Z" fill="black"/>
<circle cx="27" cy="38" r="5" stroke="black" stroke-width="2"/>
<circle cx="311.5" cy="132" r="5" stroke="black" stroke-width="2"/>
<circle cx="186" cy="225" r="5" stroke="black" stroke-width="2"/>
<circle cx="27" cy="226" r="5" stroke="black" stroke-width="2"/>
<line x1="31" y1="38" x2="185.013" y2="38" stroke="black" stroke-width="2"/>
<line x1="192" y1="38" x2="312" y2="38" stroke="black" stroke-width="2"/>
<line x1="186" y1="132" x2="312" y2="132" stroke="black" stroke-width="2"/>
<path d="M27 182L32.7735 172H21.2265L27 182ZM28 173L28 82H26L26 173H28Z" fill="black"/>
<line x1="31" y1="225" x2="185.013" y2="225" stroke="black" stroke-width="2"/>
<path d="M5.75684 138.328L8.77148 128.203H11.707L7.25098 141H5.31738L5.75684 138.328ZM2.97949 128.203L5.98535 138.328L6.44238 141H4.49121L0.0615234 128.203H2.97949Z" fill="black"/>
<path d="M199.222 85.2031H203.871C204.844 85.2031 205.679 85.3496 206.376 85.6426C207.073 85.9355 207.609 86.3691 207.984 86.9434C208.359 87.5176 208.547 88.2236 208.547 89.0615C208.547 89.7236 208.43 90.2979 208.195 90.7842C207.961 91.2705 207.63 91.6777 207.202 92.0059C206.78 92.334 206.282 92.5918 205.708 92.7793L204.952 93.166H200.848L200.83 91.2588H203.897C204.396 91.2588 204.809 91.1709 205.137 90.9951C205.465 90.8193 205.711 90.5762 205.875 90.2656C206.045 89.9551 206.13 89.6006 206.13 89.2021C206.13 88.7744 206.048 88.4053 205.884 88.0947C205.72 87.7783 205.471 87.5352 205.137 87.3652C204.803 87.1953 204.381 87.1104 203.871 87.1104H201.639V98H199.222V85.2031ZM206.446 98L203.484 92.2695L206.042 92.2607L209.039 97.877V98H206.446Z" fill="black"/>
<path d="M326.222 84.2031H330.871C331.844 84.2031 332.679 84.3496 333.376 84.6426C334.073 84.9355 334.609 85.3691 334.984 85.9434C335.359 86.5176 335.547 87.2236 335.547 88.0615C335.547 88.7236 335.43 89.2979 335.195 89.7842C334.961 90.2705 334.63 90.6777 334.202 91.0059C333.78 91.334 333.282 91.5918 332.708 91.7793L331.952 92.166H327.848L327.83 90.2588H330.897C331.396 90.2588 331.809 90.1709 332.137 89.9951C332.465 89.8193 332.711 89.5762 332.875 89.2656C333.045 88.9551 333.13 88.6006 333.13 88.2021C333.13 87.7744 333.048 87.4053 332.884 87.0947C332.72 86.7783 332.471 86.5352 332.137 86.3652C331.803 86.1953 331.381 86.1104 330.871 86.1104H328.639V97H326.222V84.2031ZM333.446 97L330.484 91.2695L333.042 91.2607L336.039 96.877V97H333.446Z" fill="black"/>
<path d="M207.222 168.203H211.871C212.844 168.203 213.679 168.35 214.376 168.643C215.073 168.936 215.609 169.369 215.984 169.943C216.359 170.518 216.547 171.224 216.547 172.062C216.547 172.724 216.43 173.298 216.195 173.784C215.961 174.271 215.63 174.678 215.202 175.006C214.78 175.334 214.282 175.592 213.708 175.779L212.952 176.166H208.848L208.83 174.259H211.897C212.396 174.259 212.809 174.171 213.137 173.995C213.465 173.819 213.711 173.576 213.875 173.266C214.045 172.955 214.13 172.601 214.13 172.202C214.13 171.774 214.048 171.405 213.884 171.095C213.72 170.778 213.471 170.535 213.137 170.365C212.803 170.195 212.381 170.11 211.871 170.11H209.639V181H207.222V168.203ZM214.446 181L211.484 175.27L214.042 175.261L217.039 180.877V181H214.446Z" fill="black"/>
<line x1="186" y1="74" x2="186" y2="37" stroke="black" stroke-width="2"/>
<line x1="186" y1="226" x2="186" y2="189" stroke="black" stroke-width="2"/>
<line x1="186" y1="154" x2="186" y2="109" stroke="black" stroke-width="2"/>
<line x1="312" y1="72" x2="312" y2="37" stroke="black" stroke-width="2"/>
<line x1="312" y1="133" x2="312" y2="106" stroke="black" stroke-width="2"/>
<rect x="178.5" y="75" width="13" height="33" stroke="black" stroke-width="2"/>
<rect x="305" y="72" width="13" height="33" stroke="black" stroke-width="2"/>
<rect x="178.5" y="155" width="13" height="33" stroke="black" stroke-width="2"/>
<path d="M207 222.598L217.479 227.449L216.44 215.949L207 222.598ZM305 154.02C305.029 155.511 304.555 157.578 303.516 160.118C302.485 162.64 300.927 165.559 298.865 168.733C294.743 175.079 288.644 182.389 280.834 189.515C265.211 203.769 242.817 217.219 215.832 220.797L216.095 222.78C243.582 219.135 266.339 205.447 282.182 190.992C290.105 183.763 296.319 176.324 300.542 169.822C302.654 166.571 304.277 163.541 305.367 160.875C306.45 158.227 307.037 155.867 307 153.98L305 154.02Z" fill="black"/>
</svg>
