<svg width="337" height="263" viewBox="0 0 337 263" fill="none" xmlns="http://www.w3.org/2000/svg">
<path d="M83.9591 183.948L93.8188 177.938L83.6843 172.404L83.9591 183.948ZM83.5655 78.842C84.6085 79.5131 85.8232 80.8192 87.1067 82.7753C88.3793 84.7148 89.6766 87.227 90.91 90.2304C93.3764 96.236 95.5614 104.142 96.7903 113.219C99.2488 131.375 97.8695 154.116 87.3762 175.606L89.1734 176.483C99.8792 154.558 101.27 131.4 98.7722 112.95C97.5229 103.724 95.2979 95.6502 92.7601 89.4706C91.4915 86.3814 90.1382 83.7497 88.7789 81.6781C87.4305 79.6231 86.032 78.0508 84.6477 77.1601L83.5655 78.842Z" fill="black"/>
<path d="M191.5 38C191.5 41.0376 189.038 43.5 186 43.5C182.962 43.5 180.5 41.0376 180.5 38C180.5 34.9624 182.962 32.5 186 32.5C189.038 32.5 191.5 34.9624 191.5 38Z" fill="black" stroke="black"/>
<path d="M191.5 133C191.5 136.038 189.038 138.5 186 138.5C182.962 138.5 180.5 136.038 180.5 133C180.5 129.962 182.962 127.5 186 127.5C189.038 127.5 191.5 129.962 191.5 133Z" fill="black" stroke="black"/>
<path d="M317.5 133C317.5 136.038 315.038 138.5 312 138.5C308.962 138.5 306.5 136.038 306.5 133C306.5 129.962 308.962 127.5 312 127.5C315.038 127.5 317.5 129.962 317.5 133Z" fill="black" stroke="black"/>
<path d="M317.5 225C317.5 228.038 315.038 230.5 312 230.5C308.962 230.5 306.5 228.038 306.5 225C306.5 221.962 308.962 219.5 312 219.5C315.038 219.5 317.5 221.962 317.5 225Z" fill="black" stroke="black"/>
<circle cx="261" cy="132" r="14" stroke="black" stroke-width="2"/>
<path d="M93.0488 25L83.0488 19.2265V30.7735L93.0488 25ZM52 26H84.0488V24H52V26Z" fill="black"/>
<path d="M68.5312 4.49023V14H66.2021V4.49023H68.5312ZM66.0439 2.00293C66.0439 1.65723 66.1611 1.37012 66.3955 1.1416C66.6357 0.913086 66.958 0.798828 67.3623 0.798828C67.7666 0.798828 68.0859 0.913086 68.3203 1.1416C68.5605 1.37012 68.6806 1.65723 68.6806 2.00293C68.6806 2.34277 68.5605 2.62695 68.3203 2.85547C68.0859 3.08398 67.7666 3.19824 67.3623 3.19824C66.958 3.19824 66.6357 3.08398 66.3955 2.85547C66.1611 2.62695 66.0439 2.34277 66.0439 2.00293Z" fill="black"/>
<path d="M108.507 79.4902V89H106.178V79.4902H108.507ZM106.02 77.0029C106.02 76.6572 106.137 76.3701 106.371 76.1416C106.611 75.9131 106.934 75.7988 107.338 75.7988C107.742 75.7988 108.062 75.9131 108.296 76.1416C108.536 76.3701 108.656 76.6572 108.656 77.0029C108.656 77.3428 108.536 77.627 108.296 77.8555C108.062 78.084 107.742 78.1982 107.338 78.1982C106.934 78.1982 106.611 78.084 106.371 77.8555C106.137 77.627 106.02 77.3428 106.02 77.0029Z" fill="black"/>
<path d="M279 111L268.964 105.289L269.036 116.836L279 111ZM237.006 112.262L270.006 112.056L269.994 110.056L236.994 110.262L237.006 112.262Z" fill="black"/>
<path d="M244.722 99.4951L247.912 89.2031H250.593L246.075 102H244.291L244.722 99.4951ZM241.777 89.2031L244.95 99.4951L245.407 102H243.605L239.105 89.2031H241.777Z" fill="black"/>
<path d="M255.308 102.169V103.844C255.308 104.609 255.23 105.263 255.075 105.806C254.92 106.348 254.697 106.792 254.405 107.139C254.114 107.48 253.765 107.733 253.359 107.897C252.954 108.057 252.503 108.137 252.006 108.137C251.609 108.137 251.24 108.087 250.898 107.986C250.557 107.882 250.249 107.722 249.976 107.508C249.707 107.289 249.474 107.011 249.278 106.674C249.087 106.337 248.939 105.933 248.834 105.464C248.734 104.994 248.684 104.454 248.684 103.844V102.169C248.684 101.403 248.761 100.752 248.916 100.214C249.076 99.6761 249.301 99.2363 249.593 98.8945C249.884 98.5527 250.233 98.3044 250.639 98.1494C251.044 97.9899 251.495 97.9102 251.992 97.9102C252.393 97.9102 252.762 97.9603 253.1 98.0605C253.441 98.1608 253.747 98.318 254.016 98.5322C254.289 98.7419 254.521 99.0153 254.713 99.3525C254.904 99.6852 255.05 100.086 255.15 100.556C255.255 101.021 255.308 101.558 255.308 102.169ZM253.503 104.09V101.916C253.503 101.533 253.48 101.201 253.435 100.918C253.394 100.631 253.332 100.387 253.25 100.187C253.168 99.986 253.065 99.8242 252.942 99.7012C252.819 99.5736 252.678 99.4801 252.519 99.4209C252.359 99.3617 252.184 99.332 251.992 99.332C251.755 99.332 251.543 99.3799 251.356 99.4756C251.17 99.5667 251.012 99.7126 250.885 99.9131C250.757 100.114 250.659 100.38 250.591 100.713C250.527 101.041 250.495 101.442 250.495 101.916V104.09C250.495 104.473 250.516 104.808 250.557 105.095C250.602 105.382 250.666 105.628 250.748 105.833C250.835 106.038 250.937 106.207 251.056 106.339C251.179 106.466 251.32 106.562 251.479 106.626C251.639 106.685 251.814 106.715 252.006 106.715C252.247 106.715 252.459 106.667 252.642 106.571C252.828 106.476 252.986 106.325 253.113 106.12C253.241 105.91 253.337 105.639 253.4 105.307C253.469 104.969 253.503 104.564 253.503 104.09Z" fill="black"/>
<path d="M304 197.001L309.774 187.001H298.226L304 197.001ZM303 155V188.001H305V155H303Z" fill="black"/>
<path d="M286.507 155.49V165H284.178V155.49H286.507ZM284.02 153.003C284.02 152.657 284.137 152.37 284.371 152.142C284.611 151.913 284.934 151.799 285.338 151.799C285.742 151.799 286.062 151.913 286.296 152.142C286.536 152.37 286.656 152.657 286.656 153.003C286.656 153.343 286.536 153.627 286.296 153.855C286.062 154.084 285.742 154.198 285.338 154.198C284.934 154.198 284.611 154.084 284.371 153.855C284.137 153.627 284.02 153.343 284.02 153.003Z" fill="black"/>
<path d="M290.363 167H288.523L288.535 165.734H290.363C290.859 165.734 291.275 165.625 291.611 165.406C291.947 165.184 292.201 164.865 292.373 164.451C292.545 164.033 292.631 163.533 292.631 162.951V162.512C292.631 162.062 292.582 161.666 292.484 161.322C292.387 160.979 292.242 160.689 292.051 160.455C291.863 160.221 291.631 160.043 291.354 159.922C291.076 159.801 290.758 159.74 290.398 159.74H288.488V158.469H290.398C290.969 158.469 291.488 158.564 291.957 158.756C292.43 158.947 292.838 159.223 293.182 159.582C293.529 159.938 293.795 160.363 293.979 160.859C294.166 161.355 294.26 161.91 294.26 162.523V162.951C294.26 163.561 294.166 164.115 293.979 164.615C293.795 165.111 293.529 165.537 293.182 165.893C292.838 166.248 292.428 166.521 291.951 166.713C291.475 166.904 290.945 167 290.363 167ZM289.426 158.469V167H287.814V158.469H289.426Z" fill="black"/>
<path d="M300.327 168.984V170H295.513V169.131L297.822 166.636C298.063 166.362 298.254 166.125 298.394 165.923C298.534 165.721 298.633 165.539 298.691 165.376C298.753 165.21 298.784 165.052 298.784 164.902C298.784 164.684 298.745 164.494 298.667 164.331C298.589 164.165 298.475 164.036 298.325 163.945C298.179 163.854 297.998 163.809 297.783 163.809C297.546 163.809 297.342 163.864 297.173 163.975C297.007 164.082 296.88 164.232 296.792 164.424C296.707 164.616 296.665 164.836 296.665 165.083H295.371C295.371 164.663 295.469 164.281 295.664 163.936C295.859 163.587 296.139 163.309 296.504 163.101C296.868 162.892 297.301 162.788 297.803 162.788C298.291 162.788 298.704 162.869 299.043 163.032C299.382 163.192 299.639 163.42 299.814 163.716C299.99 164.012 300.078 164.365 300.078 164.775C300.078 165.003 300.041 165.228 299.966 165.449C299.891 165.671 299.785 165.89 299.648 166.108C299.515 166.323 299.355 166.541 299.17 166.763C298.984 166.984 298.778 167.21 298.55 167.441L297.163 168.984H300.327Z" fill="black"/>
<path d="M237.001 125L227.001 119.226V130.774L237.001 125ZM195 126H228.001V124H195V126Z" fill="black"/>
<path d="M203.507 108.49V118H201.178V108.49H203.507ZM201.02 106.003C201.02 105.657 201.137 105.37 201.371 105.142C201.611 104.913 201.934 104.799 202.338 104.799C202.742 104.799 203.062 104.913 203.296 105.142C203.536 105.37 203.656 105.657 203.656 106.003C203.656 106.343 203.536 106.627 203.296 106.855C203.062 107.084 202.742 107.198 202.338 107.198C201.934 107.198 201.611 107.084 201.371 106.855C201.137 106.627 201.02 106.343 201.02 106.003Z" fill="black"/>
<path d="M207.363 120H205.523L205.535 118.734H207.363C207.859 118.734 208.275 118.625 208.611 118.406C208.947 118.184 209.201 117.865 209.373 117.451C209.545 117.033 209.631 116.533 209.631 115.951V115.512C209.631 115.062 209.582 114.666 209.484 114.322C209.387 113.979 209.242 113.689 209.051 113.455C208.863 113.221 208.631 113.043 208.354 112.922C208.076 112.801 207.758 112.74 207.398 112.74H205.488V111.469H207.398C207.969 111.469 208.488 111.564 208.957 111.756C209.43 111.947 209.838 112.223 210.182 112.582C210.529 112.938 210.795 113.363 210.979 113.859C211.166 114.355 211.26 114.91 211.26 115.523V115.951C211.26 116.561 211.166 117.115 210.979 117.615C210.795 118.111 210.529 118.537 210.182 118.893C209.838 119.248 209.428 119.521 208.951 119.713C208.475 119.904 207.945 120 207.363 120ZM206.426 111.469V120H204.814V111.469H206.426Z" fill="black"/>
<path d="M217.327 121.984V123H212.513V122.131L214.822 119.636C215.063 119.362 215.254 119.125 215.394 118.923C215.534 118.721 215.633 118.539 215.691 118.376C215.753 118.21 215.784 118.052 215.784 117.902C215.784 117.684 215.745 117.494 215.667 117.331C215.589 117.165 215.475 117.036 215.325 116.945C215.179 116.854 214.998 116.809 214.783 116.809C214.546 116.809 214.342 116.864 214.173 116.975C214.007 117.082 213.88 117.232 213.792 117.424C213.707 117.616 213.665 117.836 213.665 118.083H212.371C212.371 117.663 212.469 117.281 212.664 116.936C212.859 116.587 213.139 116.309 213.504 116.101C213.868 115.892 214.301 115.788 214.803 115.788C215.291 115.788 215.704 115.869 216.043 116.032C216.382 116.192 216.639 116.42 216.814 116.716C216.99 117.012 217.078 117.365 217.078 117.775C217.078 118.003 217.041 118.228 216.966 118.449C216.891 118.671 216.785 118.89 216.648 119.108C216.515 119.323 216.355 119.541 216.17 119.763C215.984 119.984 215.778 120.21 215.55 120.441L214.163 121.984H217.327Z" fill="black"/>
<path d="M115.366 85.0195V95H113.555V87.1318L111.155 87.9248V86.4619L115.161 85.0195H115.366Z" fill="black"/>
<path d="M247.507 50.4902V60H245.178V50.4902H247.507ZM245.02 48.0029C245.02 47.6572 245.137 47.3701 245.371 47.1416C245.611 46.9131 245.934 46.7988 246.338 46.7988C246.742 46.7988 247.062 46.9131 247.296 47.1416C247.536 47.3701 247.656 47.6572 247.656 48.0029C247.656 48.3428 247.536 48.627 247.296 48.8555C247.062 49.084 246.742 49.1982 246.338 49.1982C245.934 49.1982 245.611 49.084 245.371 48.8555C245.137 48.627 245.02 48.3428 245.02 48.0029Z" fill="black"/>
<path d="M256.458 64.5781V66H249.718V64.7832L252.951 61.29C253.288 60.9072 253.555 60.5745 253.751 60.292C253.947 60.0094 254.086 59.7542 254.168 59.5264C254.255 59.2939 254.298 59.0729 254.298 58.8633C254.298 58.5579 254.243 58.2913 254.134 58.0635C254.024 57.8311 253.865 57.651 253.655 57.5234C253.45 57.3958 253.197 57.332 252.896 57.332C252.564 57.332 252.279 57.4095 252.042 57.5645C251.81 57.7148 251.632 57.9245 251.509 58.1934C251.39 58.4622 251.331 58.7699 251.331 59.1162H249.52C249.52 58.5283 249.656 57.9928 249.93 57.5098C250.203 57.0221 250.595 56.6325 251.105 56.3408C251.616 56.0492 252.222 55.9033 252.924 55.9033C253.607 55.9033 254.186 56.0173 254.66 56.2451C255.134 56.4684 255.494 56.7874 255.74 57.2021C255.986 57.6169 256.109 58.1113 256.109 58.6855C256.109 59.0046 256.057 59.319 255.952 59.6289C255.847 59.9388 255.699 60.2464 255.508 60.5518C255.321 60.8525 255.098 61.1579 254.838 61.4678C254.578 61.7777 254.289 62.0944 253.97 62.418L252.028 64.5781H256.458Z" fill="black"/>
<path d="M241.507 177.49V187H239.178V177.49H241.507ZM239.02 175.003C239.02 174.657 239.137 174.37 239.371 174.142C239.611 173.913 239.934 173.799 240.338 173.799C240.742 173.799 241.062 173.913 241.296 174.142C241.536 174.37 241.656 174.657 241.656 175.003C241.656 175.343 241.536 175.627 241.296 175.855C241.062 176.084 240.742 176.198 240.338 176.198C239.934 176.198 239.611 176.084 239.371 175.855C239.137 175.627 239.02 175.343 239.02 175.003Z" fill="black"/>
<path d="M245.693 187.224H246.712C247.072 187.224 247.368 187.162 247.601 187.039C247.838 186.911 248.013 186.738 248.127 186.52C248.245 186.296 248.305 186.039 248.305 185.747C248.305 185.46 248.252 185.212 248.147 185.002C248.043 184.788 247.883 184.624 247.669 184.51C247.459 184.391 247.19 184.332 246.862 184.332C246.598 184.332 246.354 184.384 246.131 184.489C245.912 184.594 245.737 184.744 245.604 184.94C245.477 185.132 245.413 185.362 245.413 185.631H243.602C243.602 185.093 243.743 184.621 244.025 184.216C244.312 183.806 244.7 183.484 245.188 183.252C245.675 183.02 246.22 182.903 246.821 182.903C247.478 182.903 248.052 183.013 248.544 183.231C249.041 183.446 249.426 183.762 249.699 184.182C249.977 184.601 250.116 185.12 250.116 185.74C250.116 186.036 250.046 186.333 249.904 186.629C249.768 186.921 249.565 187.185 249.296 187.422C249.032 187.654 248.706 187.843 248.318 187.989C247.936 188.131 247.496 188.201 246.999 188.201H245.693V187.224ZM245.693 188.618V187.654H246.999C247.56 187.654 248.045 187.72 248.455 187.853C248.87 187.98 249.212 188.162 249.48 188.399C249.749 188.632 249.948 188.903 250.075 189.213C250.207 189.523 250.273 189.855 250.273 190.211C250.273 190.676 250.187 191.09 250.014 191.455C249.84 191.815 249.597 192.12 249.282 192.371C248.972 192.622 248.608 192.813 248.188 192.945C247.769 193.073 247.316 193.137 246.828 193.137C246.404 193.137 245.992 193.08 245.591 192.966C245.194 192.847 244.837 192.672 244.518 192.439C244.199 192.202 243.946 191.906 243.759 191.551C243.572 191.191 243.479 190.774 243.479 190.3H245.29C245.29 190.573 245.356 190.817 245.488 191.031C245.625 191.245 245.812 191.414 246.049 191.537C246.29 191.656 246.562 191.715 246.862 191.715C247.195 191.715 247.48 191.656 247.717 191.537C247.958 191.414 248.143 191.241 248.271 191.018C248.398 190.79 248.462 190.519 248.462 190.204C248.462 189.83 248.391 189.527 248.25 189.295C248.109 189.062 247.906 188.892 247.642 188.782C247.382 188.673 247.072 188.618 246.712 188.618H245.693Z" fill="black"/>
<circle cx="27" cy="38" r="5" stroke="black" stroke-width="2"/>
<circle cx="27" cy="257" r="5" stroke="black" stroke-width="2"/>
<line x1="31" y1="38" x2="185.013" y2="38" stroke="black" stroke-width="2"/>
<line x1="192" y1="38" x2="312" y2="38" stroke="black" stroke-width="2"/>
<line x1="186" y1="132" x2="312" y2="132" stroke="black" stroke-width="2"/>
<line x1="187" y1="225" x2="233" y2="225" stroke="black" stroke-width="2"/>
<line x1="266" y1="225" x2="312" y2="225" stroke="black" stroke-width="2"/>
<path d="M27 182L32.7735 172H21.2265L27 182ZM28 173L28 82H26L26 173H28Z" fill="black"/>
<line x1="32" y1="257" x2="313.01" y2="257" stroke="black" stroke-width="2"/>
<path d="M5.75684 138.328L8.77148 128.203H11.707L7.25098 141H5.31738L5.75684 138.328ZM2.97949 128.203L5.98535 138.328L6.44238 141H4.49121L0.0615234 128.203H2.97949Z" fill="black"/>
<path d="M199.222 85.2031H203.871C204.844 85.2031 205.679 85.3496 206.376 85.6426C207.073 85.9355 207.609 86.3691 207.984 86.9434C208.359 87.5176 208.547 88.2236 208.547 89.0615C208.547 89.7236 208.43 90.2979 208.195 90.7842C207.961 91.2705 207.63 91.6777 207.202 92.0059C206.78 92.334 206.282 92.5918 205.708 92.7793L204.952 93.166H200.848L200.83 91.2588H203.897C204.396 91.2588 204.809 91.1709 205.137 90.9951C205.465 90.8193 205.711 90.5762 205.875 90.2656C206.045 89.9551 206.13 89.6006 206.13 89.2021C206.13 88.7744 206.048 88.4053 205.884 88.0947C205.72 87.7783 205.471 87.5352 205.137 87.3652C204.803 87.1953 204.381 87.1104 203.871 87.1104H201.639V98H199.222V85.2031ZM206.446 98L203.484 92.2695L206.042 92.2607L209.039 97.877V98H206.446Z" fill="black"/>
<path d="M326.222 84.2031H330.871C331.844 84.2031 332.679 84.3496 333.376 84.6426C334.073 84.9355 334.609 85.3691 334.984 85.9434C335.359 86.5176 335.547 87.2236 335.547 88.0615C335.547 88.7236 335.43 89.2979 335.195 89.7842C334.961 90.2705 334.63 90.6777 334.202 91.0059C333.78 91.334 333.282 91.5918 332.708 91.7793L331.952 92.166H327.848L327.83 90.2588H330.897C331.396 90.2588 331.809 90.1709 332.137 89.9951C332.465 89.8193 332.711 89.5762 332.875 89.2656C333.045 88.9551 333.13 88.6006 333.13 88.2021C333.13 87.7744 333.048 87.4053 332.884 87.0947C332.72 86.7783 332.471 86.5352 332.137 86.3652C331.803 86.1953 331.381 86.1104 330.871 86.1104H328.639V97H326.222V84.2031ZM333.446 97L330.484 91.2695L333.042 91.2607L336.039 96.877V97H333.446Z" fill="black"/>
<path d="M247.222 237.203H251.871C252.844 237.203 253.679 237.35 254.376 237.643C255.073 237.936 255.609 238.369 255.984 238.943C256.359 239.518 256.547 240.224 256.547 241.062C256.547 241.724 256.43 242.298 256.195 242.784C255.961 243.271 255.63 243.678 255.202 244.006C254.78 244.334 254.282 244.592 253.708 244.779L252.952 245.166H248.848L248.83 243.259H251.897C252.396 243.259 252.809 243.171 253.137 242.995C253.465 242.819 253.711 242.576 253.875 242.266C254.045 241.955 254.13 241.601 254.13 241.202C254.13 240.774 254.048 240.405 253.884 240.095C253.72 239.778 253.471 239.535 253.137 239.365C252.803 239.195 252.381 239.11 251.871 239.11H249.639V250H247.222V237.203ZM254.446 250L251.484 244.27L254.042 244.261L257.039 249.877V250H254.446Z" fill="black"/>
<line x1="186" y1="74" x2="186" y2="37" stroke="black" stroke-width="2"/>
<line x1="186" y1="226" x2="186" y2="137" stroke="black" stroke-width="2"/>
<line x1="312" y1="226" x2="312" y2="133" stroke="black" stroke-width="2"/>
<line x1="186" y1="154" x2="186" y2="109" stroke="black" stroke-width="2"/>
<line x1="312" y1="72" x2="312" y2="37" stroke="black" stroke-width="2"/>
<line x1="312" y1="133" x2="312" y2="106" stroke="black" stroke-width="2"/>
<line x1="312" y1="257" x2="312" y2="230" stroke="black" stroke-width="2"/>
<rect x="178.5" y="75" width="13" height="33" stroke="black" stroke-width="2"/>
<rect x="305" y="72" width="13" height="33" stroke="black" stroke-width="2"/>
<rect x="232" y="232" width="13" height="33" transform="rotate(-90 232 232)" stroke="black" stroke-width="2"/>
<path d="M290.713 63.7945L279.252 65.2009L286.2 74.4232L290.713 63.7945ZM283.068 68.321C269.474 75.2813 240.109 81.2126 215.511 66.603L214.489 68.3226C239.862 83.3917 269.99 77.2639 283.979 70.1012L283.068 68.321Z" fill="black"/>
<path d="M287.713 193.794L276.252 195.201L283.2 204.423L287.713 193.794ZM280.068 198.321C266.474 205.281 237.109 211.213 212.511 196.603L211.489 198.323C236.862 213.392 266.99 207.264 280.979 200.101L280.068 198.321Z" fill="black"/>
</svg>
