<svg width="218" height="200" viewBox="0 0 218 200" fill="none" xmlns="http://www.w3.org/2000/svg">
<circle cx="27" cy="6" r="5" stroke="black" stroke-width="2"/>
<circle cx="27" cy="194" r="5" stroke="black" stroke-width="2"/>
<line x1="31" y1="6" x2="185.013" y2="6" stroke="black" stroke-width="2"/>
<path d="M27 150L32.7735 140H21.2265L27 150ZM28 141L28 50H26L26 141H28Z" fill="black"/>
<line x1="31" y1="193" x2="185.013" y2="193" stroke="black" stroke-width="2"/>
<path d="M5.75684 106.328L8.77148 96.2031H11.707L7.25098 109H5.31738L5.75684 106.328ZM2.97949 96.2031L5.98535 106.328L6.44238 109H4.49121L0.0615234 96.2031H2.97949Z" fill="black"/>
<path d="M206.222 56.2031H210.871C211.844 56.2031 212.679 56.3496 213.376 56.6426C214.073 56.9355 214.609 57.3691 214.984 57.9434C215.359 58.5176 215.547 59.2236 215.547 60.0615C215.547 60.7236 215.43 61.2979 215.195 61.7842C214.961 62.2705 214.63 62.6777 214.202 63.0059C213.78 63.334 213.282 63.5918 212.708 63.7793L211.952 64.166H207.848L207.83 62.2588H210.897C211.396 62.2588 211.809 62.1709 212.137 61.9951C212.465 61.8193 212.711 61.5762 212.875 61.2656C213.045 60.9551 213.13 60.6006 213.13 60.2021C213.13 59.7744 213.048 59.4053 212.884 59.0947C212.72 58.7783 212.471 58.5352 212.137 58.3652C211.803 58.1953 211.381 58.1104 210.871 58.1104H208.639V69H206.222V56.2031ZM213.446 69L210.484 63.2695L213.042 63.2607L216.039 68.877V69H213.446Z" fill="black"/>
<path d="M207.222 136.203H211.871C212.844 136.203 213.679 136.35 214.376 136.643C215.073 136.936 215.609 137.369 215.984 137.943C216.359 138.518 216.547 139.224 216.547 140.062C216.547 140.724 216.43 141.298 216.195 141.784C215.961 142.271 215.63 142.678 215.202 143.006C214.78 143.334 214.282 143.592 213.708 143.779L212.952 144.166H208.848L208.83 142.259H211.897C212.396 142.259 212.809 142.171 213.137 141.995C213.465 141.819 213.711 141.576 213.875 141.266C214.045 140.955 214.13 140.601 214.13 140.202C214.13 139.774 214.048 139.405 213.884 139.095C213.72 138.778 213.471 138.535 213.137 138.365C212.803 138.195 212.381 138.11 211.871 138.11H209.639V149H207.222V136.203ZM214.446 149L211.484 143.27L214.042 143.261L217.039 148.877V149H214.446Z" fill="black"/>
<line x1="186" y1="42" x2="186" y2="5" stroke="black" stroke-width="2"/>
<line x1="186" y1="194" x2="186" y2="157" stroke="black" stroke-width="2"/>
<line x1="186" y1="122" x2="186" y2="77" stroke="black" stroke-width="2"/>
<rect x="178.5" y="43" width="13" height="33" stroke="black" stroke-width="2"/>
<rect x="178.5" y="123" width="13" height="33" stroke="black" stroke-width="2"/>
</svg>
