<svg width="426" height="235" viewBox="0 0 426 235" fill="none" xmlns="http://www.w3.org/2000/svg">
<circle cx="24" cy="36" r="5" stroke="black" stroke-width="2"/>
<circle cx="24" cy="229" r="5" stroke="black" stroke-width="2"/>
<path d="M218.5 228C218.5 231.038 216.038 233.5 213 233.5C209.962 233.5 207.5 231.038 207.5 228C207.5 224.962 209.962 222.5 213 222.5C216.038 222.5 218.5 224.962 218.5 228Z" fill="black" stroke="black"/>
<path d="M218.5 37C218.5 40.0376 216.038 42.5 213 42.5C209.962 42.5 207.5 40.0376 207.5 37C207.5 33.9624 209.962 31.5 213 31.5C216.038 31.5 218.5 33.9624 218.5 37Z" fill="black" stroke="black"/>
<line x1="148" y1="36" x2="380" y2="36" stroke="black" stroke-width="2"/>
<line x1="30" y1="228" x2="380" y2="228" stroke="black" stroke-width="2"/>
<line x1="213" y1="231" x2="213" y2="139" stroke="black" stroke-width="2"/>
<line x1="379" y1="229" x2="379" y2="205" stroke="black" stroke-width="2"/>
<line x1="213" y1="111" x2="213" y2="33" stroke="black" stroke-width="2"/>
<line x1="379" y1="205" x2="379" y2="109" stroke="black" stroke-width="2"/>
<line x1="379" y1="74" x2="379" y2="36" stroke="black" stroke-width="2"/>
<line x1="200" y1="127" x2="228" y2="127" stroke="black" stroke-width="2"/>
<line x1="393.144" y1="184.135" x2="365.145" y2="184" stroke="black" stroke-width="2"/>
<path d="M24 186L29.7735 176H18.2265L24 186ZM23 78L23 177H25L25 78H23Z" fill="black"/>
<circle cx="213" cy="126" r="14" stroke="black" stroke-width="2"/>
<circle cx="379" cy="142" r="14" stroke="black" stroke-width="2"/>
<path d="M6.60938 130.724V123.49H9.14062V133H6.75879L6.60938 130.724ZM6.89062 128.772L7.6377 128.755C7.6377 129.388 7.56445 129.977 7.41797 130.521C7.27148 131.061 7.05176 131.529 6.75879 131.928C6.46582 132.32 6.09668 132.628 5.65137 132.851C5.20605 133.067 4.68164 133.176 4.07812 133.176C3.61523 133.176 3.1875 133.111 2.79492 132.982C2.4082 132.848 2.07422 132.64 1.79297 132.358C1.51758 132.071 1.30078 131.705 1.14258 131.26C0.990234 130.809 0.914062 130.267 0.914062 129.634V123.49H3.44531V129.651C3.44531 129.933 3.47754 130.17 3.54199 130.363C3.6123 130.557 3.70898 130.715 3.83203 130.838C3.95508 130.961 4.09863 131.049 4.2627 131.102C4.43262 131.154 4.62012 131.181 4.8252 131.181C5.34668 131.181 5.75684 131.075 6.05566 130.864C6.36035 130.653 6.57422 130.366 6.69727 130.003C6.82617 129.634 6.89062 129.224 6.89062 128.772Z" fill="black"/>
<path d="M84.0244 25L74.0244 19.2265V30.7735L84.0244 25ZM42.9756 26H75.0244V24H42.9756V26Z" fill="black"/>
<path d="M244 96L249.976 86.1199L238.432 85.8843L244 96ZM244 46.9796L243.184 86.9815L245.183 87.0223L246 47.0204L244 46.9796Z" fill="black"/>
<path d="M316 27L305.972 21.276L306.029 32.8229L316 27ZM262.974 28.2621L307.005 28.0445L306.995 26.0445L262.964 26.2622L262.974 28.2621Z" fill="black"/>
<path d="M405 182L399.226 192H410.774L405 182ZM406 222V191H404V222H406Z" fill="black"/>
<path d="M59.5068 4.49023V14H57.1777V4.49023H59.5068ZM57.0195 2.00293C57.0195 1.65723 57.1367 1.37012 57.3711 1.1416C57.6113 0.913086 57.9336 0.798828 58.3379 0.798828C58.7422 0.798828 59.0615 0.913086 59.2959 1.1416C59.5361 1.37012 59.6562 1.65723 59.6562 2.00293C59.6562 2.34277 59.5361 2.62695 59.2959 2.85547C59.0615 3.08398 58.7422 3.19824 58.3379 3.19824C57.9336 3.19824 57.6113 3.08398 57.3711 2.85547C57.1367 2.62695 57.0195 2.34277 57.0195 2.00293Z" fill="black"/>
<path d="M403.341 149.203H405.758V157.702C405.758 158.681 405.547 159.504 405.125 160.172C404.703 160.834 404.129 161.335 403.402 161.675C402.676 162.009 401.85 162.176 400.924 162.176C399.986 162.176 399.151 162.009 398.419 161.675C397.687 161.335 397.112 160.834 396.696 160.172C396.28 159.504 396.072 158.681 396.072 157.702V149.203H398.489V157.702C398.489 158.3 398.589 158.789 398.788 159.17C398.987 159.545 399.269 159.823 399.632 160.005C399.995 160.187 400.426 160.277 400.924 160.277C401.428 160.277 401.858 160.187 402.216 160.005C402.579 159.823 402.857 159.545 403.051 159.17C403.244 158.789 403.341 158.3 403.341 157.702V149.203Z" fill="black"/>
<path d="M412.308 163.169V164.844C412.308 165.609 412.23 166.263 412.075 166.806C411.92 167.348 411.697 167.792 411.405 168.139C411.114 168.48 410.765 168.733 410.359 168.897C409.954 169.057 409.503 169.137 409.006 169.137C408.609 169.137 408.24 169.087 407.898 168.986C407.557 168.882 407.249 168.722 406.976 168.508C406.707 168.289 406.474 168.011 406.278 167.674C406.087 167.337 405.939 166.933 405.834 166.464C405.734 165.994 405.684 165.454 405.684 164.844V163.169C405.684 162.403 405.761 161.752 405.916 161.214C406.076 160.676 406.301 160.236 406.593 159.895C406.884 159.553 407.233 159.304 407.639 159.149C408.044 158.99 408.495 158.91 408.992 158.91C409.393 158.91 409.762 158.96 410.1 159.061C410.441 159.161 410.747 159.318 411.016 159.532C411.289 159.742 411.521 160.015 411.713 160.353C411.904 160.685 412.05 161.086 412.15 161.556C412.255 162.021 412.308 162.558 412.308 163.169ZM410.503 165.09V162.916C410.503 162.533 410.48 162.201 410.435 161.918C410.394 161.631 410.332 161.387 410.25 161.187C410.168 160.986 410.065 160.824 409.942 160.701C409.819 160.574 409.678 160.48 409.519 160.421C409.359 160.362 409.184 160.332 408.992 160.332C408.755 160.332 408.543 160.38 408.356 160.476C408.17 160.567 408.012 160.713 407.885 160.913C407.757 161.114 407.659 161.38 407.591 161.713C407.527 162.041 407.495 162.442 407.495 162.916V165.09C407.495 165.473 407.516 165.808 407.557 166.095C407.602 166.382 407.666 166.628 407.748 166.833C407.835 167.038 407.937 167.207 408.056 167.339C408.179 167.466 408.32 167.562 408.479 167.626C408.639 167.685 408.814 167.715 409.006 167.715C409.247 167.715 409.459 167.667 409.642 167.571C409.828 167.476 409.986 167.325 410.113 167.12C410.241 166.91 410.337 166.639 410.4 166.307C410.469 165.969 410.503 165.564 410.503 165.09Z" fill="black"/>
<path d="M237.797 131.203V144H235.38V131.203H237.797Z" fill="black"/>
<path d="M250.308 144.169V145.844C250.308 146.609 250.23 147.263 250.075 147.806C249.92 148.348 249.697 148.792 249.405 149.139C249.114 149.48 248.765 149.733 248.359 149.897C247.954 150.057 247.503 150.137 247.006 150.137C246.609 150.137 246.24 150.087 245.898 149.986C245.557 149.882 245.249 149.722 244.976 149.508C244.707 149.289 244.474 149.011 244.278 148.674C244.087 148.337 243.939 147.933 243.834 147.464C243.734 146.994 243.684 146.454 243.684 145.844V144.169C243.684 143.403 243.761 142.752 243.916 142.214C244.076 141.676 244.301 141.236 244.593 140.895C244.884 140.553 245.233 140.304 245.639 140.149C246.044 139.99 246.495 139.91 246.992 139.91C247.393 139.91 247.762 139.96 248.1 140.061C248.441 140.161 248.747 140.318 249.016 140.532C249.289 140.742 249.521 141.015 249.713 141.353C249.904 141.685 250.05 142.086 250.15 142.556C250.255 143.021 250.308 143.558 250.308 144.169ZM248.503 146.09V143.916C248.503 143.533 248.48 143.201 248.435 142.918C248.394 142.631 248.332 142.387 248.25 142.187C248.168 141.986 248.065 141.824 247.942 141.701C247.819 141.574 247.678 141.48 247.519 141.421C247.359 141.362 247.184 141.332 246.992 141.332C246.755 141.332 246.543 141.38 246.356 141.476C246.17 141.567 246.012 141.713 245.885 141.913C245.757 142.114 245.659 142.38 245.591 142.713C245.527 143.041 245.495 143.442 245.495 143.916V146.09C245.495 146.473 245.516 146.808 245.557 147.095C245.602 147.382 245.666 147.628 245.748 147.833C245.835 148.038 245.937 148.207 246.056 148.339C246.179 148.466 246.32 148.562 246.479 148.626C246.639 148.685 246.814 148.715 247.006 148.715C247.247 148.715 247.459 148.667 247.642 148.571C247.828 148.476 247.986 148.325 248.113 148.12C248.241 147.91 248.337 147.639 248.4 147.307C248.469 146.969 248.503 146.564 248.503 146.09Z" fill="black"/>
<path d="M414.507 205.49V215H412.178V205.49H414.507ZM412.02 203.003C412.02 202.657 412.137 202.37 412.371 202.142C412.611 201.913 412.934 201.799 413.338 201.799C413.742 201.799 414.062 201.913 414.296 202.142C414.536 202.37 414.656 202.657 414.656 203.003C414.656 203.343 414.536 203.627 414.296 203.855C414.062 204.084 413.742 204.198 413.338 204.198C412.934 204.198 412.611 204.084 412.371 203.855C412.137 203.627 412.02 203.343 412.02 203.003Z" fill="black"/>
<path d="M420.924 222H418.777L418.791 220.523H420.924C421.503 220.523 421.988 220.396 422.38 220.141C422.772 219.881 423.068 219.509 423.269 219.026C423.469 218.539 423.569 217.955 423.569 217.276V216.764C423.569 216.24 423.512 215.777 423.398 215.376C423.285 214.975 423.116 214.638 422.893 214.364C422.674 214.091 422.403 213.883 422.079 213.742C421.756 213.601 421.384 213.53 420.965 213.53H418.736V212.047H420.965C421.63 212.047 422.236 212.159 422.783 212.382C423.335 212.605 423.811 212.926 424.212 213.346C424.618 213.76 424.927 214.257 425.142 214.836C425.36 215.415 425.47 216.062 425.47 216.777V217.276C425.47 217.987 425.36 218.634 425.142 219.218C424.927 219.797 424.618 220.293 424.212 220.708C423.811 221.123 423.332 221.442 422.776 221.665C422.22 221.888 421.603 222 420.924 222ZM419.83 212.047V222H417.95V212.047H419.83Z" fill="black"/>
<path d="M393.222 94.2031H397.871C398.844 94.2031 399.679 94.3496 400.376 94.6426C401.073 94.9355 401.609 95.3691 401.984 95.9434C402.359 96.5176 402.547 97.2236 402.547 98.0615C402.547 98.7236 402.43 99.2979 402.195 99.7842C401.961 100.271 401.63 100.678 401.202 101.006C400.78 101.334 400.282 101.592 399.708 101.779L398.952 102.166H394.848L394.83 100.259H397.897C398.396 100.259 398.809 100.171 399.137 99.9951C399.465 99.8193 399.711 99.5762 399.875 99.2656C400.045 98.9551 400.13 98.6006 400.13 98.2021C400.13 97.7744 400.048 97.4053 399.884 97.0947C399.72 96.7783 399.471 96.5352 399.137 96.3652C398.803 96.1953 398.381 96.1104 397.871 96.1104H395.639V107H393.222V94.2031ZM400.446 107L397.484 101.27L400.042 101.261L403.039 106.877V107H400.446Z" fill="black"/>
<path d="M410.458 113.578V115H403.718V113.783L406.951 110.29C407.288 109.907 407.555 109.575 407.751 109.292C407.947 109.009 408.086 108.754 408.168 108.526C408.255 108.294 408.298 108.073 408.298 107.863C408.298 107.558 408.243 107.291 408.134 107.063C408.024 106.831 407.865 106.651 407.655 106.523C407.45 106.396 407.197 106.332 406.896 106.332C406.564 106.332 406.279 106.41 406.042 106.564C405.81 106.715 405.632 106.924 405.509 107.193C405.39 107.462 405.331 107.77 405.331 108.116H403.52C403.52 107.528 403.656 106.993 403.93 106.51C404.203 106.022 404.595 105.632 405.105 105.341C405.616 105.049 406.222 104.903 406.924 104.903C407.607 104.903 408.186 105.017 408.66 105.245C409.134 105.468 409.494 105.787 409.74 106.202C409.986 106.617 410.109 107.111 410.109 107.686C410.109 108.005 410.057 108.319 409.952 108.629C409.847 108.939 409.699 109.246 409.508 109.552C409.321 109.853 409.098 110.158 408.838 110.468C408.578 110.778 408.289 111.094 407.97 111.418L406.028 113.578H410.458Z" fill="black"/>
<path d="M279.507 7.49023V17H277.178V7.49023H279.507ZM277.02 5.00293C277.02 4.65723 277.137 4.37012 277.371 4.1416C277.611 3.91309 277.934 3.79883 278.338 3.79883C278.742 3.79883 279.062 3.91309 279.296 4.1416C279.536 4.37012 279.656 4.65723 279.656 5.00293C279.656 5.34277 279.536 5.62695 279.296 5.85547C279.062 6.08398 278.742 6.19824 278.338 6.19824C277.934 6.19824 277.611 6.08398 277.371 5.85547C277.137 5.62695 277.02 5.34277 277.02 5.00293Z" fill="black"/>
<path d="M286.765 16.5635H284.222L284.208 15.2373H286.389C286.762 15.2373 287.075 15.1849 287.325 15.0801C287.576 14.9753 287.765 14.8226 287.893 14.6221C288.025 14.4215 288.091 14.1777 288.091 13.8906C288.091 13.5716 288.029 13.3118 287.906 13.1113C287.788 12.9108 287.601 12.765 287.346 12.6738C287.09 12.5781 286.767 12.5303 286.375 12.5303H284.83V21H282.95V11.0469H286.375C286.94 11.0469 287.444 11.1016 287.886 11.2109C288.332 11.3158 288.711 11.4798 289.021 11.7031C289.33 11.9264 289.565 12.2067 289.725 12.5439C289.889 12.8812 289.971 13.2822 289.971 13.7471C289.971 14.1572 289.875 14.5355 289.684 14.8818C289.497 15.2236 289.207 15.5016 288.815 15.7158C288.428 15.93 287.936 16.0531 287.339 16.085L286.765 16.5635ZM286.683 21H283.668L284.454 19.5234H286.683C287.056 19.5234 287.364 19.4619 287.605 19.3389C287.852 19.2158 288.034 19.0472 288.152 18.833C288.275 18.6143 288.337 18.3636 288.337 18.0811C288.337 17.7712 288.282 17.5023 288.173 17.2744C288.068 17.0465 287.899 16.8711 287.667 16.748C287.439 16.625 287.138 16.5635 286.765 16.5635H284.81L284.823 15.2373H287.312L287.742 15.75C288.316 15.7546 288.784 15.8685 289.144 16.0918C289.508 16.3151 289.777 16.6022 289.95 16.9531C290.123 17.304 290.21 17.6823 290.21 18.0879C290.21 18.7259 290.071 19.2614 289.793 19.6943C289.52 20.1273 289.118 20.4531 288.59 20.6719C288.066 20.8906 287.43 21 286.683 21Z" fill="black"/>
<path d="M221.507 52.4902V62H219.178V52.4902H221.507ZM219.02 50.0029C219.02 49.6572 219.137 49.3701 219.371 49.1416C219.611 48.9131 219.934 48.7988 220.338 48.7988C220.742 48.7988 221.062 48.9131 221.296 49.1416C221.536 49.3701 221.656 49.6572 221.656 50.0029C221.656 50.3428 221.536 50.627 221.296 50.8555C221.062 51.084 220.742 51.1982 220.338 51.1982C219.934 51.1982 219.611 51.084 219.371 50.8555C219.137 50.627 219.02 50.3428 219.02 50.0029Z" fill="black"/>
<path d="M228.908 58.5576L226.071 67H224.082L227.801 57.0469H229.072L228.908 58.5576ZM231.28 67L228.43 58.5576L228.259 57.0469H229.537L233.276 67H231.28ZM231.15 63.3018V64.7852H225.812V63.3018H231.15Z" fill="black"/>
<rect x="372" y="75" width="13" height="33" stroke="black" stroke-width="2"/>
<path d="M123.222 3.20312H127.871C128.844 3.20312 129.679 3.34961 130.376 3.64258C131.073 3.93555 131.609 4.36914 131.984 4.94336C132.359 5.51758 132.547 6.22363 132.547 7.06152C132.547 7.72363 132.43 8.29785 132.195 8.78418C131.961 9.27051 131.63 9.67773 131.202 10.0059C130.78 10.334 130.282 10.5918 129.708 10.7793L128.952 11.166H124.848L124.83 9.25879H127.897C128.396 9.25879 128.809 9.1709 129.137 8.99512C129.465 8.81934 129.711 8.57617 129.875 8.26562C130.045 7.95508 130.13 7.60059 130.13 7.20215C130.13 6.77441 130.048 6.40527 129.884 6.09473C129.72 5.77832 129.471 5.53516 129.137 5.36523C128.803 5.19531 128.381 5.11035 127.871 5.11035H125.639V16H123.222V3.20312ZM130.446 16L127.484 10.2695L130.042 10.2607L133.039 15.877V16H130.446Z" fill="black"/>
<path d="M138.366 14.0195V24H136.555V16.1318L134.155 16.9248V15.4619L138.161 14.0195H138.366Z" fill="black"/>
<rect x="114" y="42" width="13" height="33" transform="rotate(-90 114 42)" stroke="black" stroke-width="2"/>
<path d="M363.752 204.494L379.137 184.707L394.329 204.641L363.752 204.494Z" stroke="black" stroke-width="2"/>
<line x1="113" y1="36" x2="30" y2="36" stroke="black" stroke-width="2"/>
</svg>
