<svg width="320" height="258" viewBox="0 0 320 258" fill="none" xmlns="http://www.w3.org/2000/svg">
<line x1="87" y1="28" x2="127" y2="28" stroke="black" stroke-width="2"/>
<line x1="46" y1="159.5" x2="46" y2="119" stroke="black" stroke-width="2"/>
<circle cx="289" cy="28" r="6" stroke="black" stroke-width="2"/>
<circle cx="289" cy="251" r="6" stroke="black" stroke-width="2"/>
<path d="M52.5 251C52.5 254.59 49.5899 257.5 46 257.5C42.4101 257.5 39.5 254.59 39.5 251C39.5 247.41 42.4101 244.5 46 244.5C49.5899 244.5 52.5 247.41 52.5 251Z" fill="black" stroke="black"/>
<path d="M194.5 251C194.5 254.59 191.59 257.5 188 257.5C184.41 257.5 181.5 254.59 181.5 251C181.5 247.41 184.41 244.5 188 244.5C191.59 244.5 194.5 247.41 194.5 251Z" fill="black" stroke="black"/>
<path d="M194.5 29C194.5 32.5899 191.59 35.5 188 35.5C184.41 35.5 181.5 32.5899 181.5 29C181.5 25.4101 184.41 22.5 188 22.5C191.59 22.5 194.5 25.4101 194.5 29Z" fill="black" stroke="black"/>
<path d="M52.5 28C52.5 31.5899 49.5899 34.5 46 34.5C42.4101 34.5 39.5 31.5899 39.5 28C39.5 24.4101 42.4101 21.5 46 21.5C49.5899 21.5 52.5 24.4101 52.5 28Z" fill="black" stroke="black"/>
<line x1="48" y1="28" x2="88" y2="28" stroke="black" stroke-width="2"/>
<line x1="127" y1="28" x2="282" y2="28" stroke="black" stroke-width="2"/>
<line x1="46" y1="251" x2="184" y2="251" stroke="black" stroke-width="2"/>
<line x1="192" y1="251" x2="282" y2="251" stroke="black" stroke-width="2"/>
<line x1="46" y1="253" x2="46" y2="159" stroke="black" stroke-width="2"/>
<line x1="188" y1="246" x2="188" y2="113" stroke="black" stroke-width="2"/>
<line x1="188" y1="72.5" x2="188" y2="35" stroke="black" stroke-width="2"/>
<line x1="46" y1="62.5" x2="46" y2="31" stroke="black" stroke-width="2"/>
<line x1="46" y1="119.5" x2="46" y2="101" stroke="black" stroke-width="2"/>
<path d="M204.5 212C204.5 220.809 197.14 228 188 228C178.86 228 171.5 220.809 171.5 212C171.5 203.191 178.86 196 188 196C197.14 196 204.5 203.191 204.5 212Z" stroke="black" stroke-width="2"/>
<path d="M63 206C63 214.809 55.6402 222 46.5 222C37.3598 222 30 214.809 30 206C30 197.191 37.3598 190 46.5 190C55.6402 190 63 197.191 63 206Z" stroke="black" stroke-width="2"/>
<path d="M289 201L294.774 191H283.226L289 201ZM288 76V192H290V76H288Z" fill="black"/>
<path d="M308.757 138.328L311.771 128.203H314.707L310.251 141H308.317L308.757 138.328ZM305.979 128.203L308.985 138.328L309.442 141H307.491L303.062 128.203H305.979Z" fill="black"/>
<path d="M164 231L169.774 221H158.226L164 231ZM163 195V222H165V195H163Z" fill="black"/>
<path d="M319.458 144.578V146H312.718V144.783L315.951 141.29C316.288 140.907 316.555 140.575 316.751 140.292C316.947 140.009 317.086 139.754 317.168 139.526C317.255 139.294 317.298 139.073 317.298 138.863C317.298 138.558 317.243 138.291 317.134 138.063C317.024 137.831 316.865 137.651 316.655 137.523C316.45 137.396 316.197 137.332 315.896 137.332C315.564 137.332 315.279 137.41 315.042 137.564C314.81 137.715 314.632 137.924 314.509 138.193C314.39 138.462 314.331 138.77 314.331 139.116H312.52C312.52 138.528 312.656 137.993 312.93 137.51C313.203 137.022 313.595 136.632 314.105 136.341C314.616 136.049 315.222 135.903 315.924 135.903C316.607 135.903 317.186 136.017 317.66 136.245C318.134 136.468 318.494 136.787 318.74 137.202C318.986 137.617 319.109 138.111 319.109 138.686C319.109 139.005 319.057 139.319 318.952 139.629C318.847 139.939 318.699 140.246 318.508 140.552C318.321 140.853 318.098 141.158 317.838 141.468C317.578 141.778 317.289 142.094 316.97 142.418L315.028 144.578H319.458Z" fill="black"/>
<path d="M213.757 220.328L216.771 210.203H219.707L215.251 223H213.317L213.757 220.328ZM210.979 210.203L213.985 220.328L214.442 223H212.491L208.062 210.203H210.979Z" fill="black"/>
<path d="M224.458 226.578V228H217.718V226.783L220.951 223.29C221.288 222.907 221.555 222.575 221.751 222.292C221.947 222.009 222.086 221.754 222.168 221.526C222.255 221.294 222.298 221.073 222.298 220.863C222.298 220.558 222.243 220.291 222.134 220.063C222.024 219.831 221.865 219.651 221.655 219.523C221.45 219.396 221.197 219.332 220.896 219.332C220.564 219.332 220.279 219.41 220.042 219.564C219.81 219.715 219.632 219.924 219.509 220.193C219.39 220.462 219.331 220.77 219.331 221.116H217.52C217.52 220.528 217.656 219.993 217.93 219.51C218.203 219.022 218.595 218.632 219.105 218.341C219.616 218.049 220.222 217.903 220.924 217.903C221.607 217.903 222.186 218.017 222.66 218.245C223.134 218.468 223.494 218.787 223.74 219.202C223.986 219.617 224.109 220.111 224.109 220.686C224.109 221.005 224.057 221.319 223.952 221.629C223.847 221.939 223.699 222.246 223.508 222.552C223.321 222.853 223.098 223.158 222.838 223.468C222.578 223.778 222.289 224.094 221.97 224.418L220.028 226.578H224.458Z" fill="black"/>
<path d="M24 232L29.7735 222H18.2265L24 232ZM23 196V223H25V196H23Z" fill="black"/>
<path d="M5.75684 209.328L8.77148 199.203H11.707L7.25098 212H5.31738L5.75684 209.328ZM2.97949 199.203L5.98535 209.328L6.44238 212H4.49121L0.0615234 199.203H2.97949Z" fill="black"/>
<path d="M11.584 211.183V217H9.7793V209.604H11.4746L11.584 211.183ZM11.2969 213.035H10.7637C10.7682 212.497 10.8411 212.01 10.9824 211.572C11.1237 211.135 11.3219 210.759 11.5771 210.444C11.8369 210.13 12.1445 209.888 12.5 209.72C12.8555 209.551 13.252 209.467 13.6895 209.467C14.0449 209.467 14.3662 209.517 14.6533 209.617C14.9404 209.717 15.1865 209.877 15.3916 210.096C15.6012 210.314 15.7607 210.602 15.8701 210.957C15.984 211.308 16.041 211.741 16.041 212.256V217H14.2227V212.242C14.2227 211.905 14.1725 211.638 14.0723 211.442C13.9766 211.246 13.8353 211.107 13.6484 211.025C13.4661 210.943 13.2406 210.902 12.9717 210.902C12.6937 210.902 12.4499 210.959 12.2402 211.073C12.0352 211.183 11.862 211.335 11.7207 211.531C11.584 211.727 11.4792 211.953 11.4062 212.208C11.3333 212.463 11.2969 212.739 11.2969 213.035Z" fill="black"/>
<path d="M205.222 87.2031H209.871C210.844 87.2031 211.679 87.3496 212.376 87.6426C213.073 87.9355 213.609 88.3691 213.984 88.9434C214.359 89.5176 214.547 90.2236 214.547 91.0615C214.547 91.7236 214.43 92.2979 214.195 92.7842C213.961 93.2705 213.63 93.6777 213.202 94.0059C212.78 94.334 212.282 94.5918 211.708 94.7793L210.952 95.166H206.848L206.83 93.2588H209.897C210.396 93.2588 210.809 93.1709 211.137 92.9951C211.465 92.8193 211.711 92.5762 211.875 92.2656C212.045 91.9551 212.13 91.6006 212.13 91.2021C212.13 90.7744 212.048 90.4053 211.884 90.0947C211.72 89.7783 211.471 89.5352 211.137 89.3652C210.803 89.1953 210.381 89.1104 209.871 89.1104H207.639V100H205.222V87.2031ZM212.446 100L209.484 94.2695L212.042 94.2607L215.039 99.877V100H212.446Z" fill="black"/>
<path d="M219.509 105.42L218.066 105.071L218.62 100.047H224.096V101.544H220.117L219.857 103.868C219.999 103.782 220.204 103.695 220.473 103.608C220.746 103.517 221.054 103.472 221.396 103.472C221.869 103.472 222.293 103.549 222.667 103.704C223.041 103.854 223.357 104.073 223.617 104.36C223.882 104.647 224.08 104.998 224.212 105.413C224.349 105.823 224.417 106.288 224.417 106.808C224.417 107.263 224.349 107.692 224.212 108.093C224.08 108.489 223.877 108.842 223.604 109.152C223.33 109.458 222.986 109.699 222.571 109.877C222.157 110.05 221.669 110.137 221.108 110.137C220.685 110.137 220.277 110.075 219.885 109.952C219.497 109.825 219.149 109.64 218.839 109.398C218.529 109.152 218.281 108.852 218.094 108.496C217.911 108.141 217.811 107.733 217.793 107.272H219.577C219.609 107.578 219.691 107.838 219.823 108.052C219.955 108.266 220.129 108.43 220.343 108.544C220.562 108.658 220.814 108.715 221.102 108.715C221.361 108.715 221.585 108.667 221.771 108.571C221.963 108.471 222.12 108.332 222.243 108.154C222.366 107.977 222.457 107.767 222.517 107.525C222.576 107.284 222.605 107.02 222.605 106.732C222.605 106.454 222.571 106.201 222.503 105.974C222.435 105.741 222.33 105.541 222.188 105.372C222.047 105.203 221.869 105.074 221.655 104.982C221.446 104.891 221.2 104.846 220.917 104.846C220.539 104.846 220.247 104.903 220.042 105.017C219.841 105.131 219.664 105.265 219.509 105.42Z" fill="black"/>
<path d="M10.2217 69.2031H14.8711C15.8438 69.2031 16.6787 69.3496 17.376 69.6426C18.0732 69.9355 18.6094 70.3691 18.9844 70.9434C19.3594 71.5176 19.5469 72.2236 19.5469 73.0615C19.5469 73.7236 19.4297 74.2979 19.1953 74.7842C18.9609 75.2705 18.6299 75.6777 18.2021 76.0059C17.7803 76.334 17.2822 76.5918 16.708 76.7793L15.9521 77.166H11.8477L11.8301 75.2588H14.8975C15.3955 75.2588 15.8086 75.1709 16.1367 74.9951C16.4648 74.8193 16.7109 74.5762 16.875 74.2656C17.0449 73.9551 17.1299 73.6006 17.1299 73.2021C17.1299 72.7744 17.0479 72.4053 16.8838 72.0947C16.7197 71.7783 16.4707 71.5352 16.1367 71.3652C15.8027 71.1953 15.3809 71.1104 14.8711 71.1104H12.6387V82H10.2217V69.2031ZM17.4463 82L14.4844 76.2695L17.042 76.2607L20.0391 81.877V82H17.4463Z" fill="black"/>
<path d="M24.584 86.1826V92H22.7793V84.6035H24.4746L24.584 86.1826ZM24.2969 88.0352H23.7637C23.7682 87.4974 23.8411 87.0098 23.9824 86.5723C24.1237 86.1348 24.3219 85.7588 24.5771 85.4443C24.8369 85.1299 25.1445 84.8883 25.5 84.7197C25.8555 84.5511 26.252 84.4668 26.6895 84.4668C27.0449 84.4668 27.3662 84.5169 27.6533 84.6172C27.9404 84.7174 28.1865 84.877 28.3916 85.0957C28.6012 85.3145 28.7607 85.6016 28.8701 85.957C28.984 86.3079 29.041 86.7409 29.041 87.2559V92H27.2227V87.2422C27.2227 86.9049 27.1725 86.6383 27.0723 86.4424C26.9766 86.2464 26.8353 86.1074 26.6484 86.0254C26.4661 85.9434 26.2406 85.9023 25.9717 85.9023C25.6937 85.9023 25.4499 85.9593 25.2402 86.0732C25.0352 86.1826 24.862 86.3353 24.7207 86.5312C24.584 86.7272 24.4792 86.9528 24.4062 87.208C24.3333 87.4632 24.2969 87.7389 24.2969 88.0352Z" fill="black"/>
<rect x="38" y="62" width="16" height="39" stroke="black" stroke-width="2"/>
<rect x="180" y="73" width="16" height="39" stroke="black" stroke-width="2"/>
<path d="M46.4141 3.52734L41.5508 18H38.1406L44.5156 0.9375H46.6953L46.4141 3.52734ZM50.4805 18L45.5938 3.52734L45.3008 0.9375H47.4922L53.9023 18H50.4805ZM50.2578 11.6602V14.2031H41.1055V11.6602H50.2578Z" fill="black"/>
<path d="M131.797 118.203V131H129.38V118.203H131.797Z" fill="black"/>
<path d="M142.458 136.578V138H135.718V136.783L138.951 133.29C139.288 132.907 139.555 132.575 139.751 132.292C139.947 132.009 140.086 131.754 140.168 131.526C140.255 131.294 140.298 131.073 140.298 130.863C140.298 130.558 140.243 130.291 140.134 130.063C140.024 129.831 139.865 129.651 139.655 129.523C139.45 129.396 139.197 129.332 138.896 129.332C138.564 129.332 138.279 129.41 138.042 129.564C137.81 129.715 137.632 129.924 137.509 130.193C137.39 130.462 137.331 130.77 137.331 131.116H135.52C135.52 130.528 135.656 129.993 135.93 129.51C136.203 129.022 136.595 128.632 137.105 128.341C137.616 128.049 138.222 127.903 138.924 127.903C139.607 127.903 140.186 128.017 140.66 128.245C141.134 128.468 141.494 128.787 141.74 129.202C141.986 129.617 142.109 130.111 142.109 130.686C142.109 131.005 142.057 131.319 141.952 131.629C141.847 131.939 141.699 132.246 141.508 132.552C141.321 132.853 141.098 133.158 140.838 133.468C140.578 133.778 140.289 134.094 139.97 134.418L138.028 136.578H142.458Z" fill="black"/>
<path d="M113 207L124.419 205.286L117.226 196.254L113 207ZM120.685 202.157C152.327 175.207 158.119 144.533 153.689 118.811C151.478 105.975 146.728 94.3896 141.408 85.1204C136.096 75.8654 130.182 68.859 125.595 65.2169L124.351 66.7831C128.679 70.2195 134.442 77.0013 139.673 86.1159C144.896 95.2162 149.553 106.581 151.718 119.15C156.038 144.236 150.448 174.18 119.388 200.634L120.685 202.157Z" fill="black"/>
</svg>
