<svg width="455" height="273" viewBox="0 0 455 273" fill="none" xmlns="http://www.w3.org/2000/svg">
<path d="M99.7969 144.203V157H97.3799V144.203H99.7969Z" fill="black"/>
<circle cx="28" cy="43" r="6" stroke="black" stroke-width="2"/>
<circle cx="424" cy="42" r="6" stroke="black" stroke-width="2"/>
<circle cx="424" cy="265" r="6" stroke="black" stroke-width="2"/>
<circle cx="28" cy="266" r="6" stroke="black" stroke-width="2"/>
<path d="M187.5 265C187.5 268.59 184.59 271.5 181 271.5C177.41 271.5 174.5 268.59 174.5 265C174.5 261.41 177.41 258.5 181 258.5C184.59 258.5 187.5 261.41 187.5 265Z" fill="black" stroke="black"/>
<path d="M187.5 42C187.5 45.5899 184.59 48.5 181 48.5C177.41 48.5 174.5 45.5899 174.5 42C174.5 38.4101 177.41 35.5 181 35.5C184.59 35.5 187.5 38.4101 187.5 42Z" fill="black" stroke="black"/>
<line x1="35" y1="42" x2="85" y2="42" stroke="black" stroke-width="2"/>
<line x1="125" y1="42" x2="175" y2="42" stroke="black" stroke-width="2"/>
<line x1="183" y1="42" x2="247" y2="42" stroke="black" stroke-width="2"/>
<line x1="288" y1="42" x2="418" y2="42" stroke="black" stroke-width="2"/>
<line x1="35" y1="265" x2="185" y2="265" stroke="black" stroke-width="2"/>
<line x1="181" y1="265" x2="319" y2="265" stroke="black" stroke-width="2"/>
<line x1="319" y1="265" x2="417" y2="265" stroke="black" stroke-width="2"/>
<line x1="181" y1="267" x2="181" y2="173" stroke="black" stroke-width="2"/>
<line x1="181" y1="76.5" x2="181" y2="45" stroke="black" stroke-width="2"/>
<line x1="181" y1="133.5" x2="181" y2="115" stroke="black" stroke-width="2"/>
<path d="M28 216L33.7735 206H22.2265L28 216ZM27 91L27 207H29L29 91H27Z" fill="black"/>
<path d="M198 220C198 228.809 190.64 236 181.5 236C172.36 236 165 228.809 165 220C165 211.191 172.36 204 181.5 204C190.64 204 198 211.191 198 220Z" stroke="black" stroke-width="2"/>
<path d="M5.75684 149.328L8.77148 139.203H11.707L7.25098 152H5.31738L5.75684 149.328ZM2.97949 139.203L5.98535 149.328L6.44238 152H4.49121L0.0615234 139.203H2.97949Z" fill="black"/>
<path d="M424 215L429.774 205H418.226L424 215ZM423 90V206H425V90H423Z" fill="black"/>
<path d="M443.757 152.328L446.771 142.203H449.707L445.251 155H443.317L443.757 152.328ZM440.979 142.203L443.985 152.328L444.442 155H442.491L438.062 142.203H440.979Z" fill="black"/>
<path d="M227 206L221.226 216H232.774L227 206ZM228 242V215H226V242H228Z" fill="black"/>
<path d="M227 28L217 22.2265V33.7735L227 28ZM191 29H218V27H191V29Z" fill="black"/>
<path d="M454.458 158.578V160H447.718V158.783L450.951 155.29C451.288 154.907 451.555 154.575 451.751 154.292C451.947 154.009 452.086 153.754 452.168 153.526C452.255 153.294 452.298 153.073 452.298 152.863C452.298 152.558 452.243 152.291 452.134 152.063C452.024 151.831 451.865 151.651 451.655 151.523C451.45 151.396 451.197 151.332 450.896 151.332C450.564 151.332 450.279 151.41 450.042 151.564C449.81 151.715 449.632 151.924 449.509 152.193C449.39 152.462 449.331 152.77 449.331 153.116H447.52C447.52 152.528 447.656 151.993 447.93 151.51C448.203 151.022 448.595 150.632 449.105 150.341C449.616 150.049 450.222 149.903 450.924 149.903C451.607 149.903 452.186 150.017 452.66 150.245C453.134 150.468 453.494 150.787 453.74 151.202C453.986 151.617 454.109 152.111 454.109 152.686C454.109 153.005 454.057 153.319 453.952 153.629C453.847 153.939 453.699 154.246 453.508 154.552C453.321 154.853 453.098 155.158 452.838 155.468C452.578 155.778 452.289 156.094 451.97 156.418L450.028 158.578H454.458Z" fill="black"/>
<path d="M209.757 230.328L212.771 220.203H215.707L211.251 233H209.317L209.757 230.328ZM206.979 220.203L209.985 230.328L210.442 233H208.491L204.062 220.203H206.979Z" fill="black"/>
<path d="M218.366 228.02V238H216.555V230.132L214.155 230.925V229.462L218.161 228.02H218.366Z" fill="black"/>
<path d="M14.3662 149.02V159H12.5547V151.132L10.1553 151.925V150.462L14.1611 149.02H14.3662Z" fill="black"/>
<path d="M257.222 7.20312H261.871C262.844 7.20312 263.679 7.34961 264.376 7.64258C265.073 7.93555 265.609 8.36914 265.984 8.94336C266.359 9.51758 266.547 10.2236 266.547 11.0615C266.547 11.7236 266.43 12.2979 266.195 12.7842C265.961 13.2705 265.63 13.6777 265.202 14.0059C264.78 14.334 264.282 14.5918 263.708 14.7793L262.952 15.166H258.848L258.83 13.2588H261.897C262.396 13.2588 262.809 13.1709 263.137 12.9951C263.465 12.8193 263.711 12.5762 263.875 12.2656C264.045 11.9551 264.13 11.6006 264.13 11.2021C264.13 10.7744 264.048 10.4053 263.884 10.0947C263.72 9.77832 263.471 9.53516 263.137 9.36523C262.803 9.19531 262.381 9.11035 261.871 9.11035H259.639V20H257.222V7.20312ZM264.446 20L261.484 14.2695L264.042 14.2607L267.039 19.877V20H264.446Z" fill="black"/>
<path d="M191.507 4.49023V14H189.178V4.49023H191.507ZM189.02 2.00293C189.02 1.65723 189.137 1.37012 189.371 1.1416C189.611 0.913086 189.934 0.798828 190.338 0.798828C190.742 0.798828 191.062 0.913086 191.296 1.1416C191.536 1.37012 191.656 1.65723 191.656 2.00293C191.656 2.34277 191.536 2.62695 191.296 2.85547C191.062 3.08398 190.742 3.19824 190.338 3.19824C189.934 3.19824 189.611 3.08398 189.371 2.85547C189.137 2.62695 189.02 2.34277 189.02 2.00293Z" fill="black"/>
<path d="M199.899 7.16797V20H197.57V9.88379L194.485 10.9033V9.02246L199.636 7.16797H199.899Z" fill="black"/>
<path d="M276.629 26.3701V27.792H269.458L269.383 26.6982L273.601 20.0469H275.043L273.484 22.6924L271.222 26.3701H276.629ZM275.446 20.0469V30H273.635V20.0469H275.446Z" fill="black"/>
<path d="M145.222 138.203H149.871C150.844 138.203 151.679 138.35 152.376 138.643C153.073 138.936 153.609 139.369 153.984 139.943C154.359 140.518 154.547 141.224 154.547 142.062C154.547 142.724 154.43 143.298 154.195 143.784C153.961 144.271 153.63 144.678 153.202 145.006C152.78 145.334 152.282 145.592 151.708 145.779L150.952 146.166H146.848L146.83 144.259H149.897C150.396 144.259 150.809 144.171 151.137 143.995C151.465 143.819 151.711 143.576 151.875 143.266C152.045 142.955 152.13 142.601 152.13 142.202C152.13 141.774 152.048 141.405 151.884 141.095C151.72 140.778 151.471 140.535 151.137 140.365C150.803 140.195 150.381 140.11 149.871 140.11H147.639V151H145.222V138.203ZM152.446 151L149.484 145.27L152.042 145.261L155.039 150.877V151H152.446Z" fill="black"/>
<path d="M159.693 155.224H160.712C161.072 155.224 161.368 155.162 161.601 155.039C161.838 154.911 162.013 154.738 162.127 154.52C162.245 154.296 162.305 154.039 162.305 153.747C162.305 153.46 162.252 153.212 162.147 153.002C162.043 152.788 161.883 152.624 161.669 152.51C161.459 152.391 161.19 152.332 160.862 152.332C160.598 152.332 160.354 152.384 160.131 152.489C159.912 152.594 159.737 152.744 159.604 152.94C159.477 153.132 159.413 153.362 159.413 153.631H157.602C157.602 153.093 157.743 152.621 158.025 152.216C158.312 151.806 158.7 151.484 159.188 151.252C159.675 151.02 160.22 150.903 160.821 150.903C161.478 150.903 162.052 151.013 162.544 151.231C163.041 151.446 163.426 151.762 163.699 152.182C163.977 152.601 164.116 153.12 164.116 153.74C164.116 154.036 164.046 154.333 163.904 154.629C163.768 154.921 163.565 155.185 163.296 155.422C163.032 155.654 162.706 155.843 162.318 155.989C161.936 156.131 161.496 156.201 160.999 156.201H159.693V155.224ZM159.693 156.618V155.654H160.999C161.56 155.654 162.045 155.72 162.455 155.853C162.87 155.98 163.212 156.162 163.48 156.399C163.749 156.632 163.948 156.903 164.075 157.213C164.207 157.523 164.273 157.855 164.273 158.211C164.273 158.676 164.187 159.09 164.014 159.455C163.84 159.815 163.597 160.12 163.282 160.371C162.972 160.622 162.608 160.813 162.188 160.945C161.769 161.073 161.316 161.137 160.828 161.137C160.404 161.137 159.992 161.08 159.591 160.966C159.194 160.847 158.837 160.672 158.518 160.439C158.199 160.202 157.946 159.906 157.759 159.551C157.572 159.191 157.479 158.774 157.479 158.3H159.29C159.29 158.573 159.356 158.817 159.488 159.031C159.625 159.245 159.812 159.414 160.049 159.537C160.29 159.656 160.562 159.715 160.862 159.715C161.195 159.715 161.48 159.656 161.717 159.537C161.958 159.414 162.143 159.241 162.271 159.018C162.398 158.79 162.462 158.519 162.462 158.204C162.462 157.83 162.391 157.527 162.25 157.295C162.109 157.062 161.906 156.892 161.642 156.782C161.382 156.673 161.072 156.618 160.712 156.618H159.693Z" fill="black"/>
<path d="M196.222 84.2031H200.871C201.844 84.2031 202.679 84.3496 203.376 84.6426C204.073 84.9355 204.609 85.3691 204.984 85.9434C205.359 86.5176 205.547 87.2236 205.547 88.0615C205.547 88.7236 205.43 89.2979 205.195 89.7842C204.961 90.2705 204.63 90.6777 204.202 91.0059C203.78 91.334 203.282 91.5918 202.708 91.7793L201.952 92.166H197.848L197.83 90.2588H200.897C201.396 90.2588 201.809 90.1709 202.137 89.9951C202.465 89.8193 202.711 89.5762 202.875 89.2656C203.045 88.9551 203.13 88.6006 203.13 88.2021C203.13 87.7744 203.048 87.4053 202.884 87.0947C202.72 86.7783 202.471 86.5352 202.137 86.3652C201.803 86.1953 201.381 86.1104 200.871 86.1104H198.639V97H196.222V84.2031ZM203.446 97L200.484 91.2695L203.042 91.2607L206.039 96.877V97H203.446Z" fill="black"/>
<path d="M215.458 105.578V107H208.718V105.783L211.951 102.29C212.288 101.907 212.555 101.575 212.751 101.292C212.947 101.009 213.086 100.754 213.168 100.526C213.255 100.294 213.298 100.073 213.298 99.8633C213.298 99.5579 213.243 99.2913 213.134 99.0635C213.024 98.8311 212.865 98.651 212.655 98.5234C212.45 98.3958 212.197 98.332 211.896 98.332C211.564 98.332 211.279 98.4095 211.042 98.5645C210.81 98.7148 210.632 98.9245 210.509 99.1934C210.39 99.4622 210.331 99.7699 210.331 100.116H208.52C208.52 99.5283 208.656 98.9928 208.93 98.5098C209.203 98.0221 209.595 97.6325 210.105 97.3408C210.616 97.0492 211.222 96.9033 211.924 96.9033C212.607 96.9033 213.186 97.0173 213.66 97.2451C214.134 97.4684 214.494 97.7874 214.74 98.2021C214.986 98.6169 215.109 99.1113 215.109 99.6855C215.109 100.005 215.057 100.319 214.952 100.629C214.847 100.939 214.699 101.246 214.508 101.552C214.321 101.853 214.098 102.158 213.838 102.468C213.578 102.778 213.289 103.094 212.97 103.418L211.028 105.578H215.458Z" fill="black"/>
<path d="M94.2217 5.20312H98.8711C99.8438 5.20312 100.679 5.34961 101.376 5.64258C102.073 5.93555 102.609 6.36914 102.984 6.94336C103.359 7.51758 103.547 8.22363 103.547 9.06152C103.547 9.72363 103.43 10.2979 103.195 10.7842C102.961 11.2705 102.63 11.6777 102.202 12.0059C101.78 12.334 101.282 12.5918 100.708 12.7793L99.9521 13.166H95.8477L95.8301 11.2588H98.8975C99.3955 11.2588 99.8086 11.1709 100.137 10.9951C100.465 10.8193 100.711 10.5762 100.875 10.2656C101.045 9.95508 101.13 9.60059 101.13 9.20215C101.13 8.77441 101.048 8.40527 100.884 8.09473C100.72 7.77832 100.471 7.53516 100.137 7.36523C99.8027 7.19531 99.3809 7.11035 98.8711 7.11035H96.6387V18H94.2217V5.20312ZM101.446 18L98.4844 12.2695L101.042 12.2607L104.039 17.877V18H101.446Z" fill="black"/>
<path d="M111.366 18.0195V28H109.555V20.1318L107.155 20.9248V19.4619L111.161 18.0195H111.366Z" fill="black"/>
<rect x="173" y="76" width="16" height="39" stroke="black" stroke-width="2"/>
<rect x="173" y="133" width="16" height="39" stroke="black" stroke-width="2"/>
<rect x="86" y="49" width="15" height="39" transform="rotate(-90 86 49)" stroke="black" stroke-width="2"/>
<rect x="248" y="49" width="15" height="39" transform="rotate(-90 248 49)" stroke="black" stroke-width="2"/>
<path d="M77 226L88.4191 224.286L81.2255 215.254L77 226ZM84.6853 221.157C116.327 194.207 122.119 163.533 117.689 137.811C115.478 124.975 110.728 113.39 105.408 104.12C100.096 94.8654 94.1817 87.859 89.595 84.2169L88.3513 85.7831C92.6789 89.2195 98.4421 96.0013 103.673 105.116C108.896 114.216 113.553 125.581 115.718 138.15C120.038 163.236 114.448 193.18 83.3885 219.634L84.6853 221.157Z" fill="black"/>
<path d="M211.982 8.39551V10.2676H204.222V8.39551H211.982ZM211.982 12.1572V14.0293H204.222V12.1572H211.982ZM227.108 9.50293V11.6562C227.108 12.6406 227.009 13.4814 226.81 14.1787C226.61 14.876 226.323 15.4473 225.948 15.8926C225.573 16.332 225.125 16.6572 224.604 16.8682C224.082 17.0732 223.502 17.1758 222.863 17.1758C222.354 17.1758 221.879 17.1113 221.439 16.9824C221 16.8477 220.604 16.6426 220.253 16.3672C219.907 16.0859 219.608 15.7285 219.356 15.2949C219.11 14.8613 218.92 14.3428 218.785 13.7393C218.656 13.1357 218.592 12.4414 218.592 11.6562V9.50293C218.592 8.51855 218.691 7.68066 218.891 6.98926C219.096 6.29785 219.386 5.73242 219.761 5.29297C220.136 4.85352 220.584 4.53418 221.105 4.33496C221.627 4.12988 222.207 4.02734 222.846 4.02734C223.361 4.02734 223.836 4.0918 224.27 4.2207C224.709 4.34961 225.102 4.55176 225.447 4.82715C225.799 5.09668 226.098 5.44824 226.344 5.88184C226.59 6.30957 226.777 6.8252 226.906 7.42871C227.041 8.02637 227.108 8.71777 227.108 9.50293ZM224.788 11.9727V9.17773C224.788 8.68555 224.759 8.25781 224.7 7.89453C224.647 7.52539 224.568 7.21191 224.463 6.9541C224.357 6.69629 224.226 6.48828 224.067 6.33008C223.909 6.16602 223.728 6.0459 223.522 5.96973C223.317 5.89355 223.092 5.85547 222.846 5.85547C222.541 5.85547 222.269 5.91699 222.028 6.04004C221.788 6.15723 221.586 6.34473 221.422 6.60254C221.258 6.86035 221.132 7.20312 221.044 7.63086C220.962 8.05273 220.921 8.56836 220.921 9.17773V11.9727C220.921 12.4648 220.947 12.8955 221 13.2646C221.059 13.6338 221.141 13.9502 221.246 14.2139C221.357 14.4775 221.489 14.6943 221.642 14.8643C221.8 15.0283 221.981 15.1514 222.187 15.2334C222.392 15.3096 222.617 15.3477 222.863 15.3477C223.174 15.3477 223.446 15.2861 223.681 15.1631C223.921 15.04 224.123 14.8467 224.287 14.583C224.451 14.3135 224.574 13.9648 224.656 13.5371C224.744 13.1035 224.788 12.582 224.788 11.9727Z" fill="black"/>
</svg>
