<svg width="455" height="327" viewBox="0 0 455 327" fill="none" xmlns="http://www.w3.org/2000/svg">
<path d="M256.5 295C256.5 298.59 253.59 301.5 250 301.5C246.41 301.5 243.5 298.59 243.5 295C243.5 291.41 246.41 288.5 250 288.5C253.59 288.5 256.5 291.41 256.5 295Z" fill="black" stroke="black"/>
<path d="M187.5 212C187.5 215.59 184.59 218.5 181 218.5C177.41 218.5 174.5 215.59 174.5 212C174.5 208.41 177.41 205.5 181 205.5C184.59 205.5 187.5 208.41 187.5 212Z" fill="black" stroke="black"/>
<line x1="185" y1="211" x2="251" y2="211" stroke="black" stroke-width="2"/>
<line x1="250" y1="294.5" x2="250" y2="269.5" stroke="black" stroke-width="2"/>
<line x1="250" y1="237.5" x2="250" y2="211.5" stroke="black" stroke-width="2"/>
<line x1="234" y1="253.5" x2="267" y2="253.5" stroke="black" stroke-width="2"/>
<path d="M267 253.5C267 262.309 259.64 269.5 250.5 269.5C241.36 269.5 234 262.309 234 253.5C234 244.691 241.36 237.5 250.5 237.5C259.64 237.5 267 244.691 267 253.5Z" stroke="black" stroke-width="2"/>
<path d="M274 275.5L279.774 265.5H268.226L274 275.5ZM273 240.5V266.5H275V240.5H273Z" fill="black"/>
<path d="M284.797 246.703V259.5H282.38V246.703H284.797Z" fill="black"/>
<path d="M295.308 259.669V261.344C295.308 262.109 295.23 262.763 295.075 263.306C294.92 263.848 294.697 264.292 294.405 264.639C294.114 264.98 293.765 265.233 293.359 265.397C292.954 265.557 292.503 265.637 292.006 265.637C291.609 265.637 291.24 265.587 290.898 265.486C290.557 265.382 290.249 265.222 289.976 265.008C289.707 264.789 289.474 264.511 289.278 264.174C289.087 263.837 288.939 263.433 288.834 262.964C288.734 262.494 288.684 261.954 288.684 261.344V259.669C288.684 258.903 288.761 258.252 288.916 257.714C289.076 257.176 289.301 256.736 289.593 256.395C289.884 256.053 290.233 255.804 290.639 255.649C291.044 255.49 291.495 255.41 291.992 255.41C292.393 255.41 292.762 255.46 293.1 255.561C293.441 255.661 293.747 255.818 294.016 256.032C294.289 256.242 294.521 256.515 294.713 256.853C294.904 257.185 295.05 257.586 295.15 258.056C295.255 258.521 295.308 259.058 295.308 259.669ZM293.503 261.59V259.416C293.503 259.033 293.48 258.701 293.435 258.418C293.394 258.131 293.332 257.887 293.25 257.687C293.168 257.486 293.065 257.324 292.942 257.201C292.819 257.074 292.678 256.98 292.519 256.921C292.359 256.862 292.184 256.832 291.992 256.832C291.755 256.832 291.543 256.88 291.356 256.976C291.17 257.067 291.012 257.213 290.885 257.413C290.757 257.614 290.659 257.88 290.591 258.213C290.527 258.541 290.495 258.942 290.495 259.416V261.59C290.495 261.973 290.516 262.308 290.557 262.595C290.602 262.882 290.666 263.128 290.748 263.333C290.835 263.538 290.937 263.707 291.056 263.839C291.179 263.966 291.32 264.062 291.479 264.126C291.639 264.185 291.814 264.215 292.006 264.215C292.247 264.215 292.459 264.167 292.642 264.071C292.828 263.976 292.986 263.825 293.113 263.62C293.241 263.41 293.337 263.139 293.4 262.807C293.469 262.469 293.503 262.064 293.503 261.59Z" fill="black"/>
<path d="M73.7969 165.203V178H71.3799V165.203H73.7969Z" fill="black"/>
<path d="M82.3662 175.02V185H80.5547V177.132L78.1553 177.925V176.462L82.1611 175.02H82.3662Z" fill="black"/>
<path d="M148.222 238.203H152.871C153.844 238.203 154.679 238.35 155.376 238.643C156.073 238.936 156.609 239.369 156.984 239.943C157.359 240.518 157.547 241.224 157.547 242.062C157.547 242.724 157.43 243.298 157.195 243.784C156.961 244.271 156.63 244.678 156.202 245.006C155.78 245.334 155.282 245.592 154.708 245.779L153.952 246.166H149.848L149.83 244.259H152.897C153.396 244.259 153.809 244.171 154.137 243.995C154.465 243.819 154.711 243.576 154.875 243.266C155.045 242.955 155.13 242.601 155.13 242.202C155.13 241.774 155.048 241.405 154.884 241.095C154.72 240.778 154.471 240.535 154.137 240.365C153.803 240.195 153.381 240.11 152.871 240.11H150.639V251H148.222V238.203ZM155.446 251L152.484 245.27L155.042 245.261L158.039 250.877V251H155.446Z" fill="black"/>
<path d="M162.693 255.224H163.712C164.072 255.224 164.368 255.162 164.601 255.039C164.838 254.911 165.013 254.738 165.127 254.52C165.245 254.296 165.305 254.039 165.305 253.747C165.305 253.46 165.252 253.212 165.147 253.002C165.043 252.788 164.883 252.624 164.669 252.51C164.459 252.391 164.19 252.332 163.862 252.332C163.598 252.332 163.354 252.384 163.131 252.489C162.912 252.594 162.737 252.744 162.604 252.94C162.477 253.132 162.413 253.362 162.413 253.631H160.602C160.602 253.093 160.743 252.621 161.025 252.216C161.312 251.806 161.7 251.484 162.188 251.252C162.675 251.02 163.22 250.903 163.821 250.903C164.478 250.903 165.052 251.013 165.544 251.231C166.041 251.446 166.426 251.762 166.699 252.182C166.977 252.601 167.116 253.12 167.116 253.74C167.116 254.036 167.046 254.333 166.904 254.629C166.768 254.921 166.565 255.185 166.296 255.422C166.032 255.654 165.706 255.843 165.318 255.989C164.936 256.131 164.496 256.201 163.999 256.201H162.693V255.224ZM162.693 256.618V255.654H163.999C164.56 255.654 165.045 255.72 165.455 255.853C165.87 255.98 166.212 256.162 166.48 256.399C166.749 256.632 166.948 256.903 167.075 257.213C167.207 257.523 167.273 257.855 167.273 258.211C167.273 258.676 167.187 259.09 167.014 259.455C166.84 259.815 166.597 260.12 166.282 260.371C165.972 260.622 165.608 260.813 165.188 260.945C164.769 261.073 164.316 261.137 163.828 261.137C163.404 261.137 162.992 261.08 162.591 260.966C162.194 260.847 161.837 260.672 161.518 260.439C161.199 260.202 160.946 259.906 160.759 259.551C160.572 259.191 160.479 258.774 160.479 258.3H162.29C162.29 258.573 162.356 258.817 162.488 259.031C162.625 259.245 162.812 259.414 163.049 259.537C163.29 259.656 163.562 259.715 163.862 259.715C164.195 259.715 164.48 259.656 164.717 259.537C164.958 259.414 165.143 259.241 165.271 259.018C165.398 258.79 165.462 258.519 165.462 258.204C165.462 257.83 165.391 257.527 165.25 257.295C165.109 257.062 164.906 256.892 164.642 256.782C164.382 256.673 164.072 256.618 163.712 256.618H162.693Z" fill="black"/>
<rect x="173" y="230" width="16" height="39" stroke="black" stroke-width="2"/>
<circle cx="28" cy="73" r="6" stroke="black" stroke-width="2"/>
<circle cx="424" cy="72" r="6" stroke="black" stroke-width="2"/>
<circle cx="291" cy="72" r="6" stroke="black" stroke-width="2"/>
<circle cx="291" cy="295" r="6" stroke="black" stroke-width="2"/>
<circle cx="424" cy="295" r="6" stroke="black" stroke-width="2"/>
<circle cx="28" cy="296" r="6" stroke="black" stroke-width="2"/>
<path d="M187.5 295C187.5 298.59 184.59 301.5 181 301.5C177.41 301.5 174.5 298.59 174.5 295C174.5 291.41 177.41 288.5 181 288.5C184.59 288.5 187.5 291.41 187.5 295Z" fill="black" stroke="black"/>
<path d="M329.5 295C329.5 298.59 326.59 301.5 323 301.5C319.41 301.5 316.5 298.59 316.5 295C316.5 291.41 319.41 288.5 323 288.5C326.59 288.5 329.5 291.41 329.5 295Z" fill="black" stroke="black"/>
<path d="M329.5 73C329.5 76.5899 326.59 79.5 323 79.5C319.41 79.5 316.5 76.5899 316.5 73C316.5 69.4101 319.41 66.5 323 66.5C326.59 66.5 329.5 69.4101 329.5 73Z" fill="black" stroke="black"/>
<path d="M187.5 72C187.5 75.5899 184.59 78.5 181 78.5C177.41 78.5 174.5 75.5899 174.5 72C174.5 68.4101 177.41 65.5 181 65.5C184.59 65.5 187.5 68.4101 187.5 72Z" fill="black" stroke="black"/>
<line x1="35" y1="72" x2="85" y2="72" stroke="black" stroke-width="2"/>
<line x1="125" y1="72" x2="175" y2="72" stroke="black" stroke-width="2"/>
<line x1="183" y1="72" x2="223" y2="72" stroke="black" stroke-width="2"/>
<line x1="262" y1="72" x2="417" y2="72" stroke="black" stroke-width="2"/>
<line x1="35" y1="295" x2="185" y2="295" stroke="black" stroke-width="2"/>
<line x1="181" y1="295" x2="319" y2="295" stroke="black" stroke-width="2"/>
<line x1="327" y1="295" x2="417" y2="295" stroke="black" stroke-width="2"/>
<line x1="181" y1="297" x2="181" y2="203" stroke="black" stroke-width="2"/>
<line x1="323" y1="290" x2="323" y2="157" stroke="black" stroke-width="2"/>
<line x1="323" y1="116.5" x2="323" y2="79" stroke="black" stroke-width="2"/>
<line x1="181" y1="106.5" x2="181" y2="75" stroke="black" stroke-width="2"/>
<line x1="181" y1="163.5" x2="181" y2="145" stroke="black" stroke-width="2"/>
<line x1="307" y1="207" x2="340" y2="207" stroke="black" stroke-width="2"/>
<path d="M28 246L33.7735 236H22.2265L28 246ZM27 121L27 237H29L29 121H27Z" fill="black"/>
<path d="M339.5 256C339.5 264.809 332.14 272 323 272C313.86 272 306.5 264.809 306.5 256C306.5 247.191 313.86 240 323 240C332.14 240 339.5 247.191 339.5 256Z" stroke="black" stroke-width="2"/>
<path d="M198 250C198 258.809 190.64 266 181.5 266C172.36 266 165 258.809 165 250C165 241.191 172.36 234 181.5 234C190.64 234 198 241.191 198 250Z" stroke="black" stroke-width="2"/>
<path d="M198 36C198 44.8094 190.64 52 181.5 52C172.36 52 165 44.8094 165 36C165 27.1906 172.36 20 181.5 20C190.64 20 198 27.1906 198 36Z" stroke="black" stroke-width="2"/>
<path d="M5.75684 179.328L8.77148 169.203H11.707L7.25098 182H5.31738L5.75684 179.328ZM2.97949 169.203L5.98535 179.328L6.44238 182H4.49121L0.0615234 169.203H2.97949Z" fill="black"/>
<path d="M424 245L429.774 235H418.226L424 245ZM423 120V236H425V120H423Z" fill="black"/>
<path d="M443.757 182.328L446.771 172.203H449.707L445.251 185H443.317L443.757 182.328ZM440.979 172.203L443.985 182.328L444.442 185H442.491L438.062 172.203H440.979Z" fill="black"/>
<path d="M48 6L38 0.226497V11.7735L48 6ZM0 7H39V5H0L0 7Z" fill="#FF0000"/>
<path d="M352 210L357.774 200H346.226L352 210ZM351 174V201H353V174H351Z" fill="black"/>
<path d="M299 275L304.774 265H293.226L299 275ZM298 239V266H300V239H298Z" fill="black"/>
<path d="M227 236L221.226 246H232.774L227 236ZM228 272V245H226V272H228Z" fill="black"/>
<path d="M454.458 188.578V190H447.718V188.783L450.951 185.29C451.288 184.907 451.555 184.575 451.751 184.292C451.947 184.009 452.086 183.754 452.168 183.526C452.255 183.294 452.298 183.073 452.298 182.863C452.298 182.558 452.243 182.291 452.134 182.063C452.024 181.831 451.865 181.651 451.655 181.523C451.45 181.396 451.197 181.332 450.896 181.332C450.564 181.332 450.279 181.41 450.042 181.564C449.81 181.715 449.632 181.924 449.509 182.193C449.39 182.462 449.331 182.77 449.331 183.116H447.52C447.52 182.528 447.656 181.993 447.93 181.51C448.203 181.022 448.595 180.632 449.105 180.341C449.616 180.049 450.222 179.903 450.924 179.903C451.607 179.903 452.186 180.017 452.66 180.245C453.134 180.468 453.494 180.787 453.74 181.202C453.986 181.617 454.109 182.111 454.109 182.686C454.109 183.005 454.057 183.319 453.952 183.629C453.847 183.939 453.699 184.246 453.508 184.552C453.321 184.853 453.098 185.158 452.838 185.468C452.578 185.778 452.289 186.094 451.97 186.418L450.028 188.578H454.458Z" fill="black"/>
<path d="M348.757 264.328L351.771 254.203H354.707L350.251 267H348.317L348.757 264.328ZM345.979 254.203L348.985 264.328L349.442 267H347.491L343.062 254.203H345.979Z" fill="black"/>
<path d="M359.458 270.578V272H352.718V270.783L355.951 267.29C356.288 266.907 356.555 266.575 356.751 266.292C356.947 266.009 357.086 265.754 357.168 265.526C357.255 265.294 357.298 265.073 357.298 264.863C357.298 264.558 357.243 264.291 357.134 264.063C357.024 263.831 356.865 263.651 356.655 263.523C356.45 263.396 356.197 263.332 355.896 263.332C355.564 263.332 355.279 263.41 355.042 263.564C354.81 263.715 354.632 263.924 354.509 264.193C354.39 264.462 354.331 264.77 354.331 265.116H352.52C352.52 264.528 352.656 263.993 352.93 263.51C353.203 263.022 353.595 262.632 354.105 262.341C354.616 262.049 355.222 261.903 355.924 261.903C356.607 261.903 357.186 262.017 357.66 262.245C358.134 262.468 358.494 262.787 358.74 263.202C358.986 263.617 359.109 264.111 359.109 264.686C359.109 265.005 359.057 265.319 358.952 265.629C358.847 265.939 358.699 266.246 358.508 266.552C358.321 266.853 358.098 267.158 357.838 267.468C357.578 267.778 357.289 268.094 356.97 268.418L355.028 270.578H359.458Z" fill="black"/>
<path d="M209.757 260.328L212.771 250.203H215.707L211.251 263H209.317L209.757 260.328ZM206.979 250.203L209.985 260.328L210.442 263H208.491L204.062 250.203H206.979Z" fill="black"/>
<path d="M218.366 258.02V268H216.555V260.132L214.155 260.925V259.462L218.161 258.02H218.366Z" fill="black"/>
<path d="M128.757 281.328L131.771 271.203H134.707L130.251 284H128.317L128.757 281.328ZM125.979 271.203L128.985 281.328L129.442 284H127.491L123.062 271.203H125.979Z" fill="black"/>
<path d="M139.308 283.169V284.844C139.308 285.609 139.23 286.263 139.075 286.806C138.92 287.348 138.697 287.792 138.405 288.139C138.114 288.48 137.765 288.733 137.359 288.897C136.954 289.057 136.503 289.137 136.006 289.137C135.609 289.137 135.24 289.087 134.898 288.986C134.557 288.882 134.249 288.722 133.976 288.508C133.707 288.289 133.474 288.011 133.278 287.674C133.087 287.337 132.939 286.933 132.834 286.464C132.734 285.994 132.684 285.454 132.684 284.844V283.169C132.684 282.403 132.761 281.752 132.916 281.214C133.076 280.676 133.301 280.236 133.593 279.895C133.884 279.553 134.233 279.304 134.639 279.149C135.044 278.99 135.495 278.91 135.992 278.91C136.393 278.91 136.762 278.96 137.1 279.061C137.441 279.161 137.747 279.318 138.016 279.532C138.289 279.742 138.521 280.015 138.713 280.353C138.904 280.685 139.05 281.086 139.15 281.556C139.255 282.021 139.308 282.558 139.308 283.169ZM137.503 285.09V282.916C137.503 282.533 137.48 282.201 137.435 281.918C137.394 281.631 137.332 281.387 137.25 281.187C137.168 280.986 137.065 280.824 136.942 280.701C136.819 280.574 136.678 280.48 136.519 280.421C136.359 280.362 136.184 280.332 135.992 280.332C135.755 280.332 135.543 280.38 135.356 280.476C135.17 280.567 135.012 280.713 134.885 280.913C134.757 281.114 134.659 281.38 134.591 281.713C134.527 282.041 134.495 282.442 134.495 282.916V285.09C134.495 285.473 134.516 285.808 134.557 286.095C134.602 286.382 134.666 286.628 134.748 286.833C134.835 287.038 134.937 287.207 135.056 287.339C135.179 287.466 135.32 287.562 135.479 287.626C135.639 287.685 135.814 287.715 136.006 287.715C136.247 287.715 136.459 287.667 136.642 287.571C136.828 287.476 136.986 287.325 137.113 287.12C137.241 286.91 137.337 286.639 137.4 286.307C137.469 285.969 137.503 285.564 137.503 285.09Z" fill="black"/>
<path d="M364.722 193.495L367.912 183.203H370.593L366.075 196H364.291L364.722 193.495ZM361.777 183.203L364.95 193.495L365.407 196H363.605L359.105 183.203H361.777Z" fill="black"/>
<path d="M372.924 206H370.777L370.791 204.523H372.924C373.503 204.523 373.988 204.396 374.38 204.141C374.772 203.881 375.068 203.509 375.269 203.026C375.469 202.539 375.569 201.955 375.569 201.276V200.764C375.569 200.24 375.512 199.777 375.398 199.376C375.285 198.975 375.116 198.638 374.893 198.364C374.674 198.091 374.403 197.883 374.079 197.742C373.756 197.601 373.384 197.53 372.965 197.53H370.736V196.047H372.965C373.63 196.047 374.236 196.159 374.783 196.382C375.335 196.605 375.811 196.926 376.212 197.346C376.618 197.76 376.927 198.257 377.142 198.836C377.36 199.415 377.47 200.062 377.47 200.777V201.276C377.47 201.987 377.36 202.634 377.142 203.218C376.927 203.797 376.618 204.293 376.212 204.708C375.811 205.123 375.332 205.442 374.776 205.665C374.22 205.888 373.603 206 372.924 206ZM371.83 196.047V206H369.95V196.047H371.83Z" fill="black"/>
<path d="M14.3662 179.02V189H12.5547V181.132L10.1553 181.925V180.462L14.1611 179.02H14.3662Z" fill="black"/>
<path d="M229.222 33.2031H233.871C234.844 33.2031 235.679 33.3496 236.376 33.6426C237.073 33.9355 237.609 34.3691 237.984 34.9434C238.359 35.5176 238.547 36.2236 238.547 37.0615C238.547 37.7236 238.43 38.2979 238.195 38.7842C237.961 39.2705 237.63 39.6777 237.202 40.0059C236.78 40.334 236.282 40.5918 235.708 40.7793L234.952 41.166H230.848L230.83 39.2588H233.897C234.396 39.2588 234.809 39.1709 235.137 38.9951C235.465 38.8193 235.711 38.5762 235.875 38.2656C236.045 37.9551 236.13 37.6006 236.13 37.2021C236.13 36.7744 236.048 36.4053 235.884 36.0947C235.72 35.7783 235.471 35.5352 235.137 35.3652C234.803 35.1953 234.381 35.1104 233.871 35.1104H231.639V46H229.222V33.2031ZM236.446 46L233.484 40.2695L236.042 40.2607L239.039 45.877V46H236.446Z" fill="black"/>
<path d="M248.629 52.3701V53.792H241.458L241.383 52.6982L245.601 46.0469H247.043L245.484 48.6924L243.222 52.3701H248.629ZM247.446 46.0469V56H245.635V46.0469H247.446Z" fill="black"/>
<path d="M340.222 131.203H344.871C345.844 131.203 346.679 131.35 347.376 131.643C348.073 131.936 348.609 132.369 348.984 132.943C349.359 133.518 349.547 134.224 349.547 135.062C349.547 135.724 349.43 136.298 349.195 136.784C348.961 137.271 348.63 137.678 348.202 138.006C347.78 138.334 347.282 138.592 346.708 138.779L345.952 139.166H341.848L341.83 137.259H344.897C345.396 137.259 345.809 137.171 346.137 136.995C346.465 136.819 346.711 136.576 346.875 136.266C347.045 135.955 347.13 135.601 347.13 135.202C347.13 134.774 347.048 134.405 346.884 134.095C346.72 133.778 346.471 133.535 346.137 133.365C345.803 133.195 345.381 133.11 344.871 133.11H342.639V144H340.222V131.203ZM347.446 144L344.484 138.27L347.042 138.261L350.039 143.877V144H347.446Z" fill="black"/>
<path d="M354.509 149.42L353.066 149.071L353.62 144.047H359.096V145.544H355.117L354.857 147.868C354.999 147.782 355.204 147.695 355.473 147.608C355.746 147.517 356.054 147.472 356.396 147.472C356.869 147.472 357.293 147.549 357.667 147.704C358.041 147.854 358.357 148.073 358.617 148.36C358.882 148.647 359.08 148.998 359.212 149.413C359.349 149.823 359.417 150.288 359.417 150.808C359.417 151.263 359.349 151.692 359.212 152.093C359.08 152.489 358.877 152.842 358.604 153.152C358.33 153.458 357.986 153.699 357.571 153.877C357.157 154.05 356.669 154.137 356.108 154.137C355.685 154.137 355.277 154.075 354.885 153.952C354.497 153.825 354.149 153.64 353.839 153.398C353.529 153.152 353.281 152.852 353.094 152.496C352.911 152.141 352.811 151.733 352.793 151.272H354.577C354.609 151.578 354.691 151.838 354.823 152.052C354.955 152.266 355.129 152.43 355.343 152.544C355.562 152.658 355.814 152.715 356.102 152.715C356.361 152.715 356.585 152.667 356.771 152.571C356.963 152.471 357.12 152.332 357.243 152.154C357.366 151.977 357.457 151.767 357.517 151.525C357.576 151.284 357.605 151.02 357.605 150.732C357.605 150.454 357.571 150.201 357.503 149.974C357.435 149.741 357.33 149.541 357.188 149.372C357.047 149.203 356.869 149.074 356.655 148.982C356.446 148.891 356.2 148.846 355.917 148.846C355.539 148.846 355.247 148.903 355.042 149.017C354.841 149.131 354.664 149.265 354.509 149.42Z" fill="black"/>
<path d="M145.222 168.203H149.871C150.844 168.203 151.679 168.35 152.376 168.643C153.073 168.936 153.609 169.369 153.984 169.943C154.359 170.518 154.547 171.224 154.547 172.062C154.547 172.724 154.43 173.298 154.195 173.784C153.961 174.271 153.63 174.678 153.202 175.006C152.78 175.334 152.282 175.592 151.708 175.779L150.952 176.166H146.848L146.83 174.259H149.897C150.396 174.259 150.809 174.171 151.137 173.995C151.465 173.819 151.711 173.576 151.875 173.266C152.045 172.955 152.13 172.601 152.13 172.202C152.13 171.774 152.048 171.405 151.884 171.095C151.72 170.778 151.471 170.535 151.137 170.365C150.803 170.195 150.381 170.11 149.871 170.11H147.639V181H145.222V168.203ZM152.446 181L149.484 175.27L152.042 175.261L155.039 180.877V181H152.446Z" fill="black"/>
<path d="M159.693 185.224H160.712C161.072 185.224 161.368 185.162 161.601 185.039C161.838 184.911 162.013 184.738 162.127 184.52C162.245 184.296 162.305 184.039 162.305 183.747C162.305 183.46 162.252 183.212 162.147 183.002C162.043 182.788 161.883 182.624 161.669 182.51C161.459 182.391 161.19 182.332 160.862 182.332C160.598 182.332 160.354 182.384 160.131 182.489C159.912 182.594 159.737 182.744 159.604 182.94C159.477 183.132 159.413 183.362 159.413 183.631H157.602C157.602 183.093 157.743 182.621 158.025 182.216C158.312 181.806 158.7 181.484 159.188 181.252C159.675 181.02 160.22 180.903 160.821 180.903C161.478 180.903 162.052 181.013 162.544 181.231C163.041 181.446 163.426 181.762 163.699 182.182C163.977 182.601 164.116 183.12 164.116 183.74C164.116 184.036 164.046 184.333 163.904 184.629C163.768 184.921 163.565 185.185 163.296 185.422C163.032 185.654 162.706 185.843 162.318 185.989C161.936 186.131 161.496 186.201 160.999 186.201H159.693V185.224ZM159.693 186.618V185.654H160.999C161.56 185.654 162.045 185.72 162.455 185.853C162.87 185.98 163.212 186.162 163.48 186.399C163.749 186.632 163.948 186.903 164.075 187.213C164.207 187.523 164.273 187.855 164.273 188.211C164.273 188.676 164.187 189.09 164.014 189.455C163.84 189.815 163.597 190.12 163.282 190.371C162.972 190.622 162.608 190.813 162.188 190.945C161.769 191.073 161.316 191.137 160.828 191.137C160.404 191.137 159.992 191.08 159.591 190.966C159.194 190.847 158.837 190.672 158.518 190.439C158.199 190.202 157.946 189.906 157.759 189.551C157.572 189.191 157.479 188.774 157.479 188.3H159.29C159.29 188.573 159.356 188.817 159.488 189.031C159.625 189.245 159.812 189.414 160.049 189.537C160.29 189.656 160.562 189.715 160.862 189.715C161.195 189.715 161.48 189.656 161.717 189.537C161.958 189.414 162.143 189.241 162.271 189.018C162.398 188.79 162.462 188.519 162.462 188.204C162.462 187.83 162.391 187.527 162.25 187.295C162.109 187.062 161.906 186.892 161.642 186.782C161.382 186.673 161.072 186.618 160.712 186.618H159.693Z" fill="black"/>
<path d="M196.222 114.203H200.871C201.844 114.203 202.679 114.35 203.376 114.643C204.073 114.936 204.609 115.369 204.984 115.943C205.359 116.518 205.547 117.224 205.547 118.062C205.547 118.724 205.43 119.298 205.195 119.784C204.961 120.271 204.63 120.678 204.202 121.006C203.78 121.334 203.282 121.592 202.708 121.779L201.952 122.166H197.848L197.83 120.259H200.897C201.396 120.259 201.809 120.171 202.137 119.995C202.465 119.819 202.711 119.576 202.875 119.266C203.045 118.955 203.13 118.601 203.13 118.202C203.13 117.774 203.048 117.405 202.884 117.095C202.72 116.778 202.471 116.535 202.137 116.365C201.803 116.195 201.381 116.11 200.871 116.11H198.639V127H196.222V114.203ZM203.446 127L200.484 121.27L203.042 121.261L206.039 126.877V127H203.446Z" fill="black"/>
<path d="M215.458 135.578V137H208.718V135.783L211.951 132.29C212.288 131.907 212.555 131.575 212.751 131.292C212.947 131.009 213.086 130.754 213.168 130.526C213.255 130.294 213.298 130.073 213.298 129.863C213.298 129.558 213.243 129.291 213.134 129.063C213.024 128.831 212.865 128.651 212.655 128.523C212.45 128.396 212.197 128.332 211.896 128.332C211.564 128.332 211.279 128.41 211.042 128.564C210.81 128.715 210.632 128.924 210.509 129.193C210.39 129.462 210.331 129.77 210.331 130.116H208.52C208.52 129.528 208.656 128.993 208.93 128.51C209.203 128.022 209.595 127.632 210.105 127.341C210.616 127.049 211.222 126.903 211.924 126.903C212.607 126.903 213.186 127.017 213.66 127.245C214.134 127.468 214.494 127.787 214.74 128.202C214.986 128.617 215.109 129.111 215.109 129.686C215.109 130.005 215.057 130.319 214.952 130.629C214.847 130.939 214.699 131.246 214.508 131.552C214.321 131.853 214.098 132.158 213.838 132.468C213.578 132.778 213.289 133.094 212.97 133.418L211.028 135.578H215.458Z" fill="black"/>
<path d="M94.2217 35.2031H98.8711C99.8438 35.2031 100.679 35.3496 101.376 35.6426C102.073 35.9355 102.609 36.3691 102.984 36.9434C103.359 37.5176 103.547 38.2236 103.547 39.0615C103.547 39.7236 103.43 40.2979 103.195 40.7842C102.961 41.2705 102.63 41.6777 102.202 42.0059C101.78 42.334 101.282 42.5918 100.708 42.7793L99.9521 43.166H95.8477L95.8301 41.2588H98.8975C99.3955 41.2588 99.8086 41.1709 100.137 40.9951C100.465 40.8193 100.711 40.5762 100.875 40.2656C101.045 39.9551 101.13 39.6006 101.13 39.2021C101.13 38.7744 101.048 38.4053 100.884 38.0947C100.72 37.7783 100.471 37.5352 100.137 37.3652C99.8027 37.1953 99.3809 37.1104 98.8711 37.1104H96.6387V48H94.2217V35.2031ZM101.446 48L98.4844 42.2695L101.042 42.2607L104.039 47.877V48H101.446Z" fill="black"/>
<path d="M111.366 48.0195V58H109.555V50.1318L107.155 50.9248V49.4619L111.161 48.0195H111.366Z" fill="black"/>
<rect x="173" y="106" width="16" height="39" stroke="black" stroke-width="2"/>
<rect x="315" y="117" width="16" height="39" stroke="black" stroke-width="2"/>
<rect x="173" y="163" width="16" height="39" stroke="black" stroke-width="2"/>
<rect x="86" y="79" width="15" height="39" transform="rotate(-90 86 79)" stroke="black" stroke-width="2"/>
<rect x="223" y="79" width="15" height="39" transform="rotate(-90 223 79)" stroke="black" stroke-width="2"/>
<path d="M341.311 182.75L323 206.368L304.689 182.75H341.311Z" stroke="black" stroke-width="2"/>
<path d="M182.899 30.168V43H180.57V32.8838L177.485 33.9033V32.0225L182.636 30.168H182.899Z" fill="black"/>
<path d="M340 36C340 44.8094 332.64 52 323.5 52C314.36 52 307 44.8094 307 36C307 27.1906 314.36 20 323.5 20C332.64 20 340 27.1906 340 36Z" stroke="black" stroke-width="2"/>
<path d="M327.589 41.1719V43H318.923V41.4355L323.08 36.9443C323.514 36.4521 323.856 36.0244 324.108 35.6611C324.36 35.2979 324.539 34.9697 324.645 34.6768C324.756 34.3779 324.812 34.0938 324.812 33.8242C324.812 33.4316 324.741 33.0889 324.601 32.7959C324.46 32.4971 324.255 32.2656 323.985 32.1016C323.722 31.9375 323.396 31.8555 323.01 31.8555C322.582 31.8555 322.216 31.9551 321.911 32.1543C321.612 32.3477 321.384 32.6172 321.226 32.9629C321.073 33.3086 320.997 33.7041 320.997 34.1494H318.668C318.668 33.3936 318.844 32.7051 319.195 32.084C319.547 31.457 320.051 30.9561 320.707 30.5811C321.363 30.2061 322.143 30.0186 323.045 30.0186C323.924 30.0186 324.668 30.165 325.277 30.458C325.887 30.7451 326.35 31.1553 326.666 31.6885C326.982 32.2217 327.141 32.8574 327.141 33.5957C327.141 34.0059 327.073 34.4102 326.938 34.8086C326.804 35.207 326.613 35.6025 326.367 35.9951C326.127 36.3818 325.84 36.7744 325.506 37.1729C325.172 37.5713 324.8 37.9785 324.39 38.3945L321.894 41.1719H327.589Z" fill="black"/>
<path d="M293.168 319.395H288.809L288.785 317.121H292.523C293.164 317.121 293.699 317.031 294.129 316.852C294.559 316.672 294.883 316.41 295.102 316.066C295.328 315.723 295.441 315.305 295.441 314.812C295.441 314.266 295.336 313.82 295.125 313.477C294.922 313.133 294.602 312.883 294.164 312.727C293.727 312.562 293.172 312.48 292.5 312.48H289.852V327H286.629V309.938H292.5C293.469 309.938 294.332 310.031 295.09 310.219C295.855 310.398 296.504 310.68 297.035 311.062C297.566 311.445 297.969 311.926 298.242 312.504C298.523 313.082 298.664 313.77 298.664 314.566C298.664 315.27 298.5 315.918 298.172 316.512C297.852 317.098 297.355 317.574 296.684 317.941C296.02 318.309 295.176 318.52 294.152 318.574L293.168 319.395ZM293.027 327H287.859L289.207 324.469H293.027C293.668 324.469 294.195 324.363 294.609 324.152C295.031 323.941 295.344 323.652 295.547 323.285C295.758 322.91 295.863 322.48 295.863 321.996C295.863 321.465 295.77 321.004 295.582 320.613C295.402 320.223 295.113 319.922 294.715 319.711C294.324 319.5 293.809 319.395 293.168 319.395H289.816L289.84 317.121H294.105L294.844 318C295.828 318.008 296.629 318.203 297.246 318.586C297.871 318.969 298.332 319.461 298.629 320.062C298.926 320.664 299.074 321.312 299.074 322.008C299.074 323.102 298.836 324.02 298.359 324.762C297.891 325.504 297.203 326.062 296.297 326.438C295.398 326.812 294.309 327 293.027 327Z" fill="black"/>
<path d="M291.414 47.5273L286.551 62H283.141L289.516 44.9375H291.695L291.414 47.5273ZM295.48 62L290.594 47.5273L290.301 44.9375H292.492L298.902 62H295.48ZM295.258 55.6602V58.2031H286.105V55.6602H295.258Z" fill="black"/>
<path d="M152.5 276L149.4 264.877L141.317 273.123L152.5 276ZM167.891 81.2069C123.001 115.684 110.684 155.536 112.971 190.524C115.254 225.439 132.069 255.431 145.325 270.364L146.82 269.036C133.811 254.381 117.216 224.796 114.967 190.394C112.723 156.066 124.753 116.861 169.109 82.7931L167.891 81.2069Z" fill="black"/>
<path d="M55 254L66.4191 252.286L59.2255 243.254L55 254ZM62.6853 249.157C94.3267 222.207 100.119 191.533 95.6889 165.811C93.4785 152.975 88.7278 141.39 83.4079 132.12C78.0962 122.865 72.1817 115.859 67.595 112.217L66.3513 113.783C70.6789 117.22 76.4421 124.001 81.6732 133.116C86.8962 142.216 91.5534 153.581 93.7179 166.15C98.038 191.236 92.4475 221.18 61.3885 247.634L62.6853 249.157Z" fill="black"/>
</svg>
