<svg width="455" height="289" viewBox="0 0 455 289" fill="none" xmlns="http://www.w3.org/2000/svg">
<circle cx="28" cy="59" r="6" stroke="black" stroke-width="2"/>
<circle cx="424" cy="58" r="6" stroke="black" stroke-width="2"/>
<circle cx="424" cy="281" r="6" stroke="black" stroke-width="2"/>
<circle cx="28" cy="282" r="6" stroke="black" stroke-width="2"/>
<path d="M187.5 281C187.5 284.59 184.59 287.5 181 287.5C177.41 287.5 174.5 284.59 174.5 281C174.5 277.41 177.41 274.5 181 274.5C184.59 274.5 187.5 277.41 187.5 281Z" fill="black" stroke="black"/>
<path d="M252.5 281C252.5 284.59 249.59 287.5 246 287.5C242.41 287.5 239.5 284.59 239.5 281C239.5 277.41 242.41 274.5 246 274.5C249.59 274.5 252.5 277.41 252.5 281Z" fill="black" stroke="black"/>
<path d="M329.5 281C329.5 284.59 326.59 287.5 323 287.5C319.41 287.5 316.5 284.59 316.5 281C316.5 277.41 319.41 274.5 323 274.5C326.59 274.5 329.5 277.41 329.5 281Z" fill="black" stroke="black"/>
<path d="M329.5 59C329.5 62.5899 326.59 65.5 323 65.5C319.41 65.5 316.5 62.5899 316.5 59C316.5 55.4101 319.41 52.5 323 52.5C326.59 52.5 329.5 55.4101 329.5 59Z" fill="black" stroke="black"/>
<path d="M187.5 58C187.5 61.5899 184.59 64.5 181 64.5C177.41 64.5 174.5 61.5899 174.5 58C174.5 54.4101 177.41 51.5 181 51.5C184.59 51.5 187.5 54.4101 187.5 58Z" fill="black" stroke="black"/>
<path d="M187.5 169C187.5 172.59 184.59 175.5 181 175.5C177.41 175.5 174.5 172.59 174.5 169C174.5 165.41 177.41 162.5 181 162.5C184.59 162.5 187.5 165.41 187.5 169Z" fill="black" stroke="black"/>
<line x1="35" y1="58" x2="85" y2="58" stroke="black" stroke-width="2"/>
<line x1="125" y1="58" x2="175" y2="58" stroke="black" stroke-width="2"/>
<line x1="183" y1="58" x2="223" y2="58" stroke="black" stroke-width="2"/>
<line x1="262" y1="58" x2="417" y2="58" stroke="black" stroke-width="2"/>
<line x1="35" y1="281" x2="185" y2="281" stroke="black" stroke-width="2"/>
<line x1="180" y1="281" x2="240" y2="281" stroke="black" stroke-width="2"/>
<line x1="251" y1="281" x2="317" y2="281" stroke="black" stroke-width="2"/>
<line x1="327" y1="281" x2="417" y2="281" stroke="black" stroke-width="2"/>
<line x1="181" y1="104" x2="181" y2="59" stroke="black" stroke-width="2"/>
<line x1="181" y1="198" x2="181" y2="143" stroke="black" stroke-width="2"/>
<line x1="187.5" y1="169.5" x2="246.5" y2="169.5" stroke="black" stroke-width="2"/>
<line x1="181" y1="283" x2="181" y2="238" stroke="black" stroke-width="2"/>
<line x1="246" y1="283" x2="246" y2="238" stroke="black" stroke-width="2"/>
<line x1="322.5" y1="282.002" x2="322.5" y2="143.002" stroke="black" stroke-width="2"/>
<line x1="246" y1="204" x2="246" y2="168.5" stroke="black" stroke-width="2"/>
<line x1="323" y1="102.5" x2="323" y2="65" stroke="black" stroke-width="2"/>
<line x1="230" y1="222" x2="263" y2="222" stroke="black" stroke-width="2"/>
<line x1="307" y1="193" x2="340" y2="193" stroke="black" stroke-width="2"/>
<path d="M28 232L33.7735 222H22.2265L28 232ZM27 107L27 223H29L29 107H27Z" fill="black"/>
<path d="M339.5 242C339.5 250.809 332.14 258 323 258C313.86 258 306.5 250.809 306.5 242C306.5 233.191 313.86 226 323 226C332.14 226 339.5 233.191 339.5 242Z" stroke="black" stroke-width="2"/>
<path d="M263 221C263 229.809 255.64 237 246.5 237C237.36 237 230 229.809 230 221C230 212.191 237.36 205 246.5 205C255.64 205 263 212.191 263 221Z" stroke="black" stroke-width="2"/>
<path d="M5.75684 165.328L8.77148 155.203H11.707L7.25098 168H5.31738L5.75684 165.328ZM2.97949 155.203L5.98535 165.328L6.44238 168H4.49121L0.0615234 155.203H2.97949Z" fill="black"/>
<path d="M424 231L429.774 221H418.226L424 231ZM423 106V222H425V106H423Z" fill="black"/>
<path d="M443.757 168.328L446.771 158.203H449.707L445.251 171H443.317L443.757 168.328ZM440.979 158.203L443.985 168.328L444.442 171H442.491L438.062 158.203H440.979Z" fill="black"/>
<path d="M48 6L38 0.226497V11.7735L48 6ZM0 7H39V5H0L0 7Z" fill="#FF0000"/>
<path d="M270 244L275.774 234H264.226L270 244ZM269 209V235H271V209H269Z" fill="black"/>
<path d="M352 196L357.774 186H346.226L352 196ZM351 160V187H353V160H351Z" fill="black"/>
<path d="M299 261L304.774 251H293.226L299 261ZM298 225V252H300V225H298Z" fill="black"/>
<path d="M280.797 211.203V224H278.38V211.203H280.797Z" fill="black"/>
<path d="M291.308 225.169V226.844C291.308 227.609 291.23 228.263 291.075 228.806C290.92 229.348 290.697 229.792 290.405 230.139C290.114 230.48 289.765 230.733 289.359 230.897C288.954 231.057 288.503 231.137 288.006 231.137C287.609 231.137 287.24 231.087 286.898 230.986C286.557 230.882 286.249 230.722 285.976 230.508C285.707 230.289 285.474 230.011 285.278 229.674C285.087 229.337 284.939 228.933 284.834 228.464C284.734 227.994 284.684 227.454 284.684 226.844V225.169C284.684 224.403 284.761 223.752 284.916 223.214C285.076 222.676 285.301 222.236 285.593 221.895C285.884 221.553 286.233 221.304 286.639 221.149C287.044 220.99 287.495 220.91 287.992 220.91C288.393 220.91 288.762 220.96 289.1 221.061C289.441 221.161 289.747 221.318 290.016 221.532C290.289 221.742 290.521 222.015 290.713 222.353C290.904 222.685 291.05 223.086 291.15 223.556C291.255 224.021 291.308 224.558 291.308 225.169ZM289.503 227.09V224.916C289.503 224.533 289.48 224.201 289.435 223.918C289.394 223.631 289.332 223.387 289.25 223.187C289.168 222.986 289.065 222.824 288.942 222.701C288.819 222.574 288.678 222.48 288.519 222.421C288.359 222.362 288.184 222.332 287.992 222.332C287.755 222.332 287.543 222.38 287.356 222.476C287.17 222.567 287.012 222.713 286.885 222.913C286.757 223.114 286.659 223.38 286.591 223.713C286.527 224.041 286.495 224.442 286.495 224.916V227.09C286.495 227.473 286.516 227.808 286.557 228.095C286.602 228.382 286.666 228.628 286.748 228.833C286.835 229.038 286.937 229.207 287.056 229.339C287.179 229.466 287.32 229.562 287.479 229.626C287.639 229.685 287.814 229.715 288.006 229.715C288.247 229.715 288.459 229.667 288.642 229.571C288.828 229.476 288.986 229.325 289.113 229.12C289.241 228.91 289.337 228.639 289.4 228.307C289.469 227.969 289.503 227.564 289.503 227.09Z" fill="black"/>
<path d="M454.458 174.578V176H447.718V174.783L450.951 171.29C451.288 170.907 451.555 170.575 451.751 170.292C451.947 170.009 452.086 169.754 452.168 169.526C452.255 169.294 452.298 169.073 452.298 168.863C452.298 168.558 452.243 168.291 452.134 168.063C452.024 167.831 451.865 167.651 451.655 167.523C451.45 167.396 451.197 167.332 450.896 167.332C450.564 167.332 450.279 167.41 450.042 167.564C449.81 167.715 449.632 167.924 449.509 168.193C449.39 168.462 449.331 168.77 449.331 169.116H447.52C447.52 168.528 447.656 167.993 447.93 167.51C448.203 167.022 448.595 166.632 449.105 166.341C449.616 166.049 450.222 165.903 450.924 165.903C451.607 165.903 452.186 166.017 452.66 166.245C453.134 166.468 453.494 166.787 453.74 167.202C453.986 167.617 454.109 168.111 454.109 168.686C454.109 169.005 454.057 169.319 453.952 169.629C453.847 169.939 453.699 170.246 453.508 170.552C453.321 170.853 453.098 171.158 452.838 171.468C452.578 171.778 452.289 172.094 451.97 172.418L450.028 174.578H454.458Z" fill="black"/>
<path d="M348.757 250.328L351.771 240.203H354.707L350.251 253H348.317L348.757 250.328ZM345.979 240.203L348.985 250.328L349.442 253H347.491L343.062 240.203H345.979Z" fill="black"/>
<path d="M359.458 256.578V258H352.718V256.783L355.951 253.29C356.288 252.907 356.555 252.575 356.751 252.292C356.947 252.009 357.086 251.754 357.168 251.526C357.255 251.294 357.298 251.073 357.298 250.863C357.298 250.558 357.243 250.291 357.134 250.063C357.024 249.831 356.865 249.651 356.655 249.523C356.45 249.396 356.197 249.332 355.896 249.332C355.564 249.332 355.279 249.41 355.042 249.564C354.81 249.715 354.632 249.924 354.509 250.193C354.39 250.462 354.331 250.77 354.331 251.116H352.52C352.52 250.528 352.656 249.993 352.93 249.51C353.203 249.022 353.595 248.632 354.105 248.341C354.616 248.049 355.222 247.903 355.924 247.903C356.607 247.903 357.186 248.017 357.66 248.245C358.134 248.468 358.494 248.787 358.74 249.202C358.986 249.617 359.109 250.111 359.109 250.686C359.109 251.005 359.057 251.319 358.952 251.629C358.847 251.939 358.699 252.246 358.508 252.552C358.321 252.853 358.098 253.158 357.838 253.468C357.578 253.778 357.289 254.094 356.97 254.418L355.028 256.578H359.458Z" fill="black"/>
<path d="M364.722 179.495L367.912 169.203H370.593L366.075 182H364.291L364.722 179.495ZM361.777 169.203L364.95 179.495L365.407 182H363.605L359.105 169.203H361.777Z" fill="black"/>
<path d="M372.924 192H370.777L370.791 190.523H372.924C373.503 190.523 373.988 190.396 374.38 190.141C374.772 189.881 375.068 189.509 375.269 189.026C375.469 188.539 375.569 187.955 375.569 187.276V186.764C375.569 186.24 375.512 185.777 375.398 185.376C375.285 184.975 375.116 184.638 374.893 184.364C374.674 184.091 374.403 183.883 374.079 183.742C373.756 183.601 373.384 183.53 372.965 183.53H370.736V182.047H372.965C373.63 182.047 374.236 182.159 374.783 182.382C375.335 182.605 375.811 182.926 376.212 183.346C376.618 183.76 376.927 184.257 377.142 184.836C377.36 185.415 377.47 186.062 377.47 186.777V187.276C377.47 187.987 377.36 188.634 377.142 189.218C376.927 189.797 376.618 190.293 376.212 190.708C375.811 191.123 375.332 191.442 374.776 191.665C374.22 191.888 373.603 192 372.924 192ZM371.83 182.047V192H369.95V182.047H371.83Z" fill="black"/>
<path d="M14.3662 165.02V175H12.5547V167.132L10.1553 167.925V166.462L14.1611 165.02H14.3662Z" fill="black"/>
<path d="M229.222 19.2031H233.871C234.844 19.2031 235.679 19.3496 236.376 19.6426C237.073 19.9355 237.609 20.3691 237.984 20.9434C238.359 21.5176 238.547 22.2236 238.547 23.0615C238.547 23.7236 238.43 24.2979 238.195 24.7842C237.961 25.2705 237.63 25.6777 237.202 26.0059C236.78 26.334 236.282 26.5918 235.708 26.7793L234.952 27.166H230.848L230.83 25.2588H233.897C234.396 25.2588 234.809 25.1709 235.137 24.9951C235.465 24.8193 235.711 24.5762 235.875 24.2656C236.045 23.9551 236.13 23.6006 236.13 23.2021C236.13 22.7744 236.048 22.4053 235.884 22.0947C235.72 21.7783 235.471 21.5352 235.137 21.3652C234.803 21.1953 234.381 21.1104 233.871 21.1104H231.639V32H229.222V19.2031ZM236.446 32L233.484 26.2695L236.042 26.2607L239.039 31.877V32H236.446Z" fill="black"/>
<path d="M248.629 38.3701V39.792H241.458L241.383 38.6982L245.601 32.0469H247.043L245.484 34.6924L243.222 38.3701H248.629ZM247.446 32.0469V42H245.635V32.0469H247.446Z" fill="black"/>
<path d="M340.222 117.203H344.871C345.844 117.203 346.679 117.35 347.376 117.643C348.073 117.936 348.609 118.369 348.984 118.943C349.359 119.518 349.547 120.224 349.547 121.062C349.547 121.724 349.43 122.298 349.195 122.784C348.961 123.271 348.63 123.678 348.202 124.006C347.78 124.334 347.282 124.592 346.708 124.779L345.952 125.166H341.848L341.83 123.259H344.897C345.396 123.259 345.809 123.171 346.137 122.995C346.465 122.819 346.711 122.576 346.875 122.266C347.045 121.955 347.13 121.601 347.13 121.202C347.13 120.774 347.048 120.405 346.884 120.095C346.72 119.778 346.471 119.535 346.137 119.365C345.803 119.195 345.381 119.11 344.871 119.11H342.639V130H340.222V117.203ZM347.446 130L344.484 124.27L347.042 124.261L350.039 129.877V130H347.446Z" fill="black"/>
<path d="M354.509 135.42L353.066 135.071L353.62 130.047H359.096V131.544H355.117L354.857 133.868C354.999 133.782 355.204 133.695 355.473 133.608C355.746 133.517 356.054 133.472 356.396 133.472C356.869 133.472 357.293 133.549 357.667 133.704C358.041 133.854 358.357 134.073 358.617 134.36C358.882 134.647 359.08 134.998 359.212 135.413C359.349 135.823 359.417 136.288 359.417 136.808C359.417 137.263 359.349 137.692 359.212 138.093C359.08 138.489 358.877 138.842 358.604 139.152C358.33 139.458 357.986 139.699 357.571 139.877C357.157 140.05 356.669 140.137 356.108 140.137C355.685 140.137 355.277 140.075 354.885 139.952C354.497 139.825 354.149 139.64 353.839 139.398C353.529 139.152 353.281 138.852 353.094 138.496C352.911 138.141 352.811 137.733 352.793 137.272H354.577C354.609 137.578 354.691 137.838 354.823 138.052C354.955 138.266 355.129 138.43 355.343 138.544C355.562 138.658 355.814 138.715 356.102 138.715C356.361 138.715 356.585 138.667 356.771 138.571C356.963 138.471 357.12 138.332 357.243 138.154C357.366 137.977 357.457 137.767 357.517 137.525C357.576 137.284 357.605 137.02 357.605 136.732C357.605 136.454 357.571 136.201 357.503 135.974C357.435 135.741 357.33 135.541 357.188 135.372C357.047 135.203 356.869 135.074 356.655 134.982C356.446 134.891 356.2 134.846 355.917 134.846C355.539 134.846 355.247 134.903 355.042 135.017C354.841 135.131 354.664 135.265 354.509 135.42Z" fill="black"/>
<path d="M145.222 203.203H149.871C150.844 203.203 151.679 203.35 152.376 203.643C153.073 203.936 153.609 204.369 153.984 204.943C154.359 205.518 154.547 206.224 154.547 207.062C154.547 207.724 154.43 208.298 154.195 208.784C153.961 209.271 153.63 209.678 153.202 210.006C152.78 210.334 152.282 210.592 151.708 210.779L150.952 211.166H146.848L146.83 209.259H149.897C150.396 209.259 150.809 209.171 151.137 208.995C151.465 208.819 151.711 208.576 151.875 208.266C152.045 207.955 152.13 207.601 152.13 207.202C152.13 206.774 152.048 206.405 151.884 206.095C151.72 205.778 151.471 205.535 151.137 205.365C150.803 205.195 150.381 205.11 149.871 205.11H147.639V216H145.222V203.203ZM152.446 216L149.484 210.27L152.042 210.261L155.039 215.877V216H152.446Z" fill="black"/>
<path d="M159.693 220.224H160.712C161.072 220.224 161.368 220.162 161.601 220.039C161.838 219.911 162.013 219.738 162.127 219.52C162.245 219.296 162.305 219.039 162.305 218.747C162.305 218.46 162.252 218.212 162.147 218.002C162.043 217.788 161.883 217.624 161.669 217.51C161.459 217.391 161.19 217.332 160.862 217.332C160.598 217.332 160.354 217.384 160.131 217.489C159.912 217.594 159.737 217.744 159.604 217.94C159.477 218.132 159.413 218.362 159.413 218.631H157.602C157.602 218.093 157.743 217.621 158.025 217.216C158.312 216.806 158.7 216.484 159.188 216.252C159.675 216.02 160.22 215.903 160.821 215.903C161.478 215.903 162.052 216.013 162.544 216.231C163.041 216.446 163.426 216.762 163.699 217.182C163.977 217.601 164.116 218.12 164.116 218.74C164.116 219.036 164.046 219.333 163.904 219.629C163.768 219.921 163.565 220.185 163.296 220.422C163.032 220.654 162.706 220.843 162.318 220.989C161.936 221.131 161.496 221.201 160.999 221.201H159.693V220.224ZM159.693 221.618V220.654H160.999C161.56 220.654 162.045 220.72 162.455 220.853C162.87 220.98 163.212 221.162 163.48 221.399C163.749 221.632 163.948 221.903 164.075 222.213C164.207 222.523 164.273 222.855 164.273 223.211C164.273 223.676 164.187 224.09 164.014 224.455C163.84 224.815 163.597 225.12 163.282 225.371C162.972 225.622 162.608 225.813 162.188 225.945C161.769 226.073 161.316 226.137 160.828 226.137C160.404 226.137 159.992 226.08 159.591 225.966C159.194 225.847 158.837 225.672 158.518 225.439C158.199 225.202 157.946 224.906 157.759 224.551C157.572 224.191 157.479 223.774 157.479 223.3H159.29C159.29 223.573 159.356 223.817 159.488 224.031C159.625 224.245 159.812 224.414 160.049 224.537C160.29 224.656 160.562 224.715 160.862 224.715C161.195 224.715 161.48 224.656 161.717 224.537C161.958 224.414 162.143 224.241 162.271 224.018C162.398 223.79 162.462 223.519 162.462 223.204C162.462 222.83 162.391 222.527 162.25 222.295C162.109 222.062 161.906 221.892 161.642 221.782C161.382 221.673 161.072 221.618 160.712 221.618H159.693Z" fill="black"/>
<path d="M196.222 111.203H200.871C201.844 111.203 202.679 111.35 203.376 111.643C204.073 111.936 204.609 112.369 204.984 112.943C205.359 113.518 205.547 114.224 205.547 115.062C205.547 115.724 205.43 116.298 205.195 116.784C204.961 117.271 204.63 117.678 204.202 118.006C203.78 118.334 203.282 118.592 202.708 118.779L201.952 119.166H197.848L197.83 117.259H200.897C201.396 117.259 201.809 117.171 202.137 116.995C202.465 116.819 202.711 116.576 202.875 116.266C203.045 115.955 203.13 115.601 203.13 115.202C203.13 114.774 203.048 114.405 202.884 114.095C202.72 113.778 202.471 113.535 202.137 113.365C201.803 113.195 201.381 113.11 200.871 113.11H198.639V124H196.222V111.203ZM203.446 124L200.484 118.27L203.042 118.261L206.039 123.877V124H203.446Z" fill="black"/>
<path d="M215.458 132.578V134H208.718V132.783L211.951 129.29C212.288 128.907 212.555 128.575 212.751 128.292C212.947 128.009 213.086 127.754 213.168 127.526C213.255 127.294 213.298 127.073 213.298 126.863C213.298 126.558 213.243 126.291 213.134 126.063C213.024 125.831 212.865 125.651 212.655 125.523C212.45 125.396 212.197 125.332 211.896 125.332C211.564 125.332 211.279 125.41 211.042 125.564C210.81 125.715 210.632 125.924 210.509 126.193C210.39 126.462 210.331 126.77 210.331 127.116H208.52C208.52 126.528 208.656 125.993 208.93 125.51C209.203 125.022 209.595 124.632 210.105 124.341C210.616 124.049 211.222 123.903 211.924 123.903C212.607 123.903 213.186 124.017 213.66 124.245C214.134 124.468 214.494 124.787 214.74 125.202C214.986 125.617 215.109 126.111 215.109 126.686C215.109 127.005 215.057 127.319 214.952 127.629C214.847 127.939 214.699 128.246 214.508 128.552C214.321 128.853 214.098 129.158 213.838 129.468C213.578 129.778 213.289 130.094 212.97 130.418L211.028 132.578H215.458Z" fill="black"/>
<path d="M94.2217 21.2031H98.8711C99.8438 21.2031 100.679 21.3496 101.376 21.6426C102.073 21.9355 102.609 22.3691 102.984 22.9434C103.359 23.5176 103.547 24.2236 103.547 25.0615C103.547 25.7236 103.43 26.2979 103.195 26.7842C102.961 27.2705 102.63 27.6777 102.202 28.0059C101.78 28.334 101.282 28.5918 100.708 28.7793L99.9521 29.166H95.8477L95.8301 27.2588H98.8975C99.3955 27.2588 99.8086 27.1709 100.137 26.9951C100.465 26.8193 100.711 26.5762 100.875 26.2656C101.045 25.9551 101.13 25.6006 101.13 25.2021C101.13 24.7744 101.048 24.4053 100.884 24.0947C100.72 23.7783 100.471 23.5352 100.137 23.3652C99.8027 23.1953 99.3809 23.1104 98.8711 23.1104H96.6387V34H94.2217V21.2031ZM101.446 34L98.4844 28.2695L101.042 28.2607L104.039 33.877V34H101.446Z" fill="black"/>
<path d="M111.366 34.0195V44H109.555V36.1318L107.155 36.9248V35.4619L111.161 34.0195H111.366Z" fill="black"/>
<rect x="173" y="103" width="16" height="39" stroke="black" stroke-width="2"/>
<rect x="315" y="103" width="16" height="39" stroke="black" stroke-width="2"/>
<rect x="173" y="198" width="16" height="39" stroke="black" stroke-width="2"/>
<rect x="86" y="65" width="15" height="39" transform="rotate(-90 86 65)" stroke="black" stroke-width="2"/>
<rect x="223" y="65" width="15" height="39" transform="rotate(-90 223 65)" stroke="black" stroke-width="2"/>
<path d="M341.311 168.75L323 192.368L304.689 168.75H341.311Z" stroke="black" stroke-width="2"/>
</svg>
