<svg width="548" height="363" viewBox="0 0 548 363" fill="none">
<path d="M200 0L194.226 10H205.774L200 0ZM201 363L201 9H199L199 363H201Z" fill="black"/>
<path d="M535 228.029L525.006 222.246L524.994 233.793L535 228.029ZM12.999 228.5L525.999 229.02L526.001 227.02L13.001 226.5L12.999 228.5Z" fill="black"/>
<line x1="190" y1="187.5" x2="211" y2="187.5" stroke="black"/>
<line x1="190" y1="267.5" x2="211" y2="267.5" stroke="black"/>
<line x1="190" y1="307.5" x2="211" y2="307.5" stroke="black"/>
<line x1="190" y1="347.5" x2="211" y2="347.5" stroke="black"/>
<line x1="240.5" y1="238" x2="240.5" y2="217" stroke="black"/>
<line x1="159.5" y1="238" x2="159.5" y2="217" stroke="black"/>
<line x1="119.5" y1="238" x2="119.5" y2="217" stroke="black"/>
<line x1="79.5" y1="238" x2="79.5" y2="217" stroke="black"/>
<line x1="39.5" y1="239" x2="39.5" y2="218" stroke="black"/>
<path d="M280.5 238V217" stroke="black"/>
<path d="M321 238V217" stroke="black"/>
<path d="M361 238V217" stroke="black"/>
<path d="M401 238V217" stroke="black"/>
<path d="M441.5 238V217" stroke="black"/>
<path d="M481 238V217" stroke="black"/>
<line x1="190" y1="147.5" x2="211" y2="147.5" stroke="black"/>
<line x1="190" y1="107.5" x2="211" y2="107.5" stroke="black"/>
<line x1="190" y1="67.5" x2="211" y2="67.5" stroke="black"/>
<path d="M159.5 215V147" stroke="black" stroke-dasharray="2 2"/>
<line x1="0.998428" y1="147.5" x2="160.002" y2="147.5" stroke="#11D700"/>
<line x1="159.998" y1="147.5" x2="319.002" y2="147.5" stroke="#11D700" stroke-dasharray="8 8"/>
<line x1="10.8964" y1="296.397" x2="161.397" y2="145.896" stroke="#FF0000" stroke-dasharray="8 8"/>
<line x1="160.646" y1="146.646" x2="287.926" y2="19.3672" stroke="#FF0000"/>
<path d="M241.407 243.133V256H239.781V245.163L236.503 246.358V244.891L241.152 243.133H241.407Z" fill="black"/>
<path d="M156.623 249.892V251.228H152.334V249.892H156.623ZM163.382 243.133V256H161.756V245.163L158.478 246.358V244.891L163.127 243.133H163.382Z" fill="black"/>
<path d="M116.623 249.892V251.228H112.334V249.892H116.623ZM126.423 254.664V256H118.047V254.831L122.239 250.164C122.755 249.59 123.153 249.104 123.435 248.705C123.722 248.301 123.921 247.94 124.032 247.624C124.149 247.302 124.208 246.974 124.208 246.64C124.208 246.218 124.12 245.837 123.944 245.497C123.774 245.151 123.522 244.876 123.188 244.671C122.854 244.466 122.45 244.363 121.976 244.363C121.407 244.363 120.933 244.475 120.552 244.697C120.177 244.914 119.896 245.219 119.708 245.611C119.521 246.004 119.427 246.455 119.427 246.965H117.801C117.801 246.244 117.959 245.585 118.275 244.987C118.592 244.39 119.061 243.915 119.682 243.563C120.303 243.206 121.067 243.027 121.976 243.027C122.784 243.027 123.476 243.171 124.05 243.458C124.624 243.739 125.063 244.138 125.368 244.653C125.679 245.163 125.834 245.761 125.834 246.446C125.834 246.821 125.77 247.202 125.641 247.589C125.518 247.97 125.345 248.351 125.122 248.731C124.905 249.112 124.65 249.487 124.357 249.856C124.07 250.226 123.763 250.589 123.435 250.946L120.007 254.664H126.423Z" fill="black"/>
<path d="M76.623 249.892V251.228H72.334V249.892H76.623ZM80.4111 248.802H81.5713C82.1396 248.802 82.6084 248.708 82.9775 248.521C83.3525 248.327 83.6309 248.066 83.8125 247.738C84 247.404 84.0938 247.029 84.0938 246.613C84.0938 246.121 84.0117 245.708 83.8477 245.374C83.6836 245.04 83.4375 244.788 83.1094 244.618C82.7812 244.448 82.3652 244.363 81.8613 244.363C81.4043 244.363 81 244.454 80.6484 244.636C80.3027 244.812 80.0303 245.063 79.8311 245.392C79.6377 245.72 79.541 246.106 79.541 246.552H77.915C77.915 245.901 78.0791 245.31 78.4072 244.776C78.7354 244.243 79.1953 243.818 79.7871 243.502C80.3848 243.186 81.0762 243.027 81.8613 243.027C82.6348 243.027 83.3115 243.165 83.8916 243.44C84.4717 243.71 84.9229 244.114 85.2451 244.653C85.5674 245.187 85.7285 245.852 85.7285 246.648C85.7285 246.971 85.6523 247.316 85.5 247.686C85.3535 248.049 85.1221 248.389 84.8057 248.705C84.4951 249.021 84.0908 249.282 83.5928 249.487C83.0947 249.687 82.4971 249.786 81.7998 249.786H80.4111V248.802ZM80.4111 250.138V249.162H81.7998C82.6143 249.162 83.2881 249.259 83.8213 249.452C84.3545 249.646 84.7734 249.903 85.0781 250.226C85.3887 250.548 85.6055 250.902 85.7285 251.289C85.8574 251.67 85.9219 252.051 85.9219 252.432C85.9219 253.029 85.8193 253.56 85.6143 254.022C85.415 254.485 85.1309 254.878 84.7617 255.2C84.3984 255.522 83.9707 255.766 83.4785 255.93C82.9863 256.094 82.4502 256.176 81.8701 256.176C81.3135 256.176 80.7891 256.097 80.2969 255.938C79.8105 255.78 79.3799 255.552 79.0049 255.253C78.6299 254.948 78.3369 254.576 78.126 254.137C77.915 253.691 77.8096 253.185 77.8096 252.616H79.4355C79.4355 253.062 79.5322 253.451 79.7256 253.785C79.9248 254.119 80.2061 254.38 80.5693 254.567C80.9385 254.749 81.3721 254.84 81.8701 254.84C82.3682 254.84 82.7959 254.755 83.1533 254.585C83.5166 254.409 83.7949 254.146 83.9883 253.794C84.1875 253.442 84.2871 253 84.2871 252.467C84.2871 251.934 84.1758 251.497 83.9531 251.157C83.7305 250.812 83.4141 250.557 83.0039 250.393C82.5996 250.223 82.1221 250.138 81.5713 250.138H80.4111Z" fill="black"/>
<path d="M179.407 182.133V195H177.781V184.163L174.503 185.358V183.891L179.152 182.133H179.407Z" fill="black"/>
<path d="M172.623 268.892V270.228H168.334V268.892H172.623ZM179.382 262.133V275H177.756V264.163L174.478 265.358V263.891L179.127 262.133H179.382Z" fill="black"/>
<path d="M172.623 308.892V310.228H168.334V308.892H172.623ZM182.423 313.664V315H174.047V313.831L178.239 309.164C178.755 308.59 179.153 308.104 179.435 307.705C179.722 307.301 179.921 306.94 180.032 306.624C180.149 306.302 180.208 305.974 180.208 305.64C180.208 305.218 180.12 304.837 179.944 304.497C179.774 304.151 179.522 303.876 179.188 303.671C178.854 303.466 178.45 303.363 177.976 303.363C177.407 303.363 176.933 303.475 176.552 303.697C176.177 303.914 175.896 304.219 175.708 304.611C175.521 305.004 175.427 305.455 175.427 305.965H173.801C173.801 305.244 173.959 304.585 174.275 303.987C174.592 303.39 175.061 302.915 175.682 302.563C176.303 302.206 177.067 302.027 177.976 302.027C178.784 302.027 179.476 302.171 180.05 302.458C180.624 302.739 181.063 303.138 181.368 303.653C181.679 304.163 181.834 304.761 181.834 305.446C181.834 305.821 181.77 306.202 181.641 306.589C181.518 306.97 181.345 307.351 181.122 307.731C180.905 308.112 180.65 308.487 180.357 308.856C180.07 309.226 179.763 309.589 179.435 309.946L176.007 313.664H182.423Z" fill="black"/>
<path d="M172.623 348.892V350.228H168.334V348.892H172.623ZM176.411 347.802H177.571C178.14 347.802 178.608 347.708 178.978 347.521C179.353 347.327 179.631 347.066 179.812 346.738C180 346.404 180.094 346.029 180.094 345.613C180.094 345.121 180.012 344.708 179.848 344.374C179.684 344.04 179.438 343.788 179.109 343.618C178.781 343.448 178.365 343.363 177.861 343.363C177.404 343.363 177 343.454 176.648 343.636C176.303 343.812 176.03 344.063 175.831 344.392C175.638 344.72 175.541 345.106 175.541 345.552H173.915C173.915 344.901 174.079 344.31 174.407 343.776C174.735 343.243 175.195 342.818 175.787 342.502C176.385 342.186 177.076 342.027 177.861 342.027C178.635 342.027 179.312 342.165 179.892 342.44C180.472 342.71 180.923 343.114 181.245 343.653C181.567 344.187 181.729 344.852 181.729 345.648C181.729 345.971 181.652 346.316 181.5 346.686C181.354 347.049 181.122 347.389 180.806 347.705C180.495 348.021 180.091 348.282 179.593 348.487C179.095 348.687 178.497 348.786 177.8 348.786H176.411V347.802ZM176.411 349.138V348.162H177.8C178.614 348.162 179.288 348.259 179.821 348.452C180.354 348.646 180.773 348.903 181.078 349.226C181.389 349.548 181.605 349.902 181.729 350.289C181.857 350.67 181.922 351.051 181.922 351.432C181.922 352.029 181.819 352.56 181.614 353.022C181.415 353.485 181.131 353.878 180.762 354.2C180.398 354.522 179.971 354.766 179.479 354.93C178.986 355.094 178.45 355.176 177.87 355.176C177.313 355.176 176.789 355.097 176.297 354.938C175.811 354.78 175.38 354.552 175.005 354.253C174.63 353.948 174.337 353.576 174.126 353.137C173.915 352.691 173.81 352.185 173.81 351.616H175.436C175.436 352.062 175.532 352.451 175.726 352.785C175.925 353.119 176.206 353.38 176.569 353.567C176.938 353.749 177.372 353.84 177.87 353.84C178.368 353.84 178.796 353.755 179.153 353.585C179.517 353.409 179.795 353.146 179.988 352.794C180.188 352.442 180.287 352 180.287 351.467C180.287 350.934 180.176 350.497 179.953 350.157C179.73 349.812 179.414 349.557 179.004 349.393C178.6 349.223 178.122 349.138 177.571 349.138H176.411Z" fill="black"/>
<path d="M183.448 163.664V165H175.072V163.831L179.265 159.164C179.78 158.59 180.179 158.104 180.46 157.705C180.747 157.301 180.946 156.94 181.058 156.624C181.175 156.302 181.233 155.974 181.233 155.64C181.233 155.218 181.146 154.837 180.97 154.497C180.8 154.151 180.548 153.876 180.214 153.671C179.88 153.466 179.476 153.363 179.001 153.363C178.433 153.363 177.958 153.475 177.577 153.697C177.202 153.914 176.921 154.219 176.733 154.611C176.546 155.004 176.452 155.455 176.452 155.965H174.826C174.826 155.244 174.984 154.585 175.301 153.987C175.617 153.39 176.086 152.915 176.707 152.563C177.328 152.206 178.093 152.027 179.001 152.027C179.81 152.027 180.501 152.171 181.075 152.458C181.649 152.739 182.089 153.138 182.394 153.653C182.704 154.163 182.859 154.761 182.859 155.446C182.859 155.821 182.795 156.202 182.666 156.589C182.543 156.97 182.37 157.351 182.147 157.731C181.931 158.112 181.676 158.487 181.383 158.856C181.096 159.226 180.788 159.589 180.46 159.946L177.032 163.664H183.448Z" fill="black"/>
<path d="M176.437 107.802H177.597C178.165 107.802 178.634 107.708 179.003 107.521C179.378 107.327 179.656 107.066 179.838 106.738C180.025 106.404 180.119 106.029 180.119 105.613C180.119 105.121 180.037 104.708 179.873 104.374C179.709 104.04 179.463 103.788 179.135 103.618C178.807 103.448 178.391 103.363 177.887 103.363C177.43 103.363 177.025 103.454 176.674 103.636C176.328 103.812 176.056 104.063 175.856 104.392C175.663 104.72 175.566 105.106 175.566 105.552H173.94C173.94 104.901 174.104 104.31 174.433 103.776C174.761 103.243 175.221 102.818 175.812 102.502C176.41 102.186 177.102 102.027 177.887 102.027C178.66 102.027 179.337 102.165 179.917 102.44C180.497 102.71 180.948 103.114 181.271 103.653C181.593 104.187 181.754 104.852 181.754 105.648C181.754 105.971 181.678 106.316 181.525 106.686C181.379 107.049 181.147 107.389 180.831 107.705C180.521 108.021 180.116 108.282 179.618 108.487C179.12 108.687 178.522 108.786 177.825 108.786H176.437V107.802ZM176.437 109.138V108.162H177.825C178.64 108.162 179.313 108.259 179.847 108.452C180.38 108.646 180.799 108.903 181.104 109.226C181.414 109.548 181.631 109.902 181.754 110.289C181.883 110.67 181.947 111.051 181.947 111.432C181.947 112.029 181.845 112.56 181.64 113.022C181.44 113.485 181.156 113.878 180.787 114.2C180.424 114.522 179.996 114.766 179.504 114.93C179.012 115.094 178.476 115.176 177.896 115.176C177.339 115.176 176.814 115.097 176.322 114.938C175.836 114.78 175.405 114.552 175.03 114.253C174.655 113.948 174.362 113.576 174.151 113.137C173.94 112.691 173.835 112.185 173.835 111.616H175.461C175.461 112.062 175.558 112.451 175.751 112.785C175.95 113.119 176.231 113.38 176.595 113.567C176.964 113.749 177.397 113.84 177.896 113.84C178.394 113.84 178.821 113.755 179.179 113.585C179.542 113.409 179.82 113.146 180.014 112.794C180.213 112.442 180.312 112 180.312 111.467C180.312 110.934 180.201 110.497 179.979 110.157C179.756 109.812 179.439 109.557 179.029 109.393C178.625 109.223 178.147 109.138 177.597 109.138H176.437Z" fill="black"/>
<path d="M182.712 70.6934V72.0293H173.466V71.0713L179.196 62.2031H180.523L179.1 64.7695L175.312 70.6934H182.712ZM180.928 62.2031V75H179.302V62.2031H180.928Z" fill="black"/>
<path d="M284.448 254.664V256H276.072V254.831L280.265 250.164C280.78 249.59 281.179 249.104 281.46 248.705C281.747 248.301 281.946 247.94 282.058 247.624C282.175 247.302 282.233 246.974 282.233 246.64C282.233 246.218 282.146 245.837 281.97 245.497C281.8 245.151 281.548 244.876 281.214 244.671C280.88 244.466 280.476 244.363 280.001 244.363C279.433 244.363 278.958 244.475 278.577 244.697C278.202 244.914 277.921 245.219 277.733 245.611C277.546 246.004 277.452 246.455 277.452 246.965H275.826C275.826 246.244 275.984 245.585 276.301 244.987C276.617 244.39 277.086 243.915 277.707 243.563C278.328 243.206 279.093 243.027 280.001 243.027C280.81 243.027 281.501 243.171 282.075 243.458C282.649 243.739 283.089 244.138 283.394 244.653C283.704 245.163 283.859 245.761 283.859 246.446C283.859 246.821 283.795 247.202 283.666 247.589C283.543 247.97 283.37 248.351 283.147 248.731C282.931 249.112 282.676 249.487 282.383 249.856C282.096 250.226 281.788 250.589 281.46 250.946L278.032 254.664H284.448Z" fill="black"/>
<path d="M365.712 251.693V253.029H356.466V252.071L362.196 243.203H363.523L362.1 245.77L358.312 251.693H365.712ZM363.928 243.203V256H362.302V243.203H363.928Z" fill="black"/>
<path d="M398.12 249.909L396.819 249.575L397.461 243.203H404.026V244.706H398.841L398.454 248.187C398.688 248.052 398.984 247.926 399.342 247.809C399.705 247.691 400.121 247.633 400.59 247.633C401.182 247.633 401.712 247.735 402.181 247.94C402.649 248.14 403.048 248.427 403.376 248.802C403.71 249.177 403.965 249.628 404.141 250.155C404.316 250.683 404.404 251.271 404.404 251.922C404.404 252.537 404.319 253.103 404.149 253.618C403.985 254.134 403.736 254.585 403.402 254.972C403.068 255.353 402.646 255.648 402.137 255.859C401.633 256.07 401.038 256.176 400.353 256.176C399.837 256.176 399.348 256.105 398.885 255.965C398.428 255.818 398.018 255.599 397.654 255.306C397.297 255.007 397.004 254.638 396.775 254.198C396.553 253.753 396.412 253.231 396.354 252.634H397.9C397.971 253.114 398.111 253.519 398.322 253.847C398.533 254.175 398.809 254.424 399.148 254.594C399.494 254.758 399.896 254.84 400.353 254.84C400.739 254.84 401.082 254.772 401.381 254.638C401.68 254.503 401.932 254.31 402.137 254.058C402.342 253.806 402.497 253.501 402.603 253.144C402.714 252.786 402.77 252.385 402.77 251.939C402.77 251.535 402.714 251.16 402.603 250.814C402.491 250.469 402.324 250.167 402.102 249.909C401.885 249.651 401.618 249.452 401.302 249.312C400.985 249.165 400.622 249.092 400.212 249.092C399.667 249.092 399.254 249.165 398.973 249.312C398.697 249.458 398.413 249.657 398.12 249.909Z" fill="black"/>
<path d="M443.304 243.186H443.444V244.565H443.304C442.442 244.565 441.722 244.706 441.142 244.987C440.562 245.263 440.102 245.635 439.762 246.104C439.422 246.566 439.176 247.088 439.023 247.668C438.877 248.248 438.804 248.837 438.804 249.435V251.315C438.804 251.884 438.871 252.388 439.006 252.827C439.141 253.261 439.325 253.627 439.56 253.926C439.794 254.225 440.058 254.45 440.351 254.603C440.649 254.755 440.96 254.831 441.282 254.831C441.657 254.831 441.991 254.761 442.284 254.62C442.577 254.474 442.823 254.271 443.022 254.014C443.228 253.75 443.383 253.439 443.488 253.082C443.594 252.725 443.646 252.332 443.646 251.904C443.646 251.523 443.6 251.157 443.506 250.806C443.412 250.448 443.269 250.132 443.075 249.856C442.882 249.575 442.639 249.355 442.346 249.197C442.059 249.033 441.716 248.951 441.317 248.951C440.866 248.951 440.444 249.062 440.052 249.285C439.665 249.502 439.346 249.789 439.094 250.146C438.848 250.498 438.707 250.882 438.672 251.298L437.811 251.289C437.893 250.633 438.045 250.073 438.268 249.61C438.496 249.142 438.777 248.761 439.111 248.468C439.451 248.169 439.829 247.952 440.245 247.817C440.667 247.677 441.112 247.606 441.581 247.606C442.22 247.606 442.771 247.727 443.233 247.967C443.696 248.207 444.077 248.529 444.376 248.934C444.675 249.332 444.895 249.783 445.035 250.287C445.182 250.785 445.255 251.298 445.255 251.825C445.255 252.429 445.17 252.994 445 253.521C444.83 254.049 444.575 254.512 444.235 254.91C443.901 255.309 443.488 255.619 442.996 255.842C442.504 256.064 441.933 256.176 441.282 256.176C440.591 256.176 439.987 256.035 439.472 255.754C438.956 255.467 438.528 255.086 438.188 254.611C437.849 254.137 437.594 253.609 437.424 253.029C437.254 252.449 437.169 251.86 437.169 251.263V250.498C437.169 249.596 437.26 248.711 437.441 247.844C437.623 246.977 437.937 246.191 438.382 245.488C438.833 244.785 439.457 244.226 440.254 243.81C441.051 243.394 442.067 243.186 443.304 243.186Z" fill="black"/>
<path d="M319.437 248.802H320.597C321.165 248.802 321.634 248.708 322.003 248.521C322.378 248.327 322.656 248.066 322.838 247.738C323.025 247.404 323.119 247.029 323.119 246.613C323.119 246.121 323.037 245.708 322.873 245.374C322.709 245.04 322.463 244.788 322.135 244.618C321.807 244.448 321.391 244.363 320.887 244.363C320.43 244.363 320.025 244.454 319.674 244.636C319.328 244.812 319.056 245.063 318.856 245.392C318.663 245.72 318.566 246.106 318.566 246.552H316.94C316.94 245.901 317.104 245.31 317.433 244.776C317.761 244.243 318.221 243.818 318.812 243.502C319.41 243.186 320.102 243.027 320.887 243.027C321.66 243.027 322.337 243.165 322.917 243.44C323.497 243.71 323.948 244.114 324.271 244.653C324.593 245.187 324.754 245.852 324.754 246.648C324.754 246.971 324.678 247.316 324.525 247.686C324.379 248.049 324.147 248.389 323.831 248.705C323.521 249.021 323.116 249.282 322.618 249.487C322.12 249.687 321.522 249.786 320.825 249.786H319.437V248.802ZM319.437 250.138V249.162H320.825C321.64 249.162 322.313 249.259 322.847 249.452C323.38 249.646 323.799 249.903 324.104 250.226C324.414 250.548 324.631 250.902 324.754 251.289C324.883 251.67 324.947 252.051 324.947 252.432C324.947 253.029 324.845 253.56 324.64 254.022C324.44 254.485 324.156 254.878 323.787 255.2C323.424 255.522 322.996 255.766 322.504 255.93C322.012 256.094 321.476 256.176 320.896 256.176C320.339 256.176 319.814 256.097 319.322 255.938C318.836 255.78 318.405 255.552 318.03 255.253C317.655 254.948 317.362 254.576 317.151 254.137C316.94 253.691 316.835 253.185 316.835 252.616H318.461C318.461 253.062 318.558 253.451 318.751 253.785C318.95 254.119 319.231 254.38 319.595 254.567C319.964 254.749 320.397 254.84 320.896 254.84C321.394 254.84 321.821 254.755 322.179 254.585C322.542 254.409 322.82 254.146 323.014 253.794C323.213 253.442 323.312 253 323.312 252.467C323.312 251.934 323.201 251.497 322.979 251.157C322.756 250.812 322.439 250.557 322.029 250.393C321.625 250.223 321.147 250.138 320.597 250.138H319.437Z" fill="black"/>
<path d="M287.948 42H285.276L285.294 40.6201H287.948C288.862 40.6201 289.624 40.4297 290.233 40.0488C290.843 39.6621 291.3 39.123 291.604 38.4316C291.915 37.7344 292.07 36.9199 292.07 35.9883V35.2061C292.07 34.4736 291.982 33.8232 291.807 33.2549C291.631 32.6807 291.373 32.1973 291.033 31.8047C290.693 31.4062 290.277 31.1045 289.785 30.8994C289.299 30.6943 288.739 30.5918 288.106 30.5918H285.224V29.2031H288.106C288.944 29.2031 289.709 29.3438 290.4 29.625C291.092 29.9004 291.687 30.3018 292.185 30.8291C292.688 31.3506 293.075 31.9834 293.345 32.7275C293.614 33.4658 293.749 34.2979 293.749 35.2236V35.9883C293.749 36.9141 293.614 37.749 293.345 38.4932C293.075 39.2314 292.686 39.8613 292.176 40.3828C291.672 40.9043 291.062 41.3057 290.348 41.5869C289.639 41.8623 288.839 42 287.948 42ZM286.182 29.2031V42H284.485V29.2031H286.182ZM303.479 33.4307V34.8457H296.148V33.4307H303.479ZM303.479 37.0781V38.4932H296.148V37.0781H303.479ZM316.029 35.1973V36.0059C316.029 36.9668 315.909 37.8281 315.669 38.5898C315.429 39.3516 315.083 39.999 314.632 40.5322C314.181 41.0654 313.639 41.4727 313.006 41.7539C312.379 42.0352 311.676 42.1758 310.896 42.1758C310.141 42.1758 309.446 42.0352 308.813 41.7539C308.187 41.4727 307.642 41.0654 307.179 40.5322C306.722 39.999 306.367 39.3516 306.115 38.5898C305.863 37.8281 305.737 36.9668 305.737 36.0059V35.1973C305.737 34.2363 305.86 33.3779 306.106 32.6221C306.358 31.8604 306.713 31.2129 307.17 30.6797C307.627 30.1406 308.169 29.7305 308.796 29.4492C309.429 29.168 310.123 29.0273 310.879 29.0273C311.658 29.0273 312.361 29.168 312.988 29.4492C313.621 29.7305 314.163 30.1406 314.614 30.6797C315.071 31.2129 315.42 31.8604 315.66 32.6221C315.906 33.3779 316.029 34.2363 316.029 35.1973ZM314.351 36.0059V35.1797C314.351 34.418 314.271 33.7441 314.113 33.1582C313.961 32.5723 313.735 32.0801 313.437 31.6816C313.138 31.2832 312.771 30.9814 312.338 30.7764C311.91 30.5713 311.424 30.4688 310.879 30.4688C310.352 30.4688 309.874 30.5713 309.446 30.7764C309.024 30.9814 308.661 31.2832 308.356 31.6816C308.058 32.0801 307.826 32.5723 307.662 33.1582C307.498 33.7441 307.416 34.418 307.416 35.1797V36.0059C307.416 36.7734 307.498 37.4531 307.662 38.0449C307.826 38.6309 308.061 39.126 308.365 39.5303C308.676 39.9287 309.042 40.2305 309.464 40.4355C309.892 40.6406 310.369 40.7432 310.896 40.7432C311.447 40.7432 311.937 40.6406 312.364 40.4355C312.792 40.2305 313.152 39.9287 313.445 39.5303C313.744 39.126 313.97 38.6309 314.122 38.0449C314.274 37.4531 314.351 36.7734 314.351 36.0059Z" fill="#FF0000"/>
<path d="M214.006 11.4902V21H212.371V11.4902H214.006ZM212.248 8.96777C212.248 8.7041 212.327 8.48145 212.485 8.2998C212.649 8.11816 212.89 8.02734 213.206 8.02734C213.517 8.02734 213.754 8.11816 213.918 8.2998C214.088 8.48145 214.173 8.7041 214.173 8.96777C214.173 9.21973 214.088 9.43652 213.918 9.61816C213.754 9.79395 213.517 9.88184 213.206 9.88184C212.89 9.88184 212.649 9.79395 212.485 9.61816C212.327 9.43652 212.248 9.21973 212.248 8.96777ZM224.438 6.375V7.71094H222.76V22.4062H224.438V23.7422H221.134V6.375H224.438ZM230.846 9.33691L226.609 21H224.878L229.756 8.20312H230.872L230.846 9.33691ZM234.396 21L230.151 9.33691L230.125 8.20312H231.241L236.137 21H234.396ZM234.177 16.2627V17.6514H226.987V16.2627H234.177ZM236.453 7.71094V6.375H239.775V23.7422H236.453V22.4062H238.141V7.71094H236.453Z" fill="black"/>
<path d="M520.058 251.803V244.49H521.692V254H520.137L520.058 251.803ZM520.365 249.799L521.042 249.781C521.042 250.414 520.975 251 520.84 251.539C520.711 252.072 520.5 252.535 520.207 252.928C519.914 253.32 519.53 253.628 519.056 253.851C518.581 254.067 518.004 254.176 517.324 254.176C516.861 254.176 516.437 254.108 516.05 253.974C515.669 253.839 515.341 253.631 515.065 253.35C514.79 253.068 514.576 252.702 514.424 252.251C514.277 251.8 514.204 251.258 514.204 250.625V244.49H515.83V250.643C515.83 251.07 515.877 251.425 515.971 251.706C516.07 251.981 516.202 252.201 516.366 252.365C516.536 252.523 516.724 252.635 516.929 252.699C517.14 252.764 517.356 252.796 517.579 252.796C518.271 252.796 518.818 252.664 519.223 252.4C519.627 252.131 519.917 251.771 520.093 251.319C520.274 250.862 520.365 250.355 520.365 249.799ZM531.993 239.375V240.711H530.314V255.406H531.993V256.742H528.688V239.375H531.993ZM537.794 252.058L541.564 241.203H543.401L538.664 254H537.354L537.794 252.058ZM534.27 241.203L538.005 252.058L538.471 254H537.161L532.433 241.203H534.27ZM543.885 240.711V239.375H547.207V256.742H543.885V255.406H545.572V240.711H543.885Z" fill="black"/>
<path d="M41.9482 139H39.2764L39.2939 137.62H41.9482C42.8623 137.62 43.624 137.43 44.2334 137.049C44.8428 136.662 45.2998 136.123 45.6045 135.432C45.915 134.734 46.0703 133.92 46.0703 132.988V132.206C46.0703 131.474 45.9824 130.823 45.8066 130.255C45.6309 129.681 45.373 129.197 45.0332 128.805C44.6934 128.406 44.2773 128.104 43.7852 127.899C43.2988 127.694 42.7393 127.592 42.1064 127.592H39.2236V126.203H42.1064C42.9443 126.203 43.709 126.344 44.4004 126.625C45.0918 126.9 45.6865 127.302 46.1846 127.829C46.6885 128.351 47.0752 128.983 47.3447 129.728C47.6143 130.466 47.749 131.298 47.749 132.224V132.988C47.749 133.914 47.6143 134.749 47.3447 135.493C47.0752 136.231 46.6855 136.861 46.1758 137.383C45.6719 137.904 45.0625 138.306 44.3477 138.587C43.6387 138.862 42.8389 139 41.9482 139ZM40.1816 126.203V139H38.4854V126.203H40.1816ZM61.9434 130.431V131.846H54.6133V130.431H61.9434ZM61.9434 134.078V135.493H54.6133V134.078H61.9434ZM76.832 134.931H78.5195C78.4316 135.739 78.2002 136.463 77.8252 137.102C77.4502 137.74 76.9199 138.247 76.2344 138.622C75.5488 138.991 74.6934 139.176 73.668 139.176C72.918 139.176 72.2354 139.035 71.6201 138.754C71.0107 138.473 70.4863 138.074 70.0469 137.559C69.6074 137.037 69.2676 136.413 69.0273 135.687C68.793 134.954 68.6758 134.14 68.6758 133.243V131.969C68.6758 131.072 68.793 130.261 69.0273 129.534C69.2676 128.802 69.6104 128.175 70.0557 127.653C70.5068 127.132 71.0488 126.73 71.6816 126.449C72.3145 126.168 73.0264 126.027 73.8174 126.027C74.7842 126.027 75.6016 126.209 76.2695 126.572C76.9375 126.936 77.4561 127.439 77.8252 128.084C78.2002 128.723 78.4316 129.464 78.5195 130.308H76.832C76.75 129.71 76.5977 129.197 76.375 128.77C76.1523 128.336 75.8359 128.002 75.4258 127.768C75.0156 127.533 74.4795 127.416 73.8174 127.416C73.249 127.416 72.748 127.524 72.3145 127.741C71.8867 127.958 71.5264 128.266 71.2334 128.664C70.9463 129.062 70.7295 129.54 70.583 130.097C70.4365 130.653 70.3633 131.271 70.3633 131.951V133.243C70.3633 133.87 70.4277 134.459 70.5566 135.01C70.6914 135.561 70.8936 136.044 71.1631 136.46C71.4326 136.876 71.7754 137.204 72.1914 137.444C72.6074 137.679 73.0996 137.796 73.668 137.796C74.3887 137.796 74.9629 137.682 75.3906 137.453C75.8184 137.225 76.1406 136.896 76.3574 136.469C76.5801 136.041 76.7383 135.528 76.832 134.931Z" fill="#11D700"/>
</svg>
